<?xml version="1.0" standalone="no"?>
<!DOCTYPE svg PUBLIC "-//W3C//DTD SVG 1.1//EN" "http://www.w3.org/Graphics/SVG/1.1/DTD/svg11.dtd" >
<svg xmlns="http://www.w3.org/2000/svg" xmlns:xlink="http://www.w3.org/1999/xlink" version="1.1">
<metadata></metadata>
<defs>
<font id="tf_srivichaibold_italic" horiz-adv-x="755" >
<font-face units-per-em="2048" ascent="1638" descent="-410" />
<missing-glyph horiz-adv-x="491" />
<glyph unicode="ffj" horiz-adv-x="1183" d="M39 0l123 586h-115l25 116h114l13 58q45 209 239 209q76 0 107 -8l-25 -121q-41 8 -71 8q-76 0 -91 -74l-16 -72h272l13 58q45 209 239 209q76 0 107 -8l-25 -121q-41 8 -71 8q-76 0 -91 -74l-16 -72h385l-162 -761q-45 -219 -245 -220q-39 0 -70 7l27 120q39 -4 51 -4 q41 0 57 22.5t29 80.5l135 639h-232l-122 -586h-156l123 586h-273l-122 -586h-156zM1018 895q10 43 46 71.5t79 28.5t65.5 -28.5t12.5 -71.5q-8 -43 -43 -72.5t-78 -29.5t-66.5 29.5t-15.5 72.5z" />
<glyph unicode="fj" d="M39 0l123 586h-115l25 116h114l13 58q45 209 239 209q76 0 107 -8l-25 -121q-41 8 -71 8q-76 0 -91 -74l-16 -72h385l-162 -761q-45 -219 -246 -220q-39 0 -69 7l26 120q39 -4 52 -4q41 0 57 22.5t29 80.5l135 639h-232l-122 -586h-156zM590 895q10 43 46 71.5t79 28.5 t65.5 -28.5t12.5 -71.5q-8 -43 -43 -72.5t-78 -29.5t-66.5 29.5t-15.5 72.5z" />
<glyph unicode="&#xe24;&#xe32;" horiz-adv-x="1363" d="M94 166l53 252q12 59 55.5 108t73.5 58q-49 55 -155 73q168 168 405 168q342 0 285 -272l-180 -848h-135l182 856q33 154 -166 154q-94 0 -168 -43q68 -29 113 -80q-31 -12 -84 -55q-78 -63 -92 -131l-25 -111q16 2 33 2q66 0 106.5 -40t26.5 -112q-16 -74 -80 -116 q-51 -37 -113 -37q-94 0 -125 61q-25 45 -10 113zM205 147q-6 -25 7 -41t38 -16t44 16t25 41q4 25 -8 41.5t-37 16.5t-45 -16.5t-24 -41.5zM678 567q74 256 346 256q311 0 252 -278l-178 -840h-135l178 836q37 174 -127 174q-178 0 -211 -148h-125z" />
<glyph unicode="&#xe26;&#xe32;" horiz-adv-x="1458" d="M2 137q14 72 74 113q53 39 119 39q18 0 34 -2l29 131q12 57 64 112q39 45 65 54q-59 45 -156 73q168 168 398 168q334 0 276 -272l-180 -848h-135l182 856q33 154 -158 154q-94 0 -159 -43q70 -29 112 -80q-39 -14 -88 -55q-74 -63 -88 -131l-53 -248q-14 -68 -57 -113 q-57 -61 -152 -61q-61 0 -98 36q-43 43 -29 117zM104 139q-6 -25 7.5 -41t38.5 -16t44 16t25 41t-7 41.5t-38 16.5t-44 -16.5t-26 -41.5zM772 567q74 256 346 256q311 0 252 -278l-178 -840h-135l178 836q37 174 -127 174q-178 0 -211 -148h-125z" />
<glyph unicode="ff" horiz-adv-x="856" d="M39 0l123 586h-115l25 116h114l13 58q45 209 239 209q76 0 107 -8l-25 -121q-41 8 -71 8q-76 0 -91 -74l-16 -72h272l13 58q45 209 239 209q76 0 107 -8l-25 -121q-41 8 -71 8q-76 0 -91 -74l-16 -72h131l-24 -116h-132l-122 -586h-156l123 586h-273l-122 -586h-156z" />
<glyph unicode="fi" d="M39 0l123 586h-115l25 116h114l13 58q45 209 239 209q76 0 107 -8l-25 -121q-41 8 -71 8q-76 0 -91 -74l-16 -72h385l-147 -702h-154l123 586h-232l-122 -586h-156zM590 895q10 43 46 71.5t79 28.5t65.5 -28.5t12.5 -71.5q-8 -43 -43 -72.5t-78 -29.5t-66.5 29.5 t-15.5 72.5z" />
<glyph unicode="fl" d="M39 0l123 586h-115l25 116h114l13 58q45 209 239 209h346l-204 -969h-154l178 848h-155q-76 0 -91 -74l-16 -72h131l-24 -116h-132l-122 -586h-156z" />
<glyph unicode="ffi" horiz-adv-x="1183" d="M39 0l123 586h-115l25 116h114l13 58q45 209 239 209q76 0 107 -8l-25 -121q-41 8 -71 8q-76 0 -91 -74l-16 -72h272l13 58q45 209 239 209q76 0 107 -8l-25 -121q-41 8 -71 8q-76 0 -91 -74l-16 -72h385l-147 -702h-154l123 586h-232l-122 -586h-156l123 586h-273 l-122 -586h-156zM1018 895q10 43 46 71.5t79 28.5t65.5 -28.5t12.5 -71.5q-8 -43 -43 -72.5t-78 -29.5t-66.5 29.5t-15.5 72.5z" />
<glyph unicode="ffl" horiz-adv-x="1183" d="M39 0l123 586h-115l25 116h114l13 58q45 209 239 209q76 0 107 -8l-25 -121q-41 8 -71 8q-76 0 -91 -74l-16 -72h272l13 58q45 209 239 209h346l-204 -969h-154l178 848h-155q-76 0 -91 -74l-16 -72h131l-24 -116h-132l-122 -586h-156l123 586h-273l-122 -586h-156z" />
<glyph unicode="RSADLogo" horiz-adv-x="1480" d="M53 324v208q0 23 18.5 40.5t43.5 17.5h477q-33 -31 -52.5 -73t-19.5 -89t19.5 -89t52.5 -71h-477q-25 0 -43.5 16.5t-18.5 39.5zM104 356q0 -23 9.5 -30t25.5 -7h33v76h39q25 0 31 -8t6 -29q0 -33 10 -39h66l-7 33q16 -23 40 -31t46 -8q47 0 75 18.5t28 57.5 q0 31 -19.5 44t-44 19.5t-44 11.5t-19.5 17q0 14 24 15q6 0 19 -4q8 -8 10 -17h70q-4 29 -26.5 50.5t-69.5 21.5q-29 0 -55.5 -11.5t-37.5 -37.5q-10 43 -94 43h-74q-23 0 -32 -14.5t-9 -30.5v-140zM172 444v45h49q29 0 29 -20q0 -25 -29 -25h-49zM279 424q27 6 34 31 q4 -16 16.5 -25.5t28.5 -15.5q29 -10 54.5 -14.5t25.5 -18.5q0 -16 -30 -16q-27 0 -33 22h-60q-10 31 -36 37zM537 428q0 86 58 144.5t144 58.5t144.5 -58.5t58.5 -144.5t-58.5 -144.5t-144.5 -58.5t-144 58.5t-58 144.5zM555 428q0 -78 53.5 -131t130.5 -53q78 0 131.5 53 t53.5 131t-53.5 131t-131.5 53t-131 -53t-53 -131zM567 428q0 72 50.5 122t121.5 50q72 0 122 -50t50 -122t-50 -122t-122 -50t-122 50t-50 122zM604 352h27l12 41l39 2l27 2l14 -45h16l-59 154h-16zM647 412l33 77l22 -79l-26 2h-29zM754 352h63q29 0 45.5 22.5t16.5 53.5 q0 35 -16.5 56.5t-55.5 21.5h-53v-154zM768 365l16 129h19q16 -2 23.5 -3.5t11.5 -3.5q16 -10 21 -26.5t5 -32.5t-8 -39.5t-43 -23.5h-45zM942 297q0 27 27 27q29 0 28 -27q1 -29 -28 -29q-27 0 -27 29zM942 561q0 29 27 29q29 0 28 -29q0 -10 -8 -19.5t-20 -9.5 q-10 0 -18.5 9.5t-8.5 19.5zM967 360q0 10 8 19.5t18 9.5q12 0 20.5 -9t8.5 -20q0 -28 -29 -28q-27 0 -26 28zM967 494q0 27 26 26q29 0 29 -26q0 -29 -29 -29q-27 0 -26 29zM975 424q0 29 26 29q29 0 29 -29q0 -27 -29 -27q-27 0 -26 27zM1022 297q0 10 7 17.5t18 7.5 q10 0 17 -7.5t7 -17.5q1 -25 -24 -25q-10 0 -17.5 7.5t-7.5 17.5zM1022 561q0 10 7 17.5t18 7.5q25 0 24 -25q1 -24 -24 -24q-10 0 -17.5 7t-7.5 17zM1042 360q0 10 7.5 17.5t17.5 7.5q27 0 27 -25t-27 -24q-10 0 -17.5 7t-7.5 17zM1042 494q0 10 7.5 17t17.5 7t18.5 -7 t8.5 -17q0 -25 -27 -25q-10 0 -17.5 7t-7.5 18zM1047 424q0 10 7 17.5t17 7.5q27 0 27 -25q0 -10 -8.5 -17.5t-18.5 -7.5t-17 7.5t-7 17.5zM1098 297q0 20 22 20q23 0 23 -20q0 -23 -23 -23t-22 23zM1098 561q0 23 22 23q23 0 23 -23q0 -22 -23 -22t-22 22zM1116 360 q0 23 21 23q23 0 22 -23q1 -22 -22 -22q-20 0 -21 22zM1116 494q0 20 21 20q23 0 22 -20q1 -23 -22 -23q-20 0 -21 23zM1120 424q0 23 23 22q20 0 20 -22q0 -21 -20 -21q-23 0 -23 21zM1171 297q0 18 19 18q20 0 20 -18q0 -21 -20 -21q-18 0 -19 21zM1171 561q0 18 19 19 q20 -1 20 -19t-20 -18q-18 0 -19 18zM1188 360q0 18 18 19q21 -1 21 -19t-21 -18q-18 0 -18 18zM1188 494q0 18 18 18q20 0 21 -18q-1 -21 -21 -21q-18 0 -18 21zM1192 424q0 20 20 20q18 0 19 -20q-1 -18 -19 -18q-20 0 -20 18zM1243 297q0 16 17 16q16 0 16 -16t-16 -16 t-17 16zM1243 561q0 16 17 17q16 0 16 -17q0 -16 -16 -16t-17 16zM1262 360q0 16 16 17q14 0 14 -17q0 -16 -14 -16q-16 0 -16 16zM1262 494q0 16 16 16q14 0 14 -16q0 -17 -14 -17q-16 0 -16 17zM1266 424q0 16 16 16q14 0 14 -16t-14 -16q-16 0 -16 16zM1317 297 q0 12 12 12q14 0 14 -12q0 -14 -14 -14q-12 0 -12 14zM1317 561q0 14 12 14q14 0 14 -14q0 -12 -14 -12q-12 0 -12 12zM1333 360q0 12 15 13q12 0 12 -13q0 -14 -12 -14q-14 0 -15 14zM1333 494q0 12 15 12q12 0 12 -12q0 -15 -12 -15q-14 0 -15 15zM1337 424q0 14 15 14 q12 0 12 -14q0 -12 -12 -12q-14 0 -15 12zM1389 297q0 10 10 10t10 -10t-10 -10t-10 10zM1389 561q0 10 10 10t10 -10t-10 -10t-10 10zM1405 360q0 10 12 11q10 0 10 -11q0 -10 -10 -10q-12 0 -12 10zM1405 494q0 10 12 10q10 0 10 -10q0 -11 -10 -11q-12 0 -12 11z M1411 424q0 10 10 10t11 -10q-1 -10 -11 -10t-10 10z" />
<glyph unicode="&#xd;" horiz-adv-x="491" />
<glyph unicode=" "  horiz-adv-x="491" />
<glyph unicode="&#x09;" horiz-adv-x="491" />
<glyph unicode="&#xa0;" horiz-adv-x="491" />
<glyph unicode="!" horiz-adv-x="376" d="M18 90q10 43 45 73t78 30t67.5 -30t14.5 -73t-46 -72.5t-79 -29.5t-66.5 29.5t-13.5 72.5zM119 270l43 420l59 279h170l-59 -279l-133 -420h-80z" />
<glyph unicode="&#x22;" horiz-adv-x="602" d="M147 586l82 383h140l-82 -383h-140zM387 586l82 383h137l-82 -383h-137z" />
<glyph unicode="#" d="M18 285l23 102h141l62 176h-127l22 103h142l98 284h110l-100 -284h150l100 284h109l-101 -284h117l-23 -103h-129l-61 -176h115l-23 -102h-129l-100 -285h-109l98 285h-147l-100 -285h-109l98 285h-127zM291 387h151l62 176h-152z" />
<glyph unicode="$" d="M-2 295h154q-45 -190 133 -197l69 330q-135 39 -192 90q-82 76 -53 209q27 123 137 199q100 68 229 67l21 105h57l-21 -105q129 0 197 -65q70 -72 43 -201h-154q25 143 -112 143l-62 -286q143 -41 205 -92q82 -76 53 -209q-31 -145 -136 -222t-251 -84l-22 -106h-57 l22 106q-150 4 -221.5 86t-38.5 232zM266 737q-20 -98 125 -139l58 272q-154 0 -183 -133zM342 98q170 15 201 162q25 111 -133 156z" />
<glyph unicode="%" horiz-adv-x="1357" d="M170 698q57 268 285 269q227 -1 170 -269t-285 -268q-227 0 -170 268zM256 -33l745 1016h105l-744 -1016h-106zM293 698q-39 -180 63 -180q107 0 146 180t-68 181q-102 0 -141 -181zM756 250q57 268 284 268t170 -268q-55 -268 -282 -268t-172 268zM879 250 q-37 -180 65 -180q106 0 143 180q39 180 -67 180q-102 0 -141 -180z" />
<glyph unicode="&#x26;" horiz-adv-x="880" d="M10 268q37 166 285 283q-74 123 -53 211q20 102 103 166.5t183 64.5t156 -57q59 -66 35 -176q-31 -150 -225 -246l110 -182q35 59 60 131h135q-45 -139 -127 -238l139 -225h-190l-66 109q-129 -127 -299 -127q-135 0 -202.5 76.5t-43.5 209.5zM166 266q-16 -76 17.5 -120 t103.5 -44q101 0 207 109l-140 238q-164 -66 -188 -183zM381 770q-8 -41 12.5 -83t42.5 -79q132 78 148 158q10 47 -11.5 79t-66.5 32q-43 0 -78 -29t-47 -78z" />
<glyph unicode="'" horiz-adv-x="376" d="M154 586l82 383h139l-82 -383h-139z" />
<glyph unicode="(" horiz-adv-x="376" d="M55 367q68 322 330 626h127q-233 -301 -301 -626q-74 -342 35 -627h-127q-129 315 -64 627z" />
<glyph unicode=")" horiz-adv-x="376" d="M-152 -260q225 297 295 625q74 342 -30 628h125q129 -315 61 -628q-68 -326 -326 -625h-125z" />
<glyph unicode="*" horiz-adv-x="501" d="M102 776l48 88l137 -57l35 162h92l-35 -162l160 57l14 -88l-164 -51l68 -127l-84 -53l-68 133l-121 -133l-63 53l121 127z" />
<glyph unicode="+" horiz-adv-x="815" d="M66 274v140h272v272h139v-272h273v-140h-273v-274h-139v274h-272z" />
<glyph unicode="," horiz-adv-x="376" d="M-39 -111q35 18 70 50t59 61q-59 0 -74.5 28.5t-9.5 63.5q10 47 48 71.5t79 24.5t70.5 -29.5t15.5 -92.5q-10 -55 -63.5 -117t-132.5 -109z" />
<glyph unicode="-" horiz-adv-x="528" d="M39 297l31 145h395l-31 -145h-395z" />
<glyph unicode="." horiz-adv-x="376" d="M12 90q10 45 48 76t83 31t69.5 -31t14.5 -76t-47 -76.5t-82 -31.5t-70.5 31.5t-15.5 76.5z" />
<glyph unicode="/" horiz-adv-x="477" d="M-123 -23l606 1016h148l-606 -1016h-148z" />
<glyph unicode="0" d="M61 475q104 494 433 494t225 -494t-434 -493q-326 0 -224 493zM215 475q-78 -365 96 -364q174 -1 252 364t-96 365t-252 -365z" />
<glyph unicode="1" d="M125 672l27 121q246 0 309 157h127l-201 -950h-170l141 672h-233z" />
<glyph unicode="2" d="M-35 0q47 217 285 360q209 127 217 134q113 84 135 178q41 168 -123 168q-156 0 -215 -238h-155q35 164 143 265.5t262 101.5q158 0 219 -99q49 -80 25 -192q-37 -176 -281 -322q-88 -53 -179 -108t-118 -109h463l-29 -139h-649z" />
<glyph unicode="3" d="M20 311h154q-23 -88 13 -144t124 -56q80 0 139.5 45t77.5 125q35 172 -215 159l25 117q88 -4 151 29q74 39 93 121q12 59 -22 96t-97 37q-78 0 -132.5 -57.5t-66.5 -135.5h-155q35 141 139 231.5t244 90.5q121 0 192 -64q80 -70 55 -190q-33 -154 -178 -203l-2 -2 q78 -16 109.5 -81t13.5 -157q-29 -131 -143.5 -210.5t-253.5 -79.5q-162 0 -230 92q-61 86 -35 237z" />
<glyph unicode="4" d="M-6 225l31 154l528 571h145l-127 -602h123l-26 -123h-123l-47 -225h-146l47 225h-405zM137 348h289l88 418h-4z" />
<glyph unicode="5" d="M16 270h156q-23 -160 139 -159q178 0 224 208q16 84 -19 141.5t-123 57.5q-121 0 -172 -88h-153l213 520h491l-29 -139h-376l-101 -242v-2q82 72 193 72q137 0 197.5 -89t31.5 -228q-29 -131 -125 -228q-113 -113 -274 -112q-143 0 -219.5 74.5t-53.5 213.5z" />
<glyph unicode="6" d="M51 125q-41 119 8 352q43 199 148 332q129 160 315 160q115 0 181.5 -73t48.5 -185h-154q18 129 -111 129q-111 0 -182 -117q-41 -66 -84 -209l2 -2q88 113 230 113q137 0 202 -93q60 -88 29 -227q-29 -139 -136.5 -231t-246.5 -92q-195 0 -250 143zM193 309 q-18 -84 15.5 -141t113.5 -57t137 61q55 55 73 137q16 80 -15.5 136.5t-110.5 56.5q-82 0 -139.5 -55.5t-73.5 -137.5z" />
<glyph unicode="7" d="M86 0q121 436 539 811h-494l29 139h651l-27 -129q-399 -360 -528 -821h-170z" />
<glyph unicode="8" d="M14 281q39 188 222 231v2q-123 51 -93 197q27 123 118 190.5t233 67.5q141 0 204.5 -69t36.5 -189q-31 -145 -176 -197v-2q164 -43 125 -231q-31 -137 -141.5 -218t-257.5 -81t-223 80.5t-48 218.5zM168 281q-18 -82 21.5 -130.5t119.5 -48.5t140.5 48.5t78.5 130.5 q16 78 -24.5 121.5t-120.5 43.5q-78 0 -139.5 -45t-75.5 -120zM287 702q-12 -66 21.5 -103.5t99.5 -37.5t116 37.5t62 103.5q14 68 -20 107t-99 39q-63 0 -114.5 -39t-65.5 -107z" />
<glyph unicode="9" d="M25 240h155q-16 -129 111 -129q111 0 184 116q41 66 84 209l-4 2q-88 -115 -229 -114q-133 0 -198 88t-34 233q31 141 137.5 232.5t257.5 91.5q188 0 240 -144q41 -119 -8 -352q-43 -199 -150 -332q-129 -160 -313 -159q-115 0 -182.5 72.5t-50.5 185.5zM250 647 q-18 -84 10 -139q33 -61 113 -62q82 0 141 62q56 55 74 139q16 80 -16.5 136.5t-114.5 56.5q-80 0 -135.5 -55.5t-71.5 -137.5z" />
<glyph unicode=":" horiz-adv-x="376" d="M12 90q10 45 48 76t83 31t69.5 -31t14.5 -76t-47 -76.5t-82 -31.5t-70.5 31.5t-15.5 76.5zM119 594q10 45 48 75.5t83 30.5t69.5 -30.5t14.5 -75.5t-47 -77t-82 -32t-70.5 32t-15.5 77z" />
<glyph unicode=";" horiz-adv-x="376" d="M-39 -111q35 18 70 50t59 61q-59 0 -74.5 28.5t-9.5 63.5q10 47 48 71.5t79 24.5t70.5 -29.5t15.5 -92.5q-10 -55 -63.5 -117t-132.5 -109zM119 594q10 45 48 75.5t83 30.5t69.5 -30.5t14.5 -75.5t-47 -77t-82 -32t-70.5 32t-15.5 77z" />
<glyph unicode="&#x3c;" horiz-adv-x="815" d="M61 295v98l691 305v-139l-508 -215l508 -217v-137z" />
<glyph unicode="=" horiz-adv-x="815" d="M66 137v139h684v-139h-684zM66 412v139h684v-139h-684z" />
<glyph unicode="&#x3e;" horiz-adv-x="815" d="M61 -10v137l508 217l-508 215v139l691 -305v-98z" />
<glyph unicode="?" d="M117 662q33 150 141.5 240.5t257.5 90.5q127 0 195 -73.5t41 -200.5q-18 -86 -68 -144q-27 -31 -101.5 -84t-101.5 -85q-47 -53 -65 -142h-146q25 113 64 172q31 51 102.5 103.5t89.5 70.5q41 43 54 103q16 74 -21 116q-33 35 -80 35q-164 0 -207 -202h-155zM201 88 q8 43 44 72.5t79 29.5t66.5 -29.5t15.5 -72.5q-10 -43 -46 -72.5t-79 -29.5t-67 29.5t-13 72.5z" />
<glyph unicode="@" horiz-adv-x="1085" d="M66 354q0 205 147 348.5t352 143.5q186 0 320.5 -114t134.5 -286q0 -184 -119 -303q-100 -100 -203 -100q-74 0 -80 78h-2q-70 -78 -151 -78q-84 0 -141.5 63.5t-57.5 151.5q0 135 84 242.5t213 107.5q104 0 152 -96l24 76h97l-99 -357q-10 -41 -10 -61q0 -33 25 -33 q66 0 121 87t55 206q0 147 -104.5 237.5t-258.5 90.5q-170 0 -279.5 -118t-109.5 -290q0 -197 112.5 -314.5t289.5 -117.5q188 0 305 133h94q-137 -221 -406 -221q-213 0 -356 145q-150 150 -149 379zM381 270q0 -55 29.5 -90t78.5 -35q76 0 134 84q53 76 53 158 q0 47 -32 84t-75 37q-80 0 -137 -82q-51 -74 -51 -156z" />
<glyph unicode="A" horiz-adv-x="905" d="M-98 0l577 969h180l170 -969h-182l-39 256h-387l-143 -256h-176zM295 385h295l-55 418h-5z" />
<glyph unicode="B" horiz-adv-x="956" d="M14 0l205 969h471q246 0 246 -173q0 -31 -8 -67q-31 -145 -183 -207l-2 -2q140 -33 140 -174q0 -35 -9 -76q-27 -121 -124 -192q-109 -78 -289 -78h-447zM213 139h301q162 0 195 154q5 24 5 43q0 104 -136 104h-302zM303 563h279q61 0 108.5 36t61.5 99q5 23 5 41 q0 92 -118 92h-279z" />
<glyph unicode="C" horiz-adv-x="980" d="M66 485q45 215 198 359q163 149 372 149h3q168 0 263 -89q80 -75 80 -195q0 -23 -3 -47h-170q-8 192 -199 192h-2q-145 0 -250 -115q-90 -100 -122 -254q-14 -64 -14 -118q0 -78 28 -138q55 -114 198 -114h3q109 0 192 73q74 68 111 181h164q-47 -174 -183.5 -283 t-312.5 -109q-211 0 -309 150q-62 96 -62 225q0 62 15 133z" />
<glyph unicode="D" horiz-adv-x="980" d="M14 0l205 969h404q213 0 292 -142q48 -81 47 -195q0 -68 -16 -147q-45 -215 -176 -344q-139 -141 -352 -141h-404zM213 139h168q184 0 283 101q79 79 114 245q15 72 15 128q0 72 -25 118q-55 100 -240 100h-168z" />
<glyph unicode="E" horiz-adv-x="856" d="M14 0l205 969h699l-31 -146h-529l-53 -254h490l-31 -139h-490l-59 -283h539l-31 -147h-709z" />
<glyph unicode="F" horiz-adv-x="804" d="M14 0l205 969h670l-31 -146h-500l-53 -254h438l-30 -139h-439l-90 -430h-170z" />
<glyph unicode="G" horiz-adv-x="1030" d="M74 485q45 215 202.5 361.5t368.5 146.5q166 0 260 -84q86 -78 86 -205q0 -20 -2 -42h-166q1 11 1 21q0 77 -53 121q-60 50 -157 50q-145 0 -249 -115q-90 -100 -123 -254q-13 -62 -13 -115q0 -79 29 -139q53 -116 197 -116h2q129 0 215 70.5t114 195.5h-258l27 129h412 l-107 -510h-108l-2 115q-150 -137 -322 -138q-211 0 -307 150q-63 94 -63 222q0 64 16 136z" />
<glyph unicode="H" horiz-adv-x="980" d="M10 0l205 969h170l-82 -385h442l82 385h170l-204 -969h-170l92 436h-443l-92 -436h-170z" />
<glyph unicode="I" horiz-adv-x="376" d="M14 0l205 969h170l-205 -969h-170z" />
<glyph unicode="J" horiz-adv-x="729" d="M-8 289l10 51h168l-12 -51q-8 -38 -8 -67q0 -107 104 -107q78 0 123 49q35 43 55 139l141 666h170l-139 -658q-33 -154 -104 -229q-98 -104 -287 -105q-233 0 -233 206q0 48 12 106z" />
<glyph unicode="K" horiz-adv-x="929" d="M14 0l205 969h170l-94 -441l526 441h209l-469 -387l291 -582h-211l-219 463l-170 -137l-68 -326h-170z" />
<glyph unicode="L" horiz-adv-x="780" d="M14 0l205 969h170l-174 -822h494l-31 -147h-664z" />
<glyph unicode="M" horiz-adv-x="1206" d="M12 0l205 969h240l104 -758h4l422 758h236l-205 -969h-162l158 748h-2l-426 -748h-140l-112 748h-2l-158 -748h-162z" />
<glyph unicode="N" horiz-adv-x="980" d="M8 0l205 969h180l291 -713h2l152 713h161l-204 -969h-181l-290 713h-5l-149 -713h-162z" />
<glyph unicode="O" horiz-adv-x="1032" d="M66 485q45 215 198 359q163 149 372 149h3q211 0 309 -149q62 -97 62 -225q0 -63 -15 -134q-45 -215 -198 -358q-164 -150 -375 -150t-309 150q-62 96 -62 225q0 62 15 133zM236 485q-14 -64 -14 -118q0 -78 28 -138q55 -114 198 -114h3q145 0 249 114q92 102 125 256 q13 62 13 115q0 79 -29 139q-55 115 -201 115q-145 0 -250 -115q-90 -100 -122 -254z" />
<glyph unicode="P" horiz-adv-x="905" d="M14 0l205 969h428q184 0 246 -105q29 -48 29 -115q0 -37 -9 -79q-25 -117 -102 -193q-106 -104 -291 -104h-258l-78 -373h-170zM291 510h250q68 0 121 35q65 43 81 127q6 28 6 51q0 108 -135 108h-2h-252z" />
<glyph unicode="Q" horiz-adv-x="1032" d="M66 485q45 215 198 359q163 149 372 149h3q211 0 309 -149q62 -96 62 -225q0 -63 -15 -134q-51 -242 -217 -372l103 -109l-105 -92l-114 123q-113 -57 -240 -58q-211 0 -309 150q-62 96 -62 225q0 62 15 133zM236 485q-14 -64 -14 -118q0 -78 28 -138q55 -114 198 -114h3 q57 0 114 24l-80 84l101 94l98 -102q104 100 141 270q13 62 13 115q0 79 -29 139q-55 115 -201 115q-145 0 -250 -115q-90 -100 -122 -254z" />
<glyph unicode="R" horiz-adv-x="956" d="M14 0l205 969h463q274 0 274 -190q0 -33 -8 -72q-41 -190 -211 -244l-2 -2q109 -16 109 -133q0 -32 -8 -72q-22 -100 -22 -164t22 -92h-183q-9 20 -9 54q0 37 11 89q17 78 17 130q0 40 -10 65q-31 61 -144 61h-250l-84 -399h-170zM295 528h278q166 0 199 154q5 25 5 45 q0 104 -138 104h-2h-277z" />
<glyph unicode="S" horiz-adv-x="880" d="M25 324h170q-7 -32 -7 -60q0 -149 207 -149q104 0 168 47q55 39 70 100q4 17 4 33q0 62 -59 86q-20 8 -273 80q-169 47 -169 186q0 28 7 60q29 137 156 217q115 69 256 69h4q160 0 248 -82q64 -60 64 -154q0 -35 -9 -75h-168q3 19 3 37q0 135 -175 135q-178 0 -205 -127 q-3 -14 -3 -27q0 -70 92 -96q108 -31 264 -76q86 -27 120 -97q23 -47 23 -99q0 -25 -6 -51q-33 -152 -172 -234q-119 -70 -281 -70q-176 0 -264 82q-73 69 -73 183q0 38 8 82z" />
<glyph unicode="T" horiz-adv-x="804" d="M96 823l31 146h786l-30 -146h-310l-174 -823h-170l174 823h-307z" />
<glyph unicode="U" horiz-adv-x="980" d="M78 348l131 621h170l-119 -563q-18 -80 -18 -133q0 -35 8 -58q31 -92 176 -92q147 0 219 92q43 57 72 191l119 563h170l-132 -621q-39 -182 -166.5 -276.5t-312.5 -94.5q-184 0 -266 93q-63 68 -63 177q0 47 12 101z" />
<glyph unicode="V" horiz-adv-x="829" d="M111 969h176l82 -766h2l409 766h172l-534 -969h-191z" />
<glyph unicode="W" horiz-adv-x="1282" d="M125 969h172l18 -742h2l355 742h172l33 -742h4l338 742h172l-473 -969h-173l-38 741h-2l-355 -741h-174z" />
<glyph unicode="X" horiz-adv-x="880" d="M-92 0l450 502l-223 467h203l147 -342l303 342h189l-418 -467l238 -502h-207l-164 371l-324 -371h-194z" />
<glyph unicode="Y" horiz-adv-x="880" d="M109 969h196l164 -434l346 434h191l-488 -588l-80 -381h-170l80 381z" />
<glyph unicode="Z" horiz-adv-x="856" d="M-57 0l30 139l709 684h-522l30 146h738l-27 -129l-711 -693h578l-31 -147h-794z" />
<glyph unicode="[" horiz-adv-x="401" d="M-43 -260l264 1253h303l-26 -123h-158l-215 -1007h158l-25 -123h-301z" />
<glyph unicode="\" horiz-adv-x="477" d="M92 993h150l172 -1016h-148z" />
<glyph unicode="]" horiz-adv-x="401" d="M-139 -260l24 123h154l215 1007h-156l27 123h303l-266 -1253h-301z" />
<glyph unicode="^" horiz-adv-x="815" d="M123 455l348 495h98l140 -495h-140l-82 336l-227 -336h-137z" />
<glyph unicode="_" horiz-adv-x="677" d="M-123 -170l14 68h676l-14 -68h-676z" />
<glyph unicode="`" horiz-adv-x="327" d="M133 1231h182l82 -195h-112z" />
<glyph unicode="a" d="M-4 186q23 117 119 168q61 31 196 52q76 10 152 22q68 18 80 76q2 11 2 21q0 73 -127 73q-143 0 -180 -111h-154q61 233 369 234q117 0 184 -45q58 -42 58 -113q0 -21 -5 -45l-76 -362q-3 -13 -3 -23q0 -30 28 -31q20 0 39 4l-25 -108q-47 -16 -98 -16q-104 0 -104 84 q-102 -84 -258 -84q-102 0 -158 51q-44 41 -44 106q0 22 5 47zM150 193q-1 -8 -1 -14q0 -37 35 -58q37 -18 88 -19q63 0 119 31q70 37 84 103l25 116q-33 -20 -90.5 -28.5t-108.5 -14.5q-131 -20 -151 -116z" />
<glyph unicode="b" horiz-adv-x="829" d="M-2 0l205 969h153l-75 -359h4q90 111 231 111q160 0 225 -109q37 -65 37 -154q0 -51 -12 -110q-33 -154 -129 -254q-103 -112 -249 -112h-3q-186 0 -219 114h-4l-19 -96h-145zM221 350q-9 -42 -9 -78q0 -58 23 -100q37 -70 130 -70q98 0 165 78q59 68 82 170q8 39 8 74 q0 55 -20 98q-39 76 -129 76q-197 0 -250 -248z" />
<glyph unicode="c" d="M31 344q35 166 147.5 271.5t278.5 105.5q129 0 202 -62q64 -59 65 -155q0 -18 -3 -37h-156q1 9 1 17q0 114 -132 114q-193 0 -248 -254q-8 -40 -8 -75q0 -50 17 -89q33 -78 127 -78q143 0 200 162h156q-104 -282 -379 -282h-2q-162 0 -234 104q-42 66 -42 159q0 46 10 99 z" />
<glyph unicode="d" horiz-adv-x="829" d="M33 356q39 178 153 279q102 86 230 86q166 0 211 -111h2l76 359h155l-205 -969h-147l18 94h-2q-79 -112 -236 -112h-3q-160 0 -226 108q-38 64 -38 155q0 51 12 111zM186 344q-8 -38 -8 -71q0 -54 21 -95q37 -76 131 -76q96 0 166 80q61 68 84 170q10 45 10 83 q0 57 -24 97q-38 66 -128 66q-100 0 -172 -80q-57 -68 -80 -174z" />
<glyph unicode="e" d="M33 350q33 156 149.5 263.5t268.5 107.5q147 0 221 -109q47 -70 47 -163q0 -42 -10 -89q-6 -25 -13 -49h-516q-7 -33 -7 -61q0 -49 22 -84q37 -63 129 -64q129 0 194 117h148q-47 -113 -147.5 -175t-219.5 -62q-162 0 -233 104q-44 65 -44 161q0 48 11 103zM201 414h360 q3 19 3 37q0 53 -26 93q-36 54 -112 54q-78 0 -140.5 -52t-84.5 -132z" />
<glyph unicode="f" horiz-adv-x="428" d="M39 0l123 586h-115l25 116h114l13 58q45 209 239 209q76 0 107 -8l-25 -121q-41 8 -71 8q-76 0 -91 -74l-16 -72h131l-24 -116h-132l-122 -586h-156z" />
<glyph unicode="g" horiz-adv-x="804" d="M-29 -59h154q0 -104 145 -105q180 0 219 180l23 107h-2q-94 -123 -236 -123q-158 0 -219 109q-32 59 -32 141q0 55 14 119q31 147 139.5 249.5t251.5 102.5q152 0 184 -115h2l21 96h156l-142 -665q-66 -315 -411 -316q-121 0 -197 48q-72 51 -72 144q0 14 2 28zM188 354 q-8 -37 -8 -69q0 -50 19 -88q35 -74 125 -74q96 0 161 78q57 66 80 166q8 40 8 74q0 50 -18 87q-35 70 -129 70t-162 -78q-53 -66 -76 -166z" />
<glyph unicode="h" horiz-adv-x="780" d="M-6 0l205 969h153l-76 -359h5q86 111 231 111q208 0 208 -166q0 -34 -9 -74l-101 -481h-155l92 440q7 32 7 57q0 101 -110 101q-76 0 -134 -52t-77 -132l-86 -414h-153z" />
<glyph unicode="i" horiz-adv-x="327" d="M-2 0l147 702h154l-147 -702h-154zM162 895q10 43 46 71.5t79 28.5q43 -1 65 -29q16 -20 16 -46q0 -12 -3 -25q-10 -43 -44 -72.5t-77 -29.5q-44 -1 -68 29q-17 21 -17 49q0 12 3 24z" />
<glyph unicode="j" horiz-adv-x="327" d="M-176 -272l26 120q39 -4 52 -4q41 0 57 22.5t29 80.5l157 755h154l-162 -761q-45 -219 -243 -220q-39 0 -70 7zM162 895q10 43 46 71.5t79 28.5t65 -29q16 -19 16 -46q0 -12 -3 -25q-10 -43 -44 -72.5t-77 -29.5t-68 29q-17 21 -17 49q0 12 3 24z" />
<glyph unicode="k" horiz-adv-x="729" d="M-2 0l205 969h153l-116 -551l340 284h190l-324 -258l201 -444h-188l-144 340l-110 -88l-53 -252h-154z" />
<glyph unicode="l" horiz-adv-x="327" d="M-2 0l205 969h153l-204 -969h-154z" />
<glyph unicode="m" horiz-adv-x="1181" d="M-6 0l147 702h146l-21 -98h4q104 117 242 117q152 0 172 -117q109 117 244 117q195 0 194 -161q0 -34 -8 -75l-102 -485h-156l86 410q13 67 13 105q0 19 -3 32q-14 51 -96 51q-150 0 -190 -186l-86 -412h-154l94 451q7 31 7 55q0 92 -99 92q-63 0 -118.5 -48t-73.5 -132 l-89 -418h-153z" />
<glyph unicode="n" horiz-adv-x="780" d="M-6 0l147 702h146l-21 -104l2 -2q98 125 244 125q208 0 208 -166q0 -34 -9 -74l-101 -481h-155l92 440q7 32 7 57q0 101 -110 101q-76 0 -134 -52t-77 -132l-86 -414h-153z" />
<glyph unicode="o" horiz-adv-x="804" d="M35 352q35 164 150.5 266.5t281.5 102.5q167 -1 239 -103q49 -69 49 -166q0 -47 -12 -100q-35 -166 -151 -268q-115 -102 -281 -102q-167 0 -239 102q-49 69 -48 167q0 47 11 101zM188 352q-9 -40 -9 -74q0 -54 22 -96q37 -80 135 -80t168 80q61 68 84 170q8 38 8 71 q0 55 -21 97q-35 78 -133 78t-170 -78q-63 -68 -84 -168z" />
<glyph unicode="p" horiz-adv-x="829" d="M-55 -260l200 962h146l-21 -96h4q86 115 242 115q160 0 225 -109q37 -65 37 -154q0 -51 -12 -110q-33 -154 -129 -254q-103 -112 -249 -112h-3q-164 0 -211 108h-4l-74 -350h-151zM221 350q-9 -42 -9 -78q0 -58 23 -100q37 -70 130 -70q98 0 165 78q59 68 82 170 q8 39 8 74q0 55 -20 98q-39 76 -129 76q-197 0 -250 -248z" />
<glyph unicode="q" horiz-adv-x="829" d="M33 348q33 162 140.5 267.5t266.5 105.5q156 0 193 -115h2l20 96h148l-203 -962h-156l74 350h-2q-91 -108 -255 -108h-3q-147 0 -207 112q-31 61 -31 141q0 53 13 113zM188 350q-10 -43 -10 -79q0 -51 19 -91q35 -78 133 -78q197 0 250 248q11 53 11 94q0 154 -155 154 q-92 0 -159.5 -72.5t-88.5 -175.5z" />
<glyph unicode="r" horiz-adv-x="477" d="M-6 0l147 702h146l-29 -137h2q27 59 98.5 107.5t139.5 48.5q31 0 59 -4l-33 -150q-13 1 -25 1q-130 0 -191 -58q-66 -64 -91 -176l-70 -334h-153z" />
<glyph unicode="s" horiz-adv-x="704" d="M2 225h156q-2 -12 -1 -23q0 -100 132 -100q162 0 178 93q1 4 1 9q0 59 -103 85q-190 47 -205 55q-84 43 -84 132q0 21 4 44q23 104 133 158q86 43 203 43q249 0 249 -186q0 -14 -1 -29h-162q2 92 -123 92q-127 0 -143 -72q-1 -7 -1 -13q0 -40 56 -62q16 -6 147 -37 q102 -25 144 -60q46 -38 46 -101q0 -21 -5 -44q-25 -115 -140 -176q-96 -51 -221 -51q-137 0 -207 59q-58 48 -58 131q0 25 5 53z" />
<glyph unicode="t" horiz-adv-x="452" d="M45 586l25 116h116l45 211h156l-45 -211h139l-24 -116h-140l-79 -375q-6 -29 -6 -48q0 -15 4 -24q8 -24 51 -24h4q45 0 67 6l-24 -119q-68 -8 -103 -8q-115 0 -147 45q-18 24 -18 67q0 29 8 66l88 414h-117z" />
<glyph unicode="u" horiz-adv-x="780" d="M47 256l94 446h154l-90 -430q-8 -37 -8 -65q0 -105 106 -105q172 0 213 193l86 407h156l-148 -702h-151l20 98h-4q-39 -53 -101.5 -84.5t-121.5 -31.5q-215 0 -215 187q0 39 10 87z" />
<glyph unicode="v" horiz-adv-x="704" d="M72 702h168l65 -538h2l285 538h160l-400 -702h-172z" />
<glyph unicode="w" horiz-adv-x="1056" d="M78 702h164l26 -524h2l242 524h158l14 -524h4l252 524h158l-367 -702h-160l-18 522h-4l-240 -522h-162z" />
<glyph unicode="x" horiz-adv-x="729" d="M-82 0l342 369l-174 333h188l101 -217l198 217h181l-308 -325l189 -377h-184l-125 260l-228 -260h-180z" />
<glyph unicode="y" horiz-adv-x="704" d="M-76 -270l29 131q57 -10 70 -11q49 0 79 27q20 18 50 72l30 53l-119 700h170l72 -524h4l289 524h160l-430 -741q-72 -125 -115 -168q-74 -72 -182 -72q-57 0 -107 9z" />
<glyph unicode="z" horiz-adv-x="677" d="M-57 0l24 109l486 471h-361l25 122h569l-22 -108l-502 -471h422l-25 -123h-616z" />
<glyph unicode="{" horiz-adv-x="401" d="M-29 305l27 123q47 0 92 25.5t55 72.5l60 281q18 86 96 141q63 45 119 45h123l-27 -123h-76q-76 0 -96 -94l-57 -266q-12 -61 -60.5 -98t-109.5 -43l-2 -4q139 -12 110 -150l-55 -258q-20 -94 55 -94h76l-25 -123h-122q-55 0 -101 45q-53 55 -35 141l58 269 q10 51 -21.5 80.5t-83.5 29.5z" />
<glyph unicode="|" horiz-adv-x="301" d="M82 -291v1358h137v-1358h-137z" />
<glyph unicode="}" horiz-adv-x="401" d="M-160 -260l25 123h76q74 0 94 94l57 266q12 61 60.5 98t109.5 44l2 4q-139 14 -110 149l55 258q20 94 -55 94h-76l26 123h125q55 0 99 -45q53 -55 34 -141l-57 -268q-10 -51 20.5 -81t84.5 -30l-27 -123q-49 0 -93 -25.5t-54 -72.5l-60 -281q-18 -86 -96 -141 q-61 -45 -115 -45h-125z" />
<glyph unicode="~" horiz-adv-x="815" d="M78 342q84 117 194 117q51 0 142 -43q102 -49 129 -49q49 0 137 92l25 -115q-111 -117 -195 -117q-51 0 -129 46t-145 46q-70 0 -134 -92z" />
<glyph unicode="&#xa1;" horiz-adv-x="376" d="M-35 -248l55 277l136 422h80l-46 -422l-57 -277h-168zM131 635q10 43 46 72.5t79 29.5t66.5 -29.5t13.5 -72.5q-8 -43 -44 -73t-79 -30t-66.5 30t-15.5 73z" />
<glyph unicode="&#xa2;" d="M27.5 204.5q-7.5 65.5 7.5 139.5q18 86 56 155.5t90 119t114.5 76t132.5 26.5l27 123h57l-27 -123q57 0 103.5 -17.5t79 -50t47 -80t6.5 -106.5h-154q4 59 -24.5 95t-81.5 36l-107 -496q66 10 109 52.5t65 109.5h156q-51 -129 -139 -205.5t-215 -76.5l-27 -123h-57 l26 123q-74 0 -126 28.5t-81.5 78.5t-37 115.5zM180 263q0 -40 12.5 -73.5t38 -57.5t66.5 -30l106 496q-47 -4 -82.5 -28.5t-61.5 -60.5t-44 -79t-27 -86q-8 -41 -8 -81z" />
<glyph unicode="&#xa3;" d="M-18 88q27 16 57.5 41t58 54.5t48 61t26.5 64.5q12 74 -2 123h-125l21 90h84q-23 37 -29 89.5t4 101.5q14 63 53 115.5t91.5 89t113.5 56t121 19.5q158 0 231.5 -84t38.5 -252h-156q6 43 4.5 81t-17 65.5t-46.5 44t-80 16.5q-63 0 -115.5 -41t-68.5 -118q-10 -47 0 -95.5 t24 -87.5h199l-20 -90h-168q16 -39 4 -90q-16 -74 -67.5 -128t-116.5 -95l2 -2q33 12 65.5 24.5t65.5 12.5q35 0 59.5 -7.5t46 -16.5t44 -16.5t52.5 -7.5q72 0 142 52l47 -105q-59 -45 -113.5 -60.5t-120.5 -15.5q-35 0 -66.5 7.5t-64.5 16.5t-65.5 16.5t-69.5 7.5 q-35 0 -76 -12.5t-71 -35.5z" />
<glyph unicode="&#xa4;" d="M27 199l77 82q-68 78 -67 192q0 57 16.5 109.5t50.5 87.5l-77 82l77 77l78 -75q35 29 88.5 45t110.5 16q53 0 104.5 -15.5t79.5 -43.5l80 75l82 -81l-76 -78q31 -35 47.5 -87.5t16.5 -107.5q0 -57 -16.5 -109.5t-47.5 -88.5l74 -80l-74 -76l-78 80q-35 -33 -87 -50.5 t-107 -17.5q-59 0 -111.5 16.5t-87.5 49.5l-78 -78zM184 473q0 -84 55.5 -142.5t139.5 -58.5t137 60.5t53 144.5q0 39 -14 76t-38.5 64.5t-59.5 44t-76 16.5q-86 0 -141.5 -59.5t-55.5 -145.5z" />
<glyph unicode="&#xa5;" d="M74 223l18 88h187l20 95h-186l18 88h133l-153 475h172l118 -434l310 434h168l-357 -475h135l-18 -88h-186l-21 -95h186l-18 -88h-186l-47 -223h-154l47 223h-186z" />
<glyph unicode="&#xa6;" horiz-adv-x="301" d="M82 -121v340h137v-340h-137zM82 557v340h137v-340h-137z" />
<glyph unicode="&#xa7;" d="M6 0h148q-10 -72 14.5 -114t93.5 -42q51 0 90 25t51 84q8 37 -6 66.5t-41.5 54t-64.5 46t-76 44.5t-77 48.5t-64.5 56t-40 68.5t-2.5 87q16 76 66 125t124 78q-23 31 -31 62.5t3 74.5q12 55 43.5 97t76.5 72t95.5 45t99.5 15q117 0 180.5 -67.5t38.5 -190.5h-147 q10 57 -15.5 96t-83.5 39q-43 0 -84 -27.5t-51 -74.5q-6 -33 7.5 -58.5t41 -47t64.5 -42t73 -40.5q37 -23 73 -46.5t61.5 -54t38 -68.5t2.5 -87q-14 -66 -67.5 -120t-119.5 -77q29 -31 40 -71t-1 -103q-12 -57 -44 -100t-75 -73t-95 -44.5t-103 -14.5q-125 0 -191.5 72 t-44.5 207zM178 422q0 -12 4 -26.5t16.5 -30t34.5 -29.5l218 -139q41 16 68.5 42.5t37.5 69.5q6 29 -8 54.5t-64 58.5l-196 129q-41 -10 -70 -40t-39 -71q-2 -6 -2 -18z" />
<glyph unicode="&#xa8;" horiz-adv-x="327" d="M10 895q10 41 44 68.5t75 27.5t63.5 -27.5t12.5 -68.5q-8 -41 -42 -69.5t-75 -28.5t-63.5 28.5t-14.5 69.5zM324 895q10 41 43.5 68.5t74.5 27.5t63.5 -27.5t12.5 -68.5q-8 -41 -42 -69.5t-75 -28.5t-63.5 28.5t-13.5 69.5z" />
<glyph unicode="&#xa9;" horiz-adv-x="1085" d="M94 485q0 102 36 187.5t98.5 145t143.5 93t173 33.5t172 -33.5t142.5 -93t98 -145t35.5 -187.5t-35.5 -187t-98 -144.5t-142.5 -93t-172 -33.5q-98 0 -181 34.5t-143.5 96t-93.5 145.5t-33 182zM193 485q0 -78 23.5 -146.5t69.5 -120.5t111.5 -82t147.5 -30 q74 0 138.5 28t110.5 78t73.5 118.5t27.5 154.5q0 84 -27.5 153t-73.5 120t-111 78.5t-138 27.5q-76 0 -140.5 -27.5t-111.5 -78.5t-73.5 -120t-26.5 -153zM299 485q0 55 17.5 103.5t51 83.5t81 55.5t108.5 20.5q84 0 144.5 -47.5t74.5 -137.5h-86q-10 49 -46 77t-87 28 q-78 0 -119 -52.5t-41 -130.5q0 -82 44 -140t120 -58q51 0 87 30.5t42 77.5h86q-16 -86 -75.5 -137t-139.5 -51q-61 0 -108 21.5t-82 58.5t-53.5 88t-18.5 110z" />
<glyph unicode="&#xaa;" horiz-adv-x="516" d="M68 633q8 39 29.5 63.5t51 38t63.5 20.5t67 13q55 10 94 17.5t45 33.5q8 45 -17.5 53.5t-52.5 8.5q-41 0 -68.5 -11.5t-37.5 -46.5h-117q14 43 39.5 71t59.5 44t73 23.5t76 7.5q35 0 67.5 -7.5t57 -22.5t36 -38.5t5.5 -56.5l-43 -205q-4 -16 -1 -24.5t19 -6.5h9t12 2 l-21 -92q-10 -4 -31.5 -8t-33.5 -4q-35 0 -53.5 14.5t-16.5 52.5q-12 -14 -33.5 -26t-46.5 -21.5t-49.5 -14.5t-44.5 -5q-63 0 -106.5 32.5t-30.5 94.5zM186 639q-6 -29 14.5 -37t51.5 -8q39 0 81 13.5t52 60.5l12 59q-23 -10 -55.5 -16t-65.5 -11q-31 -4 -57 -17t-33 -44z " />
<glyph unicode="&#xab;" horiz-adv-x="628" d="M41 293l33 151l245 168l-28 -139l-152 -104l107 -103l-29 -139zM309 293l33 151l246 168l-29 -139l-151 -104l106 -103l-29 -139z" />
<glyph unicode="&#xac;" horiz-adv-x="815" d="M66 412v139h684v-404h-140v265h-544z" />
<glyph unicode="&#xad;" horiz-adv-x="815" d="M35 274l28 140h685l-29 -140h-684z" />
<glyph unicode="&#xae;" horiz-adv-x="686" d="M135 766q0 55 20.5 103.5t57.5 84t85 57t103 21.5t103.5 -21.5t84.5 -57t57.5 -84t21.5 -103.5t-21.5 -103.5t-57.5 -85t-84 -57t-104 -20.5q-55 0 -103 20.5t-85 57t-57.5 85t-20.5 103.5zM201 766q0 -84 58 -142.5t142 -58.5t142.5 58.5t58.5 142.5t-58.5 142.5 t-142.5 58.5t-142 -58.5t-58 -142.5zM305 623v280h107q102 0 102 -82q0 -37 -21.5 -54t-52.5 -22l78 -122h-51l-74 118h-43v-118h-45zM350 782h51q29 0 47.5 6t18.5 37q0 27 -19.5 33t-41.5 6h-56v-82z" />
<glyph unicode="&#xaf;" horiz-adv-x="327" d="M59 840l19 88h391l-18 -88h-392z" />
<glyph unicode="&#xb0;" horiz-adv-x="542" d="M68 766q0 86 59 144.5t145 58.5t144.5 -58.5t58.5 -144.5t-58.5 -145.5t-144.5 -59.5t-145 59.5t-59 145.5zM143 766q0 -53 38 -90t91 -37t90 37t37 90t-36.5 90t-90.5 37q-53 0 -91 -37t-38 -90z" />
<glyph unicode="&#xb1;" horiz-adv-x="815" d="M66 0v139h684v-139h-684zM66 379v139h272v168h139v-168h273v-139h-273v-170h-139v170h-272z" />
<glyph unicode="&#xb2;" horiz-adv-x="489" d="M18 371q18 84 66.5 138t118.5 93q35 20 71.5 40t68.5 42.5t55.5 48t33.5 58.5q8 43 -17.5 63t-66.5 20q-53 0 -82.5 -39.5t-42.5 -86.5h-119q23 104 94.5 162.5t176.5 58.5q43 0 78.5 -10.5t60.5 -32t35 -54t0 -79.5q-16 -68 -67.5 -112t-110.5 -79q-61 -35 -116.5 -65.5 t-76.5 -71.5h289l-21 -94h-428z" />
<glyph unicode="&#xb3;" horiz-adv-x="489" d="M55 569h109q-14 -47 7.5 -81.5t78.5 -34.5q49 0 89 25.5t50 72.5q6 33 -3 51.5t-30.5 28.5t-50.5 12t-59 2l18 78q49 -2 96.5 17.5t57.5 66.5q8 37 -19.5 52t-60.5 15q-45 0 -79 -28.5t-40 -73.5h-108q23 94 89 145.5t160 51.5q37 0 72 -8.5t59.5 -27t35 -49t1.5 -73.5 q-10 -41 -38.5 -72.5t-75.5 -48.5v-4q51 -8 72.5 -47t9.5 -94q-18 -90 -94 -138.5t-171 -48.5q-111 0 -153.5 55.5t-22.5 155.5z" />
<glyph unicode="&#xb4;" horiz-adv-x="327" d="M141 795l164 194h182l-233 -194h-113z" />
<glyph unicode="&#xb5;" horiz-adv-x="780" d="M-59 -260l200 962h154l-90 -430q-20 -94 7.5 -132t90.5 -38q96 0 146.5 55.5t66.5 137.5l86 407h156l-148 -702h-151l20 98h-4q-41 -53 -101.5 -84.5t-107.5 -31.5q-33 0 -63.5 10t-48.5 39l-62 -291h-151z" />
<glyph unicode="&#xb6;" horiz-adv-x="815" d="M106 715q29 137 128.5 195.5t240.5 58.5h352l-252 -1186h-108l233 1098h-159l-234 -1098h-108l145 684q-133 0 -196.5 69.5t-41.5 178.5z" />
<glyph unicode="&#xb7;" horiz-adv-x="376" d="M84 410q10 41 46 70.5t77 29.5t66.5 -29.5t15.5 -70.5t-47 -72t-78 -31t-65.5 31t-14.5 72z" />
<glyph unicode="&#xb8;" horiz-adv-x="327" d="M-133 -272l37 55q20 -8 40.5 -15.5t43.5 -7.5q29 0 56.5 10.5t33.5 45.5q6 27 -10.5 40t-38.5 13q-29 0 -56 -14l-24 26l114 119h66l-80 -78v-4q10 4 19.5 4h25.5q41 0 72.5 -23.5t21.5 -76.5q-16 -70 -72.5 -96.5t-115.5 -26.5q-31 0 -71 6t-62 23z" />
<glyph unicode="&#xb9;" horiz-adv-x="489" d="M127 784l16 78q68 0 126.5 21.5t80.5 72.5h96l-124 -585h-119l88 413h-164z" />
<glyph unicode="&#xba;" horiz-adv-x="516" d="M88 737q23 104 97.5 168t193.5 64t167 -64t25 -168t-97.5 -167.5t-192.5 -63.5q-119 0 -167 63.5t-26 167.5zM203 687q2 -25 13 -45.5t31.5 -34t51.5 -13.5q66 0 103 46t51 97q10 51 -10.5 97.5t-82.5 46.5q-63 0 -103 -46.5t-50 -97.5q-6 -25 -4 -50z" />
<glyph unicode="&#xbb;" horiz-adv-x="628" d="M20 127l29 139l152 103l-107 104l29 139l176 -168l-33 -151zM289 127l28 139l152 103l-107 104l29 139l176 -168l-32 -151z" />
<glyph unicode="&#xbc;" horiz-adv-x="1185" d="M127 784l16 78q68 0 126.5 21.5t80.5 72.5h96l-124 -585h-119l88 413h-164zM170 -33l786 1016h107l-784 -1016h-109zM616 137l21 101l336 342h104l-76 -357h78l-18 -86h-78l-29 -133h-108l28 133h-258zM727 223h166q12 59 22.5 110.5t22.5 110.5q-57 -57 -105.5 -109 t-105.5 -112z" />
<glyph unicode="&#xbd;" horiz-adv-x="1185" d="M127 784l16 78q68 0 126.5 21.5t80.5 72.5h96l-124 -585h-119l88 413h-164zM170 -33l786 1016h107l-784 -1016h-109zM635 0q10 51 31.5 89t50 67.5t61.5 52t68 41.5q35 18 67.5 35.5t59 36t46 42t25.5 56.5q10 43 -14 66.5t-65 23.5q-57 0 -86 -43t-39 -90h-119 q23 106 92.5 167.5t177.5 61.5q88 0 140.5 -45t31.5 -139q-14 -68 -65 -112t-113 -79q-59 -35 -115.5 -65.5t-78.5 -71.5h288l-18 -94h-426z" />
<glyph unicode="&#xbe;" horiz-adv-x="1185" d="M68 569h108q-14 -47 7.5 -81.5t78.5 -34.5q49 0 89 25.5t50 72.5q6 31 -4 50.5t-30.5 28.5t-49 12t-59.5 1l18 80q49 -4 96.5 15.5t57.5 68.5q8 37 -19.5 52t-60.5 15q-45 0 -78.5 -28.5t-40.5 -73.5h-108q23 94 89.5 145.5t160.5 51.5q37 0 71.5 -8.5t59 -27t35 -49 t2.5 -73.5q-10 -41 -39 -72.5t-76 -48.5v-4q51 -8 72.5 -47t9.5 -94q-18 -90 -94 -138.5t-170 -48.5q-111 0 -154 55.5t-22 155.5zM170 -33l786 1016h107l-784 -1016h-109zM616 137l21 101l336 342h104l-76 -357h78l-18 -86h-78l-29 -133h-108l28 133h-258zM727 223h166 q12 59 22.5 110.5t22.5 110.5q-57 -57 -105.5 -109t-105.5 -112z" />
<glyph unicode="&#xbf;" d="M-23.5 -117q-11.5 49 0.5 113q18 94 65.5 141t100.5 84q31 23 57.5 43.5t48 45t37 58t25.5 83.5h148q-12 -59 -27.5 -101.5t-35 -73t-45 -54t-56.5 -46.5q-53 -39 -93 -72.5t-55 -101.5q-8 -39 0.5 -66.5t24.5 -45t37.5 -25.5t40.5 -8q86 0 137 55t70 141h153 q-14 -72 -50 -132t-88 -103t-117.5 -66.5t-139.5 -23.5q-61 0 -111.5 18t-83 53t-44 84zM317 629q8 43 44 72.5t79 29.5t66.5 -29.5t15.5 -72.5q-10 -43 -46 -73t-79 -30t-66.5 30t-13.5 73z" />
<glyph unicode="&#xc0;" horiz-adv-x="905" d="M-98 0l577 969h180l170 -969h-182l-39 256h-387l-143 -256h-176zM295 385h295l-55 418h-5zM459 1264h182l82 -195h-112z" />
<glyph unicode="&#xc1;" horiz-adv-x="905" d="M-98 0l577 969h180l170 -969h-182l-39 256h-387l-143 -256h-176zM295 385h295l-55 418h-5zM479 1069l164 194h182l-233 -194h-113z" />
<glyph unicode="&#xc2;" horiz-adv-x="905" d="M-98 0l577 969h180l170 -969h-182l-39 256h-387l-143 -256h-176zM295 385h295l-55 418h-5zM371 1069l186 194h151l105 -194h-125l-70 123l-123 -123h-124z" />
<glyph unicode="&#xc3;" horiz-adv-x="905" d="M-98 0l577 969h180l170 -969h-182l-39 256h-387l-143 -256h-176zM295 385h295l-55 418h-5zM334 1065q6 27 22.5 56.5t40 55t53.5 42t60 16.5q33 0 58.5 -7.5t48.5 -17.5q20 -10 38.5 -18.5t39.5 -8.5q29 0 47 16.5t32 43.5h76q-10 -33 -29.5 -69t-41.5 -56 q-23 -23 -51.5 -35t-65.5 -12q-23 0 -47.5 8t-46.5 18q-25 10 -47.5 17.5t-40.5 7.5q-25 0 -44.5 -18.5t-23.5 -38.5h-78z" />
<glyph unicode="&#xc4;" horiz-adv-x="905" d="M-98 0l577 969h180l170 -969h-182l-39 256h-387l-143 -256h-176zM295 385h295l-55 418h-5zM352 1145q10 41 44 68.5t75 27.5t63.5 -27.5t12.5 -68.5q-8 -41 -42 -69.5t-75 -28.5t-63.5 28.5t-14.5 69.5zM666 1145q10 41 43.5 68.5t74.5 27.5t63.5 -27.5t12.5 -68.5 q-8 -41 -42 -69.5t-75 -28.5t-63.5 28.5t-13.5 69.5z" />
<glyph unicode="&#xc5;" horiz-adv-x="905" d="M-98 0l577 969h180l170 -969h-182l-39 256h-387l-143 -256h-176zM295 385h295l-55 418h-5zM471 1182q14 61 65 104t113 43q61 0 95 -43t20 -104q-12 -61 -64.5 -103.5t-114.5 -42.5q-61 0 -94 42t-20 104zM538 1182q-6 -33 11.5 -55.5t50.5 -22.5t61.5 22.5t34.5 55.5 q8 33 -10.5 56.5t-50.5 23.5q-33 0 -60.5 -23.5t-36.5 -56.5z" />
<glyph unicode="&#xc6;" horiz-adv-x="1306" d="M-98 0l688 969h782l-31 -146h-473l-53 -254h442l-30 -139h-443l-59 -283h481l-30 -147h-644l52 248h-324l-168 -248h-190zM350 377h262l95 446h-50z" />
<glyph unicode="&#xc7;" horiz-adv-x="980" d="M66 485q45 215 198 359q164 150 375 149q168 0 263 -89t77 -242h-170q-8 193 -201 192q-145 0 -250 -115q-90 -100 -122 -254q-33 -154 14 -256q55 -115 201 -114q109 0 192 73q74 68 111 181h164q-47 -174 -183.5 -283t-312.5 -109q-211 0 -309 150q-92 143 -47 358z M143 -272l37 55q20 -8 40.5 -15.5t43.5 -7.5q29 0 56.5 10.5t33.5 45.5q6 27 -10.5 40t-38.5 13q-29 0 -56 -14l-24 26l114 119h66l-80 -78v-4q10 4 19.5 4h25.5q41 0 72.5 -23.5t21.5 -76.5q-16 -70 -72.5 -96.5t-115.5 -26.5q-31 0 -71 6t-62 23z" />
<glyph unicode="&#xc8;" horiz-adv-x="856" d="M14 0l205 969h699l-31 -146h-529l-53 -254h490l-31 -139h-490l-59 -283h539l-31 -147h-709zM448 1264h182l82 -195h-112z" />
<glyph unicode="&#xc9;" horiz-adv-x="856" d="M14 0l205 969h699l-31 -146h-529l-53 -254h490l-31 -139h-490l-59 -283h539l-31 -147h-709zM489 1069l164 194h182l-233 -194h-113z" />
<glyph unicode="&#xca;" horiz-adv-x="856" d="M14 0l205 969h699l-31 -146h-529l-53 -254h490l-31 -139h-490l-59 -283h539l-31 -147h-709zM347 1069l186 194h151l105 -194h-125l-70 123l-123 -123h-124z" />
<glyph unicode="&#xcb;" horiz-adv-x="856" d="M14 0l205 969h699l-31 -146h-529l-53 -254h490l-31 -139h-490l-59 -283h539l-31 -147h-709zM329 1153q10 41 44 68.5t75 27.5t63.5 -27.5t12.5 -68.5q-8 -41 -42 -69.5t-75 -28.5t-63.5 28.5t-14.5 69.5zM643 1153q10 41 43.5 68.5t74.5 27.5t63.5 -27.5t12.5 -68.5 q-8 -41 -42 -69.5t-75 -28.5t-63.5 28.5t-13.5 69.5z" />
<glyph unicode="&#xcc;" horiz-adv-x="376" d="M16 0l205 969h170l-205 -969h-170zM209 1264h182l82 -195h-112z" />
<glyph unicode="&#xcd;" horiz-adv-x="376" d="M16 0l205 969h170l-205 -969h-170zM213 1069l166 195h180l-234 -195h-112z" />
<glyph unicode="&#xce;" horiz-adv-x="376" d="M16 0l205 969h170l-205 -969h-170zM105 1069l186 194h151l105 -194h-125l-70 123l-123 -123h-124z" />
<glyph unicode="&#xcf;" horiz-adv-x="376" d="M16 0l205 969h170l-205 -969h-170zM88 1145q10 41 44 68.5t75 27.5t63.5 -27.5t12.5 -68.5q-8 -41 -42 -69.5t-75 -28.5t-63.5 28.5t-14.5 69.5zM402 1145q10 41 43.5 68.5t74.5 27.5t63.5 -27.5t12.5 -68.5q-8 -41 -42 -69.5t-75 -28.5t-63.5 28.5t-13.5 69.5z" />
<glyph unicode="&#xd0;" horiz-adv-x="980" d="M14 0l90 430h-90l31 139h90l84 400h404q111 0 183.5 -38t111 -103.5t43.5 -154t-15 -188.5q-23 -100 -65.5 -188t-108 -154.5t-155 -104.5t-199.5 -38h-404zM213 139h168q100 0 168.5 27t115 74t72 109t41.5 136q14 72 15.5 135.5t-24.5 110.5t-83 73.5t-158 26.5h-168 l-55 -262h266l-30 -139h-267z" />
<glyph unicode="&#xd1;" horiz-adv-x="980" d="M8 0l205 969h180l291 -713h2l152 713h161l-204 -969h-181l-290 713h-5l-149 -713h-162zM389 1065q6 27 22.5 56.5t40 55t53.5 42t60 16.5q33 0 58.5 -7.5t48.5 -17.5q20 -10 38.5 -18.5t39.5 -8.5q29 0 47 16.5t32 43.5h76q-10 -33 -29.5 -69t-41.5 -56 q-23 -23 -51.5 -35t-65.5 -12q-23 0 -47.5 8t-46.5 18q-25 10 -47.5 17.5t-40.5 7.5q-25 0 -44.5 -18.5t-23.5 -38.5h-78z" />
<glyph unicode="&#xd2;" horiz-adv-x="1032" d="M66 485q45 215 198 359q164 150 375 149q211 0 309 -149q92 -144 47 -359t-198 -358q-164 -150 -375 -150t-309 150q-92 143 -47 358zM236 485q-33 -154 14 -256q55 -115 201 -114q145 0 249 114q92 102 125 256t-16 254q-55 115 -201 115q-145 0 -250 -115 q-90 -100 -122 -254zM544 1264h181l79 -195h-110z" />
<glyph unicode="&#xd3;" horiz-adv-x="1032" d="M66 485q45 215 198 359q164 150 375 149q211 0 309 -149q92 -144 47 -359t-198 -358q-164 -150 -375 -150t-309 150q-92 143 -47 358zM236 485q-33 -154 14 -256q55 -115 201 -114q145 0 249 114q92 102 125 256t-16 254q-55 115 -201 115q-145 0 -250 -115 q-90 -100 -122 -254zM500 1069l166 195h180l-234 -195h-112z" />
<glyph unicode="&#xd4;" horiz-adv-x="1032" d="M66 485q45 215 198 359q164 150 375 149q211 0 309 -149q92 -144 47 -359t-198 -358q-164 -150 -375 -150t-309 150q-92 143 -47 358zM236 485q-33 -154 14 -256q55 -115 201 -114q145 0 249 114q92 102 125 256t-16 254q-55 115 -201 115q-145 0 -250 -115 q-90 -100 -122 -254zM435 1069l186 194h151l105 -194h-125l-70 123l-123 -123h-124z" />
<glyph unicode="&#xd5;" horiz-adv-x="1032" d="M66 485q45 215 198 359q164 150 375 149q211 0 309 -149q92 -144 47 -359t-198 -358q-164 -150 -375 -150t-309 150q-92 143 -47 358zM236 485q-33 -154 14 -256q55 -115 201 -114q145 0 249 114q92 102 125 256t-16 254q-55 115 -201 115q-145 0 -250 -115 q-90 -100 -122 -254zM465 1057q8 27 25.5 53.5t40 49t50 36.5t58.5 14t56.5 -8t47 -17t41 -17.5t37.5 -8.5q29 0 47.5 16.5t32.5 43.5h76q-23 -66 -68 -111t-115 -45q-23 0 -46 8t-47.5 17.5t-47 17.5t-41.5 8q-25 0 -45 -18.5t-24 -38.5h-78z" />
<glyph unicode="&#xd6;" horiz-adv-x="1032" d="M66 485q45 215 198 359q164 150 375 149q211 0 309 -149q92 -144 47 -359t-198 -358q-164 -150 -375 -150t-309 150q-92 143 -47 358zM236 485q-33 -154 14 -256q55 -115 201 -114q145 0 249 114q92 102 125 256t-16 254q-55 115 -201 115q-145 0 -250 -115 q-90 -100 -122 -254zM416 1147q10 41 44 68.5t75 27.5t63.5 -27.5t12.5 -68.5q-8 -41 -42 -69.5t-75 -28.5t-63.5 28.5t-14.5 69.5zM730 1147q10 41 43.5 68.5t74.5 27.5t63.5 -27.5t12.5 -68.5q-8 -41 -42 -69.5t-75 -28.5t-63.5 28.5t-13.5 69.5z" />
<glyph unicode="&#xd7;" horiz-adv-x="815" d="M74 106l237 238l-237 236l116 75l216 -215l217 215l116 -75l-237 -236l237 -238l-116 -75l-217 217l-216 -217z" />
<glyph unicode="&#xd8;" horiz-adv-x="1032" d="M-27 23l129 120q-39 68 -49 155t13 187q23 104 73.5 196.5t125.5 161t170 109.5t204 41q92 0 161.5 -29.5t114.5 -80.5l127 114l48 -49l-134 -121q39 -70 49 -157t-10 -185q-23 -104 -74 -196t-125.5 -162t-170 -110t-203.5 -40q-92 0 -163 29t-114 82l-129 -115z M222.5 369.5q-1.5 -56.5 15.5 -103.5l553 502q-25 39 -70 62.5t-113 23.5q-78 0 -140 -31.5t-109.5 -83t-78 -118t-44.5 -136.5q-12 -59 -13.5 -115.5zM268 201q29 -41 73 -63.5t110 -22.5q78 0 140 31.5t109.5 84t79 118.5t45.5 136q12 57 12.5 113.5t-18.5 103.5z" />
<glyph unicode="&#xd9;" horiz-adv-x="980" d="M78 348l131 621h170l-119 -563q-29 -133 -10 -191q31 -92 176 -92q147 0 219 92q43 57 72 191l119 563h170l-132 -621q-39 -182 -166.5 -276.5t-312.5 -94.5q-184 0 -266 93q-90 98 -51 278zM501 1264h181l79 -195h-110z" />
<glyph unicode="&#xda;" horiz-adv-x="980" d="M78 348l131 621h170l-119 -563q-29 -133 -10 -191q31 -92 176 -92q147 0 219 92q43 57 72 191l119 563h170l-132 -621q-39 -182 -166.5 -276.5t-312.5 -94.5q-184 0 -266 93q-90 98 -51 278zM502 1069l166 195h180l-234 -195h-112z" />
<glyph unicode="&#xdb;" horiz-adv-x="980" d="M78 348l131 621h170l-119 -563q-29 -133 -10 -191q31 -92 176 -92q147 0 219 92q43 57 72 191l119 563h170l-132 -621q-39 -182 -166.5 -276.5t-312.5 -94.5q-184 0 -266 93q-90 98 -51 278zM402 1069l186 194h151l105 -194h-125l-70 123l-123 -123h-124z" />
<glyph unicode="&#xdc;" horiz-adv-x="980" d="M78 348l131 621h170l-119 -563q-29 -133 -10 -191q31 -92 176 -92q147 0 219 92q43 57 72 191l119 563h170l-132 -621q-39 -182 -166.5 -276.5t-312.5 -94.5q-184 0 -266 93q-90 98 -51 278zM383 1145q10 41 44 68.5t75 27.5t63.5 -27.5t12.5 -68.5q-8 -41 -42 -69.5 t-75 -28.5t-63.5 28.5t-14.5 69.5zM697 1145q10 41 43.5 68.5t74.5 27.5t63.5 -27.5t12.5 -68.5q-8 -41 -42 -69.5t-75 -28.5t-63.5 28.5t-13.5 69.5z" />
<glyph unicode="&#xdd;" horiz-adv-x="880" d="M109 969h196l164 -434l346 434h191l-488 -588l-80 -381h-170l80 381zM471 1069l166 195h180l-234 -195h-112z" />
<glyph unicode="&#xde;" horiz-adv-x="905" d="M14 0l205 969h170l-31 -146h258q104 0 162 -29.5t84.5 -74.5t27.5 -98.5t-7 -98.5q-10 -45 -34 -97t-69 -96t-115.5 -74t-175.5 -30h-258l-47 -225h-170zM260 365h250q29 0 60.5 7t59 25.5t50.5 49t33 77.5t3 78t-25.5 49.5t-48.5 25.5t-62 7h-252z" />
<glyph unicode="&#xdf;" horiz-adv-x="800" d="M-8 0l151 715q14 70 49 122t85.5 86.5t111 51t127.5 16.5q59 0 111.5 -17.5t89.5 -49t53 -78.5t4 -109q-12 -57 -46 -105t-87 -81q61 -35 81.5 -101.5t4.5 -144.5q-35 -158 -142.5 -234.5t-248.5 -80.5q-16 0 -35.5 1t-67.5 5l29 137q51 -12 64.5 -14t19.5 -2h14 q66 0 125.5 39t79.5 135q12 57 0 93t-44 55.5t-80 25.5t-107 6l26 125q43 0 84 6t77 22.5t60.5 43t32.5 67.5q12 57 -27.5 94t-94.5 37q-154 0 -189 -159l-149 -707h-162z" />
<glyph unicode="&#xe0;" d="M-4 186q23 117 119 168q61 31 196 52q76 10 152 22q68 18 80 76q20 94 -125 94q-143 0 -180 -111h-154q61 233 369 234q117 0 184 -45q76 -55 53 -158l-76 -362q-12 -53 25 -54q20 0 39 4l-25 -108q-47 -16 -98 -16q-104 0 -104 84q-102 -84 -258 -84q-102 0 -158 51 q-59 55 -39 153zM150 193q-8 -47 34 -72q37 -18 88 -19q63 0 119 31q70 37 84 103l25 116q-33 -20 -90.5 -28.5t-108.5 -14.5q-131 -20 -151 -116zM364 995h182l82 -195h-112z" />
<glyph unicode="&#xe1;" d="M-4 186q23 117 119 168q61 31 196 52q76 10 152 22q68 18 80 76q20 94 -125 94q-143 0 -180 -111h-154q61 233 369 234q117 0 184 -45q76 -55 53 -158l-76 -362q-12 -53 25 -54q20 0 39 4l-25 -108q-47 -16 -98 -16q-104 0 -104 84q-102 -84 -258 -84q-102 0 -158 51 q-59 55 -39 153zM150 193q-8 -47 34 -72q37 -18 88 -19q63 0 119 31q70 37 84 103l25 116q-33 -20 -90.5 -28.5t-108.5 -14.5q-131 -20 -151 -116zM338 795l164 194h182l-233 -194h-113z" />
<glyph unicode="&#xe2;" d="M-4 186q23 117 119 168q61 31 196 52q76 10 152 22q68 18 80 76q20 94 -125 94q-143 0 -180 -111h-154q61 233 369 234q117 0 184 -45q76 -55 53 -158l-76 -362q-12 -53 25 -54q20 0 39 4l-25 -108q-47 -16 -98 -16q-104 0 -104 84q-102 -84 -258 -84q-102 0 -158 51 q-59 55 -39 153zM150 193q-8 -47 34 -72q37 -18 88 -19q63 0 119 31q70 37 84 103l25 116q-33 -20 -90.5 -28.5t-108.5 -14.5q-131 -20 -151 -116zM250 795l186 194h151l105 -194h-125l-70 123l-123 -123h-124z" />
<glyph unicode="&#xe3;" d="M-4 186q23 117 119 168q61 31 196 52q76 10 152 22q68 18 80 76q20 94 -125 94q-143 0 -180 -111h-154q61 233 369 234q117 0 184 -45q76 -55 53 -158l-76 -362q-12 -53 25 -54q20 0 39 4l-25 -108q-47 -16 -98 -16q-104 0 -104 84q-102 -84 -258 -84q-102 0 -158 51 q-59 55 -39 153zM150 193q-8 -47 34 -72q37 -18 88 -19q63 0 119 31q70 37 84 103l25 116q-33 -20 -90.5 -28.5t-108.5 -14.5q-131 -20 -151 -116zM219 791q6 27 22.5 56.5t40 55t53.5 42t60 16.5q33 0 58.5 -7.5t48.5 -17.5q20 -10 38.5 -18.5t39.5 -8.5q29 0 47 16.5 t32 43.5h76q-10 -33 -29.5 -69t-41.5 -56q-23 -23 -51.5 -35t-65.5 -12q-23 0 -47.5 8t-46.5 18q-25 10 -47.5 17.5t-40.5 7.5q-25 0 -44.5 -18.5t-23.5 -38.5h-78z" />
<glyph unicode="&#xe4;" d="M-4 186q23 117 119 168q61 31 196 52q76 10 152 22q68 18 80 76q20 94 -125 94q-143 0 -180 -111h-154q61 233 369 234q117 0 184 -45q76 -55 53 -158l-76 -362q-12 -53 25 -54q20 0 39 4l-25 -108q-47 -16 -98 -16q-104 0 -104 84q-102 -84 -258 -84q-102 0 -158 51 q-59 55 -39 153zM150 193q-8 -47 34 -72q37 -18 88 -19q63 0 119 31q70 37 84 103l25 116q-33 -20 -90.5 -28.5t-108.5 -14.5q-131 -20 -151 -116zM229 875q10 41 44 68.5t75 27.5t63.5 -27.5t12.5 -68.5q-8 -41 -42 -69.5t-75 -28.5t-63.5 28.5t-14.5 69.5zM543 875 q10 41 43.5 68.5t74.5 27.5t63.5 -27.5t12.5 -68.5q-8 -41 -42 -69.5t-75 -28.5t-63.5 28.5t-13.5 69.5z" />
<glyph unicode="&#xe5;" d="M-4 186q23 117 119 168q61 31 196 52q76 10 152 22q68 18 80 76q20 94 -125 94q-143 0 -180 -111h-154q61 233 369 234q117 0 184 -45q76 -55 53 -158l-76 -362q-12 -53 25 -54q20 0 39 4l-25 -108q-47 -16 -98 -16q-104 0 -104 84q-102 -84 -258 -84q-102 0 -158 51 q-59 55 -39 153zM150 193q-8 -47 34 -72q37 -18 88 -19q63 0 119 31q70 37 84 103l25 116q-33 -20 -90.5 -28.5t-108.5 -14.5q-131 -20 -151 -116zM330 912q14 61 65 104t113 43q61 0 95 -43t20 -104q-12 -61 -64.5 -103.5t-114.5 -42.5q-61 0 -94 42t-20 104zM397 912 q-6 -33 11.5 -55.5t50.5 -22.5t61.5 22.5t34.5 55.5q8 33 -10.5 56.5t-50.5 23.5q-33 0 -60.5 -23.5t-36.5 -56.5z" />
<glyph unicode="&#xe6;" horiz-adv-x="1206" d="M-4 186q16 80 60 123t100.5 63.5t119 28t116.5 15.5t94 26.5t49 61.5q6 31 -3.5 49t-27 28.5t-41 13.5t-45.5 3q-66 0 -114 -26.5t-66 -84.5h-154q18 68 56 113t87 71.5t106.5 38t115.5 11.5q66 0 128 -17.5t91 -76.5q49 51 112.5 72.5t126.5 21.5q84 0 140.5 -27.5 t87 -77t36 -117t-11.5 -147.5q-2 -10 -5 -20t-5 -21h-510q-8 -41 -6 -78.5t17.5 -66.5t46 -46.5t79.5 -17.5q63 0 112.5 32t78.5 87h155q-53 -113 -151.5 -176t-214.5 -63q-78 0 -142.5 28.5t-89.5 100.5q-61 -70 -145 -99.5t-174 -29.5q-53 0 -96 12t-72 37.5t-40 64.5 t-1 90zM150 193q-6 -27 3 -44.5t27.5 -27.5t43 -14.5t48.5 -4.5q66 0 127.5 36t77.5 106l23 104q-29 -23 -82 -27t-108.5 -11t-100.5 -31.5t-59 -85.5zM659 414h355q18 84 -15.5 134t-121.5 50q-84 0 -139.5 -54.5t-78.5 -129.5z" />
<glyph unicode="&#xe7;" d="M31 344q35 166 147.5 271.5t278.5 105.5q129 0 202 -62q76 -70 62 -192h-156q10 131 -131 131q-193 0 -248 -254q-20 -98 9 -164q33 -78 127 -78q143 0 200 162h156q-104 -283 -381 -282q-162 0 -234 104q-63 98 -32 258zM80 -272l37 55q20 -8 40.5 -15.5t43.5 -7.5 q29 0 56.5 10.5t33.5 45.5q6 27 -10.5 40t-38.5 13q-29 0 -56 -14l-24 26l114 119h66l-80 -78v-4q10 4 19.5 4h25.5q41 0 72.5 -23.5t21.5 -76.5q-16 -70 -72.5 -96.5t-115.5 -26.5q-31 0 -71 6t-62 23z" />
<glyph unicode="&#xe8;" d="M33 350q33 156 149.5 263.5t268.5 107.5q147 0 221 -109q68 -102 37 -252q-6 -25 -13 -49h-516q-20 -90 15 -145q37 -63 129 -64q129 0 194 117h148q-47 -113 -147.5 -175t-219.5 -62q-162 0 -233 104q-66 98 -33 264zM201 414h360q12 76 -23.5 130t-111.5 54 q-78 0 -140.5 -52t-84.5 -132zM426 996h181l79 -195h-110z" />
<glyph unicode="&#xe9;" d="M33 350q33 156 149.5 263.5t268.5 107.5q147 0 221 -109q68 -102 37 -252q-6 -25 -13 -49h-516q-20 -90 15 -145q37 -63 129 -64q129 0 194 117h148q-47 -113 -147.5 -175t-219.5 -62q-162 0 -233 104q-66 98 -33 264zM201 414h360q12 76 -23.5 130t-111.5 54 q-78 0 -140.5 -52t-84.5 -132zM383 801l166 195h180l-234 -195h-112z" />
<glyph unicode="&#xea;" d="M33 350q33 156 149.5 263.5t268.5 107.5q147 0 221 -109q68 -102 37 -252q-6 -25 -13 -49h-516q-20 -90 15 -145q37 -63 129 -64q129 0 194 117h148q-47 -113 -147.5 -175t-219.5 -62q-162 0 -233 104q-66 98 -33 264zM201 414h360q12 76 -23.5 130t-111.5 54 q-78 0 -140.5 -52t-84.5 -132zM285 795l186 194h151l105 -194h-125l-70 123l-123 -123h-124z" />
<glyph unicode="&#xeb;" d="M33 350q33 156 149.5 263.5t268.5 107.5q147 0 221 -109q68 -102 37 -252q-6 -25 -13 -49h-516q-20 -90 15 -145q37 -63 129 -64q129 0 194 117h148q-47 -113 -147.5 -175t-219.5 -62q-162 0 -233 104q-66 98 -33 264zM201 414h360q12 76 -23.5 130t-111.5 54 q-78 0 -140.5 -52t-84.5 -132zM219 875q10 41 44 68.5t75 27.5t63.5 -27.5t12.5 -68.5q-8 -41 -42 -69.5t-75 -28.5t-63.5 28.5t-14.5 69.5zM533 875q10 41 43.5 68.5t74.5 27.5t63.5 -27.5t12.5 -68.5q-8 -41 -42 -69.5t-75 -28.5t-63.5 28.5t-13.5 69.5z" />
<glyph unicode="&#xec;" horiz-adv-x="327" d="M0 0l147 702h154l-147 -702h-154zM133 995h182l82 -195h-112z" />
<glyph unicode="&#xed;" horiz-adv-x="327" d="M0 0l147 702h154l-147 -702h-154zM129 795l164 194h182l-233 -194h-113z" />
<glyph unicode="&#xee;" horiz-adv-x="327" d="M0 0l147 702h154l-147 -702h-154zM23 795l186 194h151l105 -194h-125l-70 123l-123 -123h-124z" />
<glyph unicode="&#xef;" horiz-adv-x="327" d="M0 0l147 702h154l-147 -702h-154zM10 875q10 41 44 68.5t75 27.5t63.5 -27.5t12.5 -68.5q-8 -41 -42 -69.5t-75 -28.5t-63.5 28.5t-14.5 69.5zM324 875q10 41 43.5 68.5t74.5 27.5t63.5 -27.5t12.5 -68.5q-8 -41 -42 -69.5t-75 -28.5t-63.5 28.5t-13.5 69.5z" />
<glyph unicode="&#xf0;" horiz-adv-x="804" d="M33 196.5q-8 65.5 8 145.5q14 68 48 129t83 109.5t111.5 77t134.5 28.5q55 0 97 -13.5t81 -47.5l4 6q-12 53 -42 95t-66 79l-160 -70l-56 66l144 63q-29 12 -54.5 24.5t-50.5 20.5l121 84q35 -12 67 -29.5t60 -37.5l158 67l51 -67l-141 -62q86 -84 116 -198.5t1 -245.5 q-18 -90 -55.5 -170t-93.5 -139.5t-133 -94t-177 -34.5q-78 0 -132.5 26.5t-85 74.5t-38.5 113.5zM184.5 244q1.5 -41 17 -73t45 -50.5t77.5 -18.5q47 0 88 19.5t73.5 51.5t55 74t32.5 85q8 43 7.5 85t-16 74.5t-47.5 53t-81 20.5q-53 0 -94 -18.5t-70.5 -51t-49 -74.5 t-29.5 -89t-8.5 -88z" />
<glyph unicode="&#xf1;" horiz-adv-x="780" d="M-6 0l147 702h146l-21 -104l2 -2q98 125 244 125q250 0 199 -240l-101 -481h-155l92 440q35 158 -103 158q-76 0 -134 -52t-77 -132l-86 -414h-153zM287 789q8 27 25.5 53.5t40 49t50 36.5t58.5 14t56.5 -8t47 -17t41 -17.5t37.5 -8.5q29 0 47.5 16.5t32.5 43.5h76 q-23 -66 -68 -111t-115 -45q-23 0 -46 8t-47.5 17.5t-47 17.5t-41.5 8q-25 0 -45 -18.5t-24 -38.5h-78z" />
<glyph unicode="&#xf2;" horiz-adv-x="804" d="M35 352q35 164 150.5 266.5t281.5 102.5t238.5 -102.5t37.5 -266.5q-35 -166 -151 -268q-115 -102 -281 -102t-238.5 102t-37.5 268zM188 352q-23 -102 13 -170q37 -80 135 -80t168 80q61 68 84 170q20 100 -13 168q-35 78 -133 78t-170 -78q-63 -68 -84 -168zM430 996 h181l79 -195h-110z" />
<glyph unicode="&#xf3;" horiz-adv-x="804" d="M35 352q35 164 150.5 266.5t281.5 102.5t238.5 -102.5t37.5 -266.5q-35 -166 -151 -268q-115 -102 -281 -102t-238.5 102t-37.5 268zM188 352q-23 -102 13 -170q37 -80 135 -80t168 80q61 68 84 170q20 100 -13 168q-35 78 -133 78t-170 -78q-63 -68 -84 -168zM387 801 l166 195h180l-234 -195h-112z" />
<glyph unicode="&#xf4;" horiz-adv-x="804" d="M35 352q35 164 150.5 266.5t281.5 102.5t238.5 -102.5t37.5 -266.5q-35 -166 -151 -268q-115 -102 -281 -102t-238.5 102t-37.5 268zM188 352q-23 -102 13 -170q37 -80 135 -80t168 80q61 68 84 170q20 100 -13 168q-35 78 -133 78t-170 -78q-63 -68 -84 -168zM261 795 l186 194h151l105 -194h-125l-70 123l-123 -123h-124z" />
<glyph unicode="&#xf5;" horiz-adv-x="804" d="M35 352q35 164 150.5 266.5t281.5 102.5t238.5 -102.5t37.5 -266.5q-35 -166 -151 -268q-115 -102 -281 -102t-238.5 102t-37.5 268zM188 352q-23 -102 13 -170q37 -80 135 -80t168 80q61 68 84 170q20 100 -13 168q-35 78 -133 78t-170 -78q-63 -68 -84 -168zM299 789 q8 27 25.5 53.5t40 49t50 36.5t58.5 14t56.5 -8t47 -17t41 -17.5t37.5 -8.5q29 0 47.5 16.5t32.5 43.5h76q-23 -66 -68 -111t-115 -45q-23 0 -46 8t-47.5 17.5t-47 17.5t-41.5 8q-25 0 -45 -18.5t-24 -38.5h-78z" />
<glyph unicode="&#xf6;" horiz-adv-x="804" d="M35 352q35 164 150.5 266.5t281.5 102.5t238.5 -102.5t37.5 -266.5q-35 -166 -151 -268q-115 -102 -281 -102t-238.5 102t-37.5 268zM188 352q-23 -102 13 -170q37 -80 135 -80t168 80q61 68 84 170q20 100 -13 168q-35 78 -133 78t-170 -78q-63 -68 -84 -168zM243 875 q10 41 44 68.5t75 27.5t63.5 -27.5t12.5 -68.5q-8 -41 -42 -69.5t-75 -28.5t-63.5 28.5t-14.5 69.5zM557 875q10 41 43.5 68.5t74.5 27.5t63.5 -27.5t12.5 -68.5q-8 -41 -42 -69.5t-75 -28.5t-63.5 28.5t-13.5 69.5z" />
<glyph unicode="&#xf7;" horiz-adv-x="815" d="M66 274v140h684v-140h-684zM309 63q0 41 30 70t69 29q41 0 69.5 -29t28.5 -70q0 -37 -28.5 -67.5t-67.5 -30.5q-41 0 -71 29t-30 69zM309 623q0 41 30 69.5t69 28.5q41 0 69.5 -28.5t28.5 -69.5q0 -37 -28.5 -67t-67.5 -30q-41 0 -71 28t-30 69z" />
<glyph unicode="&#xf8;" horiz-adv-x="804" d="M-45 0l108 98q-29 49 -37 112.5t9 141.5q16 80 54 147.5t94.5 117t128 77t155.5 27.5q143 0 217 -74l102 92l37 -37l-108 -96q59 -102 28 -254q-16 -82 -54 -149.5t-94 -116.5t-128 -76.5t-156 -27.5q-143 0 -215 75l-106 -96zM180 278.5q0 -36.5 10 -67.5l375 332 q-20 27 -50 41t-73 14q-53 0 -95 -21.5t-73.5 -56.5t-53 -79t-32.5 -89q-8 -37 -8 -73.5zM213 160q18 -27 49 -42.5t74 -15.5q51 0 94 21.5t75 57.5t52.5 80t30.5 91q8 37 9 72t-9 68z" />
<glyph unicode="&#xf9;" horiz-adv-x="780" d="M47 256l94 446h154l-90 -430q-37 -170 98 -170q172 0 213 193l86 407h156l-148 -702h-151l20 98h-4q-39 -53 -101.5 -84.5t-121.5 -31.5q-260 0 -205 274zM344 996h181l79 -195h-110z" />
<glyph unicode="&#xfa;" horiz-adv-x="780" d="M47 256l94 446h154l-90 -430q-37 -170 98 -170q172 0 213 193l86 407h156l-148 -702h-151l20 98h-4q-39 -53 -101.5 -84.5t-121.5 -31.5q-260 0 -205 274zM375 801l166 195h180l-234 -195h-112z" />
<glyph unicode="&#xfb;" horiz-adv-x="780" d="M47 256l94 446h154l-90 -430q-37 -170 98 -170q172 0 213 193l86 407h156l-148 -702h-151l20 98h-4q-39 -53 -101.5 -84.5t-121.5 -31.5q-260 0 -205 274zM240 795l186 194h151l105 -194h-125l-70 123l-123 -123h-124z" />
<glyph unicode="&#xfc;" horiz-adv-x="780" d="M47 256l94 446h154l-90 -430q-37 -170 98 -170q172 0 213 193l86 407h156l-148 -702h-151l20 98h-4q-39 -53 -101.5 -84.5t-121.5 -31.5q-260 0 -205 274zM223 875q10 41 44 68.5t75 27.5t63.5 -27.5t12.5 -68.5q-8 -41 -42 -69.5t-75 -28.5t-63.5 28.5t-14.5 69.5z M537 875q10 41 43.5 68.5t74.5 27.5t63.5 -27.5t12.5 -68.5q-8 -41 -42 -69.5t-75 -28.5t-63.5 28.5t-13.5 69.5z" />
<glyph unicode="&#xfd;" horiz-adv-x="704" d="M-76 -270l29 131q57 -10 70 -11q49 0 79 27q20 18 50 72l30 53l-119 700h170l72 -524h4l289 524h160l-430 -741q-72 -125 -115 -168q-74 -72 -182 -72q-57 0 -107 9zM338 801l166 195h180l-234 -195h-112z" />
<glyph unicode="&#xfe;" horiz-adv-x="829" d="M-55 -260l258 1229h153l-75 -359h4q41 51 106.5 81t124.5 30q82 0 138.5 -29.5t86 -80t35.5 -119t-10 -144.5q-16 -72 -48 -137.5t-80 -116.5t-111.5 -81.5t-141.5 -30.5q-66 0 -126 24.5t-85 83.5h-4l-74 -350h-151zM221 350q-23 -106 13 -177t131 -71q53 0 94 21.5 t71.5 56.5t51 79t30.5 91t7 92t-20 80t-49 55.5t-79 20.5q-98 0 -162.5 -67.5t-87.5 -180.5z" />
<glyph unicode="&#xff;" horiz-adv-x="704" d="M-76 -270l29 131q57 -10 70 -11q49 0 79 27q20 18 50 72l30 53l-119 700h170l72 -524h4l289 524h160l-430 -741q-72 -125 -115 -168q-74 -72 -182 -72q-57 0 -107 9zM190 875q10 41 44 68.5t75 27.5t63.5 -27.5t12.5 -68.5q-8 -41 -42 -69.5t-75 -28.5t-63.5 28.5 t-14.5 69.5zM504 875q10 41 43.5 68.5t74.5 27.5t63.5 -27.5t12.5 -68.5q-8 -41 -42 -69.5t-75 -28.5t-63.5 28.5t-13.5 69.5z" />
<glyph unicode="&#x102;" horiz-adv-x="905" d="M-98 0l577 969h180l170 -969h-182l-39 256h-387l-143 -256h-176zM295 385h295l-55 418h-5zM411 1258h78q0 -57 35 -81t88 -24t95 26t65 79h78q-31 -98 -101.5 -145.5t-164.5 -47.5t-139.5 49.5t-33.5 143.5z" />
<glyph unicode="&#x103;" d="M-4 186q23 117 119 168q61 31 196 52q76 10 152 22q68 18 80 76q20 94 -125 94q-143 0 -180 -111h-154q61 233 369 234q117 0 184 -45q76 -55 53 -158l-76 -362q-12 -53 25 -54q20 0 39 4l-25 -108q-47 -16 -98 -16q-104 0 -104 84q-102 -84 -258 -84q-102 0 -158 51 q-59 55 -39 153zM150 193q-8 -47 34 -72q37 -18 88 -19q63 0 119 31q70 37 84 103l25 116q-33 -20 -90.5 -28.5t-108.5 -14.5q-131 -20 -151 -116zM327 985h78q0 -57 35 -81t88 -24t95 26t65 79h78q-31 -98 -101.5 -145.5t-164.5 -47.5t-139.5 49.5t-33.5 143.5z" />
<glyph unicode="&#x106;" horiz-adv-x="980" d="M66 485q45 215 198 359q164 150 375 149q168 0 263 -89t77 -242h-170q-8 193 -201 192q-145 0 -250 -115q-90 -100 -122 -254q-33 -154 14 -256q55 -115 201 -114q109 0 192 73q74 68 111 181h164q-47 -174 -183.5 -283t-312.5 -109q-211 0 -309 150q-92 143 -47 358z M523 1069l166 195h180l-234 -195h-112z" />
<glyph unicode="&#x107;" d="M31 344q35 166 147.5 271.5t278.5 105.5q129 0 202 -62q76 -70 62 -192h-156q10 131 -131 131q-193 0 -248 -254q-20 -98 9 -164q33 -78 127 -78q143 0 200 162h156q-104 -283 -381 -282q-162 0 -234 104q-63 98 -32 258zM377 801l166 195h180l-234 -195h-112z" />
<glyph unicode="&#x10c;" horiz-adv-x="980" d="M66 485q45 215 198 359q164 150 375 149q168 0 263 -89t77 -242h-170q-8 193 -201 192q-145 0 -250 -115q-90 -100 -122 -254q-33 -154 14 -256q55 -115 201 -114q109 0 192 73q74 68 111 181h164q-47 -174 -183.5 -283t-312.5 -109q-211 0 -309 150q-92 143 -47 358z M476 1263h124l70 -121l123 121h125l-189 -194h-151z" />
<glyph unicode="&#x10d;" d="M31 344q35 166 147.5 271.5t278.5 105.5q129 0 202 -62q76 -70 62 -192h-156q10 131 -131 131q-193 0 -248 -254q-20 -98 9 -164q33 -78 127 -78q143 0 200 162h156q-104 -283 -381 -282q-162 0 -234 104q-63 98 -32 258zM312 993h124l70 -121l123 121h125l-189 -194 h-151z" />
<glyph unicode="&#x110;" horiz-adv-x="980" d="M14 0l90 430h-90l31 139h90l84 400h404q111 0 183.5 -38t111 -103.5t43.5 -154t-15 -188.5q-23 -100 -65.5 -188t-108 -154.5t-155 -104.5t-199.5 -38h-404zM213 139h168q100 0 168.5 27t115 74t72 109t41.5 136q14 72 15.5 135.5t-24.5 110.5t-83 73.5t-158 26.5h-168 l-55 -262h266l-30 -139h-267z" />
<glyph unicode="&#x111;" horiz-adv-x="829" d="M33 356q39 178 153 279q102 86 230 86q166 0 211 -111h2l41 193h-236l21 100h235l15 66h155l-14 -66h86l-21 -100h-86l-170 -803h-147l18 94h-2q-80 -113 -239 -112q-160 0 -226 108q-59 100 -26 266zM186 344q-20 -100 13 -166q37 -76 131 -76q96 0 166 80q61 68 84 170 q25 115 -13.5 180.5t-128.5 65.5q-100 0 -172 -80q-57 -68 -80 -174z" />
<glyph unicode="&#x11e;" horiz-adv-x="1030" d="M74 485q45 215 202.5 361.5t368.5 146.5q166 0 260 -84q100 -90 84 -247h-166q8 92 -52 142t-157 50q-145 0 -249 -115q-90 -100 -123 -254t16 -254q53 -117 199 -116q129 0 215 70.5t114 195.5h-258l27 129h412l-107 -510h-108l-2 115q-150 -137 -322 -138 q-211 0 -307 150q-94 141 -47 358zM499 1264h78q0 -57 35 -81t88 -24t95 26t65 79h78q-31 -98 -101.5 -145.5t-164.5 -47.5t-139.5 49.5t-33.5 143.5z" />
<glyph unicode="&#x11f;" horiz-adv-x="804" d="M-29 -59h154q0 -104 145 -105q180 0 219 180l23 107h-2q-94 -123 -236 -123q-158 0 -219 109q-53 98 -18 260q31 147 139.5 249.5t251.5 102.5q152 0 184 -115h2l21 96h156l-142 -665q-66 -315 -411 -316q-121 0 -197 48q-82 59 -70 172zM188 354q-20 -94 11 -157 q35 -74 125 -74q96 0 161 78q57 66 80 166q20 100 -10 161q-35 70 -129 70t-162 -78q-53 -66 -76 -166zM337 987h78q0 -57 35 -81t88 -24t95 26t65 79h78q-31 -98 -101.5 -145.5t-164.5 -47.5t-139.5 49.5t-33.5 143.5z" />
<glyph unicode="&#x128;" horiz-adv-x="376" d="M16 0l205 969h170l-205 -969h-170zM86 1057q8 27 25.5 53.5t40 49t50 36.5t58.5 14t56.5 -8t47 -17t41 -17.5t37.5 -8.5q29 0 47.5 16.5t32.5 43.5h76q-23 -66 -68 -111t-115 -45q-23 0 -46 8t-47.5 17.5t-47 17.5t-41.5 8q-25 0 -45 -18.5t-24 -38.5h-78z" />
<glyph unicode="&#x129;" horiz-adv-x="301" d="M-12 789q8 27 25.5 53.5t40 49t50 36.5t58.5 14t56.5 -8t47 -17t41 -17.5t37.5 -8.5q29 0 47.5 16.5t32.5 43.5h76q-23 -66 -68 -111t-115 -45q-23 0 -46 8t-47.5 17.5t-47 17.5t-41.5 8q-25 0 -45 -18.5t-24 -38.5h-78zM-8 0l147 702h154l-147 -702h-154z" />
<glyph unicode="&#x130;" horiz-adv-x="376" d="M16 0l205 969h170l-205 -969h-170zM244 1161q10 45 48 76t83 31t69.5 -31t14.5 -76t-48 -77t-83 -32t-70 32t-14 77z" />
<glyph unicode="&#x131;" horiz-adv-x="327" d="M-2 0l147 702h154l-147 -702h-154z" />
<glyph unicode="&#x141;" horiz-adv-x="780" d="M-37 236l25 120l116 74l115 539h170l-88 -414l313 193l-26 -127l-314 -193l-59 -281h494l-31 -147h-664l66 309z" />
<glyph unicode="&#x142;" horiz-adv-x="327" d="M-16 360l18 97l109 73l92 439h153l-67 -318l108 72l-20 -96l-109 -74l-116 -553h-154l90 432z" />
<glyph unicode="&#x152;" horiz-adv-x="1484" d="M56.5 288q-9.5 91 11.5 193q23 102 72.5 194.5t123.5 163t168 112.5t203 42q74 0 129 -21.5t92 -78.5l16 76h664l-31 -146h-508l-53 -254h465l-31 -139h-465l-59 -283h516l-31 -147h-671l16 86q-61 -57 -133 -83t-143 -26q-109 0 -182.5 41t-116.5 110t-52.5 160z M227.5 349q1.5 -66 26.5 -118.5t73 -84t126 -31.5q55 0 102 17.5t83 44t57.5 58t27.5 62.5l78 362q16 76 -29 135.5t-162 59.5q-78 0 -140 -33t-109.5 -85t-77 -118.5t-43.5 -134.5t-12.5 -134z" />
<glyph unicode="&#x153;" horiz-adv-x="1230" d="M22.5 208.5q-6.5 67.5 10.5 143.5q16 76 53 143.5t90 118t122 79t148 28.5q74 0 135.5 -25.5t86.5 -93.5q55 63 126.5 91t143.5 28q92 0 147.5 -33t81 -89t25.5 -131t-16 -157h-512q-18 -88 12.5 -148.5t124.5 -60.5q59 0 115.5 31t78.5 90h154q-55 -119 -151.5 -180 t-217.5 -61q-80 0 -141 26.5t-84 102.5q-55 -76 -126 -102.5t-150 -26.5q-82 0 -136.5 29.5t-84 79.5t-36 117.5zM178 264q-2 -45 10.5 -81t42 -58.5t82.5 -22.5t93 22.5t68 58.5t46.5 81t26.5 92q10 43 10 86t-14.5 78t-44 56.5t-78.5 21.5t-88 -21.5t-67.5 -56.5t-47 -78 t-29.5 -86q-8 -47 -10 -92zM684 414h358q14 86 -18.5 135t-122.5 49q-78 0 -137 -55.5t-80 -128.5z" />
<glyph unicode="&#x15e;" horiz-adv-x="880" d="M25 324h170q-45 -209 200 -209q104 0 168 47q55 39 70 100q18 88 -55 119q-20 8 -273 80q-203 57 -162 246q29 137 156 217q117 70 260 69q160 0 248 -82t55 -229h-168q25 172 -172 172q-178 0 -205 -127q-20 -92 88.5 -123t264.5 -76q86 -27 119.5 -97t17.5 -150 q-33 -152 -172 -234q-119 -70 -281 -70q-176 0 -264 82q-98 92 -65 265zM133 -272l37 55q20 -8 40.5 -15.5t43.5 -7.5q29 0 56.5 10.5t33.5 45.5q6 27 -10.5 40t-38.5 13q-29 0 -56 -14l-24 26l114 119h66l-80 -78v-4q10 4 19.5 4h25.5q41 0 72.5 -23.5t21.5 -76.5 q-16 -70 -72.5 -96.5t-115.5 -26.5q-31 0 -71 6t-62 23z" />
<glyph unicode="&#x15f;" horiz-adv-x="704" d="M2 225h156q-16 -123 131 -123q162 0 178 93q8 66 -102 94q-190 47 -205 55q-104 53 -80 176q23 104 133 158q86 43 203 43q268 0 248 -215h-162q2 92 -123 92q-127 0 -143 -72q-10 -49 55 -75q16 -6 147 -37q102 -25 144 -60q61 -51 41 -145q-25 -115 -140 -176 q-96 -51 -221 -51q-137 0 -207 59q-76 63 -53 184zM41 -272l37 55q20 -8 40.5 -15.5t43.5 -7.5q29 0 56.5 10.5t33.5 45.5q6 27 -10.5 40t-38.5 13q-29 0 -56 -14l-24 26l114 119h66l-80 -78v-4q10 4 19.5 4h25.5q41 0 72.5 -23.5t21.5 -76.5q-16 -70 -72.5 -96.5 t-115.5 -26.5q-31 0 -71 6t-62 23z" />
<glyph unicode="&#x160;" horiz-adv-x="880" d="M25 324h170q-45 -209 200 -209q104 0 168 47q55 39 70 100q18 88 -55 119q-20 8 -273 80q-203 57 -162 246q29 137 156 217q117 70 260 69q160 0 248 -82t55 -229h-168q25 172 -172 172q-178 0 -205 -127q-20 -92 88.5 -123t264.5 -76q86 -27 119.5 -97t17.5 -150 q-33 -152 -172 -234q-119 -70 -281 -70q-176 0 -264 82q-98 92 -65 265zM400 1263h124l70 -121l123 121h125l-189 -194h-151z" />
<glyph unicode="&#x161;" horiz-adv-x="704" d="M2 225h156q-16 -123 131 -123q162 0 178 93q8 66 -102 94q-190 47 -205 55q-104 53 -80 176q23 104 133 158q86 43 203 43q268 0 248 -215h-162q2 92 -123 92q-127 0 -143 -72q-10 -49 55 -75q16 -6 147 -37q102 -25 144 -60q61 -51 41 -145q-25 -115 -140 -176 q-96 -51 -221 -51q-137 0 -207 59q-76 63 -53 184zM283 993h124l70 -121l123 121h125l-189 -194h-151z" />
<glyph unicode="&#x168;" horiz-adv-x="980" d="M78 348l131 621h170l-119 -563q-29 -133 -10 -191q31 -92 176 -92q147 0 219 92q43 57 72 191l119 563h170l-132 -621q-39 -182 -166.5 -276.5t-312.5 -94.5q-184 0 -266 93q-90 98 -51 278zM387 1057q8 27 25.5 53.5t40 49t50 36.5t58.5 14t56.5 -8t47 -17t41 -17.5 t37.5 -8.5q29 0 47.5 16.5t32.5 43.5h76q-23 -66 -68 -111t-115 -45q-23 0 -46 8t-47.5 17.5t-47 17.5t-41.5 8q-25 0 -45 -18.5t-24 -38.5h-78z" />
<glyph unicode="&#x169;" horiz-adv-x="780" d="M47 256l94 446h154l-90 -430q-37 -170 98 -170q172 0 213 193l86 407h156l-148 -702h-151l20 98h-4q-39 -53 -101.5 -84.5t-121.5 -31.5q-260 0 -205 274zM256 789q8 27 25.5 53.5t40 49t50 36.5t58.5 14t56.5 -8t47 -17t41 -17.5t37.5 -8.5q29 0 47.5 16.5t32.5 43.5h76 q-23 -66 -68 -111t-115 -45q-23 0 -46 8t-47.5 17.5t-47 17.5t-41.5 8q-25 0 -45 -18.5t-24 -38.5h-78z" />
<glyph unicode="&#x178;" horiz-adv-x="880" d="M109 969h196l164 -434l346 434h191l-488 -588l-80 -381h-170l80 381zM342 1147q10 41 44 68.5t75 27.5t63.5 -27.5t12.5 -68.5q-8 -41 -42 -69.5t-75 -28.5t-63.5 28.5t-14.5 69.5zM656 1147q10 41 43.5 68.5t74.5 27.5t63.5 -27.5t12.5 -68.5q-8 -41 -42 -69.5 t-75 -28.5t-63.5 28.5t-13.5 69.5z" />
<glyph unicode="&#x17d;" horiz-adv-x="856" d="M-57 0l30 139l709 684h-522l30 146h738l-27 -129l-711 -693h578l-31 -147h-794zM388 1263h124l70 -121l123 121h125l-189 -194h-151z" />
<glyph unicode="&#x17e;" horiz-adv-x="677" d="M-57 0l24 109l486 471h-361l25 122h569l-22 -108l-502 -471h422l-25 -123h-616zM271 993h124l70 -121l123 121h125l-189 -194h-151z" />
<glyph unicode="&#x192;" horiz-adv-x="729" d="M-135 -223l47 121q31 -6 63 -7q35 0 63 14.5t46 61.5l209 512h-123l45 115h125l92 229q41 92 112.5 131t164.5 39q25 0 48 -2t48 -6l-49 -121q-25 6 -54 6q-57 0 -84.5 -22.5t-48.5 -75.5l-73 -178h139l-45 -115h-139l-209 -518q-16 -39 -44 -73.5t-65 -61.5t-79 -42 t-85 -15q-27 0 -51 2t-53 6z" />
<glyph unicode="&#x1a0;" horiz-adv-x="1032" d="M66 485q45 215 198 359q164 150 375 149q174 0 272 -102q27 23 42.5 60.5t23.5 72.5h158q-6 -33 -23.5 -66.5t-39 -66.5t-46.5 -60.5t-47 -46.5q53 -127 16 -299q-45 -215 -198 -358q-164 -150 -375 -150t-309 150q-92 143 -47 358zM236 485q-33 -154 14 -256 q55 -115 201 -114q145 0 249 114q92 102 125 256t-16 254q-55 115 -201 115q-145 0 -250 -115q-90 -100 -122 -254z" />
<glyph unicode="&#x1a1;" horiz-adv-x="804" d="M35 352q35 164 150.5 266.5t281.5 102.5q164 0 229 -98q23 23 38.5 66.5t21.5 76.5h147q-14 -66 -62 -134.5t-96 -107.5q18 -76 -2 -172q-35 -166 -151 -268q-115 -102 -281 -102t-238.5 102t-37.5 268zM188 352q-23 -102 13 -170q37 -80 135 -80t168 80q61 68 84 170 q20 100 -13 168q-35 78 -133 78t-170 -78q-63 -68 -84 -168z" />
<glyph unicode="&#x1af;" horiz-adv-x="980" d="M78 348l131 621h170l-119 -563q-29 -133 -10 -191q31 -92 176 -92q147 0 219 92q43 57 72 191l119 563h170q39 0 73.5 31.5t50.5 107.5h144q-12 -55 -43 -106.5t-73 -91.5t-90 -64.5t-93 -24.5l-101 -473q-39 -182 -166.5 -276.5t-312.5 -94.5q-184 0 -266 93 q-90 98 -51 278z" />
<glyph unicode="&#x1b0;" horiz-adv-x="780" d="M47 256l94 446h154l-90 -430q-37 -170 98 -170q172 0 213 193l86 407h156q39 0 68.5 37t41.5 95h144q-10 -43 -38 -86t-67 -77t-84 -54.5t-88 -20.5l-125 -596h-151l20 98h-4q-39 -53 -101.5 -84.5t-121.5 -31.5q-260 0 -205 274z" />
<glyph unicode="&#x2c6;" horiz-adv-x="327" d="M23 795l186 194h151l105 -194h-125l-70 123l-123 -123h-124z" />
<glyph unicode="&#x2c7;" horiz-adv-x="327" d="M66 993h124l70 -121l123 121h125l-189 -194h-151z" />
<glyph unicode="&#x2d8;" horiz-adv-x="327" d="M63 979h78q0 -57 35 -81t88 -24t95 26t65 79h78q-31 -98 -101.5 -145.5t-164.5 -47.5t-139.5 49.5t-33.5 143.5z" />
<glyph unicode="&#x2d9;" horiz-adv-x="487" d="M238 897q10 45 48 76t83 31t69.5 -31t14.5 -76t-48 -77t-83 -32t-70 32t-14 77z" />
<glyph unicode="&#x2da;" horiz-adv-x="323" d="M117 885q14 61 65 104t113 43q61 0 95 -43t20 -104q-12 -61 -64.5 -103.5t-114.5 -42.5q-61 0 -94 42t-20 104zM184 885q-6 -33 11.5 -55.5t50.5 -22.5t61.5 22.5t34.5 55.5q8 33 -10.5 56.5t-50.5 23.5q-33 0 -60.5 -23.5t-36.5 -56.5z" />
<glyph unicode="&#x2db;" horiz-adv-x="327" d="M-59 -174q2 8 9 24.5t26.5 40t54.5 51t100 62.5h74q-90 -59 -123 -98t-41 -74q-6 -29 6 -44t35 -15q18 0 37.5 9t42.5 34l51 -11q-29 -59 -75 -80.5t-87 -21.5q-10 0 -31.5 3t-42 15.5t-33 37t-3.5 67.5z" />
<glyph unicode="&#x2dc;" horiz-adv-x="327" d="M4 791q6 27 22.5 56.5t40 55t53.5 42t60 16.5q33 0 58.5 -7.5t48.5 -17.5q20 -10 38.5 -18.5t39.5 -8.5q29 0 47 16.5t32 43.5h76q-10 -33 -29.5 -69t-41.5 -56q-23 -23 -51.5 -35t-65.5 -12q-23 0 -47.5 8t-46.5 18q-25 10 -47.5 17.5t-40.5 7.5q-25 0 -44.5 -18.5 t-23.5 -38.5h-78z" />
<glyph unicode="&#x2dd;" horiz-adv-x="327" d="M33 799l164 194h186l-240 -194h-110zM303 799l164 194h186l-239 -194h-111z" />
<glyph unicode="&#x300;" horiz-adv-x="0" d="M-154 1264h181l79 -195h-110z" />
<glyph unicode="&#x301;" horiz-adv-x="0" d="M-184 1069l166 195h180l-234 -195h-112z" />
<glyph unicode="&#x303;" horiz-adv-x="0" d="M-352 1057q8 27 25.5 53.5t40 49t50 36.5t58.5 14t56.5 -8t47 -17t41 -17.5t37.5 -8.5q29 0 47.5 16.5t32.5 43.5h76q-23 -66 -68 -111t-115 -45q-23 0 -46 8t-47.5 17.5t-47 17.5t-41.5 8q-25 0 -45 -18.5t-24 -38.5h-78z" />
<glyph unicode="&#x309;" horiz-adv-x="0" d="M-184 1186q16 74 66 121t134 47q66 0 99.5 -33t23.5 -86q-6 -29 -26.5 -48.5t-44 -36.5t-43 -35.5t-25.5 -45.5h-92q10 37 29.5 60.5t39 40t36 29.5t20.5 32q4 10 -1 28.5t-38 18.5q-39 0 -60.5 -28.5t-27.5 -63.5h-90z" />
<glyph unicode="&#x323;" horiz-adv-x="0" d="M-713 -178q10 41 44 68.5t75 27.5t63.5 -27.5t12.5 -68.5t-43 -69.5t-74 -28.5t-64.5 28.5t-13.5 69.5z" />
<glyph unicode="&#x3b1;" horiz-adv-x="747" d="M18 322q18 82 56.5 149.5t89.5 114.5t110.5 72.5t118.5 25.5q66 0 104 -20.5t64 -63.5l29 70h127q-8 -25 -21.5 -76t-30 -116.5t-34 -138.5t-31.5 -140q-10 -47 0 -68.5t45 -24.5l-33 -110q-16 -8 -33.5 -9t-27.5 -1q-41 0 -69.5 20.5t-30.5 81.5q-47 -37 -105.5 -69.5 t-124.5 -32.5q-123 0 -179 90t-24 246zM164 246q2 -39 15.5 -69t38 -48t61.5 -18q74 0 129.5 61t78.5 174q8 35 7.5 73t-13 68.5t-36 51t-60.5 20.5q-72 0 -132 -67.5t-83 -165.5q-8 -41 -6 -80z" />
<glyph unicode="&#x3b2;" horiz-adv-x="759" d="M-32 -154.5q9 64.5 24 134.5l129 608q25 119 65.5 195.5t91 119.5t108.5 59.5t118 16.5q106 0 160.5 -65.5t31.5 -176.5q-12 -61 -51 -114.5t-82 -87.5q66 -25 102 -88.5t13 -174.5q-16 -70 -51 -123t-83 -89.5t-104.5 -55t-111.5 -18.5q-59 0 -101.5 16t-74.5 45 l-11 -51q-10 -53 -22.5 -125t-9.5 -127h-140q-10 37 -1 101.5zM180 184q16 -35 55 -55t97 -20q68 0 124 47.5t72 115.5q18 92 -28.5 134.5t-124.5 42.5h-53l24 118h35q72 4 115 48t55 104q12 59 -10.5 97t-73.5 38q-70 0 -121 -64.5t-78 -191.5z" />
<glyph unicode="&#x3b3;" horiz-adv-x="630" d="M18 670h170q16 -33 32 -83t30 -110.5t23.5 -129t13.5 -136.5q31 39 62.5 88t60 100.5t51 103.5t33.5 101l14 66h141l-8 -35q-18 -86 -52 -164t-78 -149.5t-99.5 -141t-116.5 -139.5q-4 -4 -5 -10t-1 -11q-4 -29 -11.5 -64.5t-15.5 -73.5t-15.5 -74.5t-13.5 -63.5h-151 q8 27 16 66.5t15 72.5q12 53 22 116.5t6 123.5q-4 76 -16 156.5t-30.5 155.5t-38 136.5t-38.5 98.5z" />
<glyph unicode="&#x3b4;" horiz-adv-x="741" d="M14.5 177.5q-12.5 62.5 3.5 144.5q27 123 111 206.5t190 137.5l-8 6q-10 10 -21 24.5t-21.5 33t-15.5 40t-1 43.5q6 31 27.5 60.5t56.5 53t84 38t108 14.5q72 0 131.5 -24.5t83.5 -47.5l-67 -114q-10 10 -29.5 21t-42 21.5t-48.5 16.5t-50 6q-47 0 -72.5 -13.5 t-30.5 -29.5q-2 -8 4.5 -19.5t24 -31t49 -50t80.5 -79.5q59 -59 94 -137t15 -172q-16 -78 -54 -141.5t-92.5 -107.5t-119 -67.5t-132.5 -23.5q-66 0 -120 21.5t-89.5 64.5t-48 105.5zM166 233q6 -40 25.5 -68t49 -43.5t64.5 -15.5q66 0 128.5 56.5t82.5 154.5 q14 61 -13.5 121t-103.5 142q-37 -18 -73.5 -44t-68.5 -59t-55.5 -71.5t-31.5 -83.5q-10 -49 -4 -89z" />
<glyph unicode="&#x3b8;" horiz-adv-x="724" d="M53 489q23 104 63 193.5t95 156t122.5 103.5t147.5 37t132.5 -35t77 -99.5t24.5 -154.5t-25 -201q-25 -115 -62.5 -208t-91 -158.5t-121 -101t-149.5 -35.5q-150 0 -207 126t-6 377zM190.5 190q32.5 -84 106.5 -84q39 0 75 25t65.5 69t53 103t39.5 131h-337 q-35 -160 -2.5 -244zM219 561h338q12 63 13 117.5t-11 94.5t-38.5 63.5t-69.5 23.5q-37 0 -73 -24.5t-66.5 -66.5t-54.5 -96.5t-38 -111.5z" />
<glyph unicode="&#x3bb;" horiz-adv-x="641" d="M-102 0l376 618q2 4 4.5 9.5t4.5 9.5q0 16 -2 27q-8 37 -18.5 69.5t-24 59t-31 42t-41.5 15.5h-35l37 123q10 2 24.5 3t34.5 1q49 0 84 -23.5t58.5 -65.5t39 -98.5t25.5 -121.5l111 -668h-164l-62 457l-260 -457h-161z" />
<glyph unicode="&#x3c0;" horiz-adv-x="753" d="M-35 0q29 49 59.5 117.5t58.5 143.5t52.5 148.5t40.5 135.5q-29 0 -57.5 -3t-67.5 -16l-2 97q35 20 84 33.5t127 13.5h512l-39 -125h-92l-72 -338q-16 -80 -19 -126t3 -81h-147q-8 20 -5.5 67.5t19.5 129.5l74 348h-172q-16 -61 -40 -139t-51.5 -154t-57.5 -142.5 t-58 -109.5h-150z" />
<glyph unicode="&#xe00;" horiz-adv-x="876" />
<glyph unicode="&#xe01;" horiz-adv-x="897" d="M59 0l88 418q12 59 55.5 108t73.5 58q-49 55 -155 73q168 168 405 168q342 0 285 -272l-117 -553h-135l119 561q33 154 -166 154q-94 0 -168 -43q68 -29 113 -80q-31 -12 -84 -55q-78 -63 -92 -131l-86 -406h-136z" />
<glyph unicode="&#xe02;" horiz-adv-x="884" d="M72 594q27 123 125 186q86 53 200 54q111 0 170 -54q63 -59 43 -157q-10 -49 -58 -116t-60 -122l-56 -268h135l150 702h135l-174 -819h-479l24 117h74l57 272q10 49 62.5 122t60.5 114q10 47 -21.5 76.5t-82.5 29.5q-31 0 -60 -10q39 0 60.5 -42t11.5 -85 q-14 -66 -67.5 -109t-116.5 -43q-74 0 -111 43t-22 109zM176 592q-4 -23 9.5 -40t35.5 -17q23 0 44.5 17t25.5 40t-9.5 40t-35.5 17q-23 0 -44.5 -17.5t-25.5 -39.5z" />
<glyph unicode="&#xe03;" horiz-adv-x="894" d="M66 563q25 115 114 189q76 63 162 71l70 -65l106 65q141 -55 113 -192q-12 -53 -64.5 -125t-64.5 -121l-56 -268h136l149 702h135l-174 -819h-479l25 117h73l58 272q10 49 64 120t63 116q8 35 -13 71l-94 -57l-82 63q-27 0 -50.5 -17t-27.5 -32h19q53 0 79.5 -37.5 t16.5 -91.5q-12 -57 -60 -94t-106 -37q-72 0 -100 53q-27 47 -12 117zM156 524q-4 -23 7 -37t34 -14t40 14t21 37t-7 37t-34 14t-40 -14t-21 -37z" />
<glyph unicode="&#xe04;" horiz-adv-x="907" d="M27 0l114 545q59 279 398 278q340 0 280 -278l-114 -545h-136l115 541q37 174 -166 174q-205 0 -244 -174l-36 -166l-43 -142l127 252q66 117 178 117q63 0 96 -41t18 -108q-12 -59 -63 -101.5t-117 -42.5q-37 0 -86 27l-180 -336h-141zM403 453q-4 -27 10.5 -45.5 t41.5 -18.5t49 18.5t26 45.5q6 27 -8 45t-41 18t-49 -18.5t-29 -44.5z" />
<glyph unicode="&#xe05;" horiz-adv-x="937" d="M27 0l120 573q18 90 93 167t170 87l131 -69l159 69q84 -4 129 -63q51 -72 27 -191l-121 -573h-135l123 586q12 53 -14 92q-20 29 -41 29l-154 -72l-119 72q-18 0 -51 -23q-45 -37 -59 -98l-58 -271l-41 -116l144 250q68 117 180 116q63 0 97 -41t20 -108 q-14 -59 -65.5 -101.5t-117.5 -42.5q-37 0 -84 27l-178 -299h-155zM416 418q-6 -27 8 -45.5t41 -18.5t49.5 18.5t28.5 45.5t-9.5 45t-41.5 18q-27 0 -48.5 -18.5t-27.5 -44.5z" />
<glyph unicode="&#xe06;" horiz-adv-x="1046" d="M74 567q25 115 114 189q78 63 162 71l72 -65l104 65q14 0 82 -43q82 -55 70 -110q-4 -23 -69.5 -82.5t-76.5 -108.5l-28 -133q68 -16 138.5 -72.5t98.5 -119.5l142 661h135l-174 -819h-154q-16 74 -80.5 144.5t-130.5 86.5l-22 -98q-31 -145 -181 -145q-80 0 -117.5 49 t-19.5 133q25 113 125 164q57 31 107 31l26 122q10 51 72.5 108.5t65.5 61.5q4 23 -43 43l-95 -57l-80 64q-27 0 -51 -17.5t-26 -32.5h18q53 0 80 -37.5t14 -91.5q-12 -57 -59 -94t-105 -37q-72 0 -102 54q-27 47 -12 116zM166 530q-6 -23 5 -37t34 -14t40 14t23 37 q4 23 -7 37.5t-34 14.5t-40 -14.5t-21 -37.5zM258 156q-12 -57 27 -58q31 0 43 60l16 80q-6 2 -16 2q-53 0 -70 -84z" />
<glyph unicode="&#xe07;" horiz-adv-x="692" d="M14 426l105 78l266 -350l78 366q-16 -2 -35 -2q-66 0 -102 39q-41 41 -27 113q16 74 78 116q51 35 115 35q172 0 135 -172l-138 -649h-147zM401 666q-6 -23 8.5 -40.5t36.5 -17.5q23 0 43.5 17.5t26.5 40.5q4 23 -9 40t-36 17t-44 -17.5t-26 -39.5z" />
<glyph unicode="&#xe08;" horiz-adv-x="862" d="M55 430l23 102q23 111 119 193q117 98 297 98q178 0 247 -90q57 -74 33 -188l-115 -545h-143l-51 317q-55 -27 -96 -26q-66 0 -99.5 42t-19.5 101q14 68 63 109t115 41q121 0 135 -117l27 -225l18 157l31 142q16 84 -32 129t-140 45q-104 0 -174 -50.5t-88 -136.5 l-21 -98h-129zM334 434q-6 -27 8 -45t41 -18t49.5 18t28.5 45q4 27 -10.5 45.5t-40.5 18.5q-27 0 -49.5 -18.5t-26.5 -45.5z" />
<glyph unicode="&#xe09;" horiz-adv-x="942" d="M49 461q27 123 101 209q133 154 382 153q184 0 269 -96q74 -84 49 -205l-45 -213l-23 -24q90 -46 70 -144q-12 -63 -63.5 -109t-118.5 -46q-90 0 -119 61q-16 37 -6 82l2 10q-96 -57 -176 -139h-146l43 203q12 59 33 63q-55 0 -87 43t-19 99q12 59 64 103t122 44 q61 0 98 -38t23 -103q-10 -49 -48 -97.5t-46 -87.5l-19 -94q29 25 143 103q70 43 138 71l37 178q23 109 -36 167.5t-171 58.5q-174 0 -267 -119q-47 -61 -63 -133h-121zM287 408q-6 -25 7 -41.5t38 -16.5t45 16.5t26 41.5q4 25 -9 42t-38 17t-45 -17.5t-24 -41.5zM639 137 q-6 -25 8.5 -42t38.5 -17q25 0 45.5 17t26.5 42q4 25 -9.5 42.5t-37.5 17.5q-25 0 -46.5 -17.5t-25.5 -42.5z" />
<glyph unicode="&#xe0a;" horiz-adv-x="884" d="M74 600q25 115 125 178q90 55 204 56q139 0 242 -74l207 178l74 -78l-191 -160l78 -79l-131 -621h-479l24 117h74l72 338q16 80 53 112l121 107q-16 16 -37 26q-49 27 -111 29q-41 2 -82 -8q39 0 60.5 -42t11.5 -85q-14 -70 -70.5 -111t-123.5 -41q-70 0 -103 44t-18 114 zM176 592q-4 -23 9.5 -40t35.5 -17q23 0 44.5 17t25.5 40t-9.5 40t-35.5 17q-23 0 -44.5 -17.5t-25.5 -39.5zM436 117h135l101 473l-33 26l-74 -67q-47 -45 -59 -100z" />
<glyph unicode="&#xe0b;" horiz-adv-x="897" d="M68 578q25 115 114 188q76 61 162 68l86 -74l123 76l104 -76l207 178l74 -78l-190 -160l77 -79l-131 -621h-479l25 117h73l72 338q16 80 53 112l121 107l-43 31l-106 -64l-99 76q-27 0 -51 -17.5t-27 -31.5h19q53 0 79.5 -38t14.5 -91q-12 -57 -59 -94t-105 -37 q-72 0 -102 53q-27 47 -12 117zM158 539q-4 -23 6 -36.5t33 -13.5t40 13.5t21 36.5q6 23 -5 37t-34 14t-39 -14.5t-22 -36.5zM449 117h135l100 473l-33 26l-73 -67q-47 -45 -60 -100z" />
<glyph unicode="&#xe0c;" horiz-adv-x="1277" d="M94 166l53 252q12 59 55.5 108t73.5 58q-49 55 -155 73q168 168 405 168q342 0 285 -272l-49 -231q147 -18 217 -134l135 631h135l-174 -819h-135q-31 141 -131 197q0 -35 -4 -60q-14 -63 -67.5 -106t-116.5 -43q-68 0 -105 39t-20 108q20 102 122 148l60 278 q33 154 -166 154q-94 0 -168 -43q68 -29 113 -80q-31 -12 -84 -55q-78 -63 -92 -131l-25 -111q16 2 33 2q66 0 106.5 -40t26.5 -112q-16 -74 -80 -116q-51 -37 -113 -37q-94 0 -125 61q-25 45 -10 113zM205 147q-6 -25 7 -41t38 -16t44 16t25 41q4 25 -8 41.5t-37 16.5 t-45 -16.5t-24 -41.5zM592 139q-6 -25 6 -40t37 -15t44.5 15t25.5 40t-7.5 41.5t-38.5 16.5t-43 -16.5t-24 -41.5z" />
<glyph unicode="&#xe0d;" horiz-adv-x="1277" d="M94 166l53 252q12 59 55.5 108t73.5 58q-49 55 -155 73q168 168 405 168q342 0 285 -272l-92 -436h246l149 702h135l-174 -819h-516l119 561q33 154 -166 154q-94 0 -168 -43q68 -29 113 -80q-31 -12 -84 -55q-78 -63 -92 -131l-25 -111q16 2 33 2q66 0 106.5 -40 t26.5 -112q-16 -74 -80 -116q-51 -37 -113 -37q-94 0 -125 61q-25 45 -10 113zM205 147q-6 -25 7 -41t38 -16t44 16t25 41q4 25 -8 41.5t-37 16.5t-45 -16.5t-24 -41.5zM492 -213q14 59 63 98t113 39q55 0 86.5 -37t19.5 -92q-4 -25 -16 -43q59 0 106 43t64 121h125 q-14 -63 -80 -143q-119 -137 -314 -138q-96 0 -138 43t-29 109zM578 -211q-6 -25 7 -41t38 -16t44 16t25 41q4 25 -8 41t-37 16t-45 -16t-24 -41z" />
<glyph unicode="&#xe0e;" horiz-adv-x="991" d="M-57 -270q16 70 70.5 117t129.5 47q45 0 84 -19l11 53h110l-20 -100l180 -113l100 82l164 764q33 154 -158 154q-94 0 -159 -43q70 -29 112 -80q-39 -14 -88 -55q-74 -63 -88 -131l-53 -248q-14 -68 -57 -113q-57 -61 -152 -61q-61 0 -98 36q-43 43 -29 117q14 72 74 113 q53 39 119 39q18 0 34 -2l29 131q12 57 64 112q39 45 65 54q-59 45 -156 73q168 168 398 168q334 0 276 -272l-166 -782l-229 -205l-227 139q-8 -41 -62 -92q-68 -51 -143 -51q-72 0 -109 43q-41 49 -26 125zM47 -270q-4 -27 8.5 -43.5t38.5 -16.5q27 0 47.5 16.5t24.5 43.5 q6 27 -6.5 43t-38.5 16q-27 0 -47.5 -16.5t-26.5 -42.5zM104 139q-6 -25 7.5 -41t38.5 -16t44 16t25 41t-7 41.5t-38 16.5t-44 -16.5t-26 -41.5z" />
<glyph unicode="&#xe0f;" horiz-adv-x="991" d="M-123 -266q14 70 70.5 117t134.5 47q45 0 78 -19l12 55h121l-27 -122l49 -64l127 100l86 -112l84 76l160 749q33 154 -158 154q-94 0 -159 -43q70 -29 112 -80q-39 -14 -88 -55q-74 -63 -88 -131l-53 -248q-14 -68 -57 -113q-57 -61 -152 -61q-61 0 -98 36 q-43 43 -29 117q14 72 74 113q53 39 119 39q18 0 34 -2l29 131q12 57 64 112q39 45 65 54q-59 45 -156 73q168 168 398 168q334 0 276 -272l-166 -782l-229 -207l-98 127l-144 -127l-75 119q-10 -33 -60 -70q-59 -45 -125 -45q-68 0 -107.5 45t-23.5 121zM-16 -268 q-14 -59 43 -60q59 1 73 60q12 61 -47 61q-57 0 -69 -61zM104 139q-6 -25 7.5 -41t38.5 -16t44 16t25 41t-7 41.5t-38 16.5t-44 -16.5t-26 -41.5z" />
<glyph unicode="&#xe10;" horiz-adv-x="819" d="M-180 -379q14 66 70.5 112t119.5 46q29 0 56 -10l30 139h101l-41 -197q31 -33 69 -82l74 60l82 -76q16 -14 35 -14q35 0 41 28l8 45q-14 -2 -19 -2q-51 0 -81 35q-37 37 -25 96t61.5 97.5t104.5 38.5q147 0 110 -175l-24 -116q-35 -160 -180 -160q-61 0 -131 68l-88 -76 l-80 90q-57 -104 -168 -105q-66 0 -103 46.5t-22 111.5zM-86 -379q-6 -27 8.5 -44t40.5 -17q27 0 46.5 17t25.5 44t-7.5 44.5t-37.5 17.5q-27 0 -48.5 -17.5t-27.5 -44.5zM102 518q2 18 4 29q27 123 103 198.5t213 75.5q37 0 103.5 -7t92.5 -7q82 0 93 49q2 2 2 21h133 q-18 -94 -63.5 -134.5t-145.5 -40.5q-27 0 -106.5 7.5t-127.5 7.5q-113 0 -129 -80q-6 0 33 4t78 4q377 0 330 -227q-6 -27 -17 -58l-125 -360h-245l-4 176q-33 -23 -82 -22q-68 0 -99.5 43t-17.5 104q12 63 63.5 106.5t114.5 43.5q131 0 133 -136l4 -198h45l80 248 q6 18 8 22q31 152 -266 152q-104 0 -205 -21zM213 301q-6 -25 8.5 -42t38.5 -17q25 0 45.5 17t26.5 42q4 25 -9.5 42t-37.5 17q-25 0 -46.5 -17t-25.5 -42zM426 -197q-4 -23 7 -37t34 -14t40 14t21 37t-7 37.5t-34 14.5t-40 -14.5t-21 -37.5z" />
<glyph unicode="&#xe11;" horiz-adv-x="1116" d="M66 565q25 115 114 189q76 63 162 71l70 -65l106 65q37 -12 68 -30q68 -43 84 -113l-66 -70q-67 -71 -82 -131l-28 -135l-35 -106l379 579h86q72 0 105.5 -53t17.5 -135l-134 -631h-135l135 643q12 59 -26 59l-465 -702h-135l102 485q10 49 49 91t78 86q2 2 4 8 q4 18 -35 30l-96 -59l-80 64q-25 0 -50.5 -17.5t-27.5 -32.5h19q53 0 79.5 -37.5t14.5 -91.5q-12 -57 -59 -94t-105 -37q-72 0 -102 54q-27 47 -12 116zM156 526q-4 -23 7 -37t34 -14t40 14t21 37t-7 37.5t-34 14.5t-40 -14.5t-21 -37.5z" />
<glyph unicode="&#xe12;" horiz-adv-x="1294" d="M43 0l121 573q20 94 69 158q74 90 193 96l131 -69l160 69q119 -6 151 -96q25 -63 4 -158l-57 -270q123 -29 180 -115l135 631h136l-174 -819h-142q-18 119 -116 170q0 -20 -3 -33q-14 -63 -71.5 -110t-120.5 -47t-100 47t-23 110q10 55 58.5 99.5t103.5 54.5l61 295 q14 61 -18 98q-20 23 -39 23l-152 -72l-118 72q-18 0 -52 -23q-45 -37 -59 -98l-92 -441l201 160q-20 0 -48 25q-43 39 -28 104q12 61 61 105.5t119 46.5q84 2 115 -49q25 -41 12 -101q-14 -70 -92 -135l-359 -301h-147zM424 438q-6 -27 8 -45t41 -18t49.5 18t28.5 45 t-8.5 45.5t-40.5 18.5q-27 0 -49.5 -18.5t-28.5 -45.5zM614 133q-4 -25 8.5 -41t36.5 -16q25 0 45.5 16t24.5 41q6 25 -7 41t-38 16t-44 -16t-26 -41z" />
<glyph unicode="&#xe13;" horiz-adv-x="1261" d="M88 166l53 252q12 59 55.5 108t73.5 58q-49 55 -155 73q168 168 405 168q342 0 285 -272l-78 -367q121 117 274 187l97 446h135l-100 -463l-58 -37q123 -34 94 -165q-14 -74 -75.5 -121t-126.5 -47q-100 0 -133 71q-16 41 -11 76q-82 -49 -135 -133h-135l119 561 q33 154 -166 154q-94 0 -168 -43q68 -29 113 -80q-31 -12 -84 -55q-78 -63 -93 -131l-24 -111q16 2 33 2q66 0 106.5 -40t26.5 -112q-16 -74 -80 -116q-51 -37 -113 -37q-94 0 -125 61q-25 45 -10 113zM199 147q-6 -25 7 -41t38 -16t44 16t25 41q4 25 -8 41.5t-37 16.5 t-45 -16.5t-24 -41.5zM934 156q-6 -29 7 -46.5t42 -17.5t51.5 17.5t28.5 46.5t-9.5 47t-43.5 18q-29 0 -49.5 -18.5t-26.5 -46.5z" />
<glyph unicode="&#xe14;" horiz-adv-x="937" d="M27 0l114 545q25 111 123 188q113 90 289 90q186 0 262 -90q59 -74 35 -188l-115 -545h-135l115 541q37 174 -183 174q-219 0 -256 -174l-81 -383l204 182q-20 0 -47 27q-41 37 -26 104q14 63 61 106.5t119 45.5q80 2 112 -48q27 -39 15 -100q-14 -63 -92 -137l-367 -338 h-147zM416 475q-6 -27 8 -45t41 -18t49.5 18t28.5 45t-9.5 45.5t-41.5 18.5q-27 0 -48.5 -18.5t-27.5 -45.5z" />
<glyph unicode="&#xe15;" horiz-adv-x="937" d="M27 0l120 573q43 201 263 254l131 -69l159 69q199 -53 156 -254l-121 -573h-135l123 586q14 61 -18 98q-20 23 -39 23l-152 -72l-119 72q-18 0 -51 -23q-45 -37 -59 -98l-92 -441l200 160q-20 0 -47 25q-43 39 -29 104q12 61 61.5 105.5t119.5 46.5q84 2 114 -49 q25 -41 13 -101q-14 -70 -93 -135l-358 -301h-147zM408 438q-6 -27 8 -45t41 -18t49.5 18t28.5 45t-8.5 45.5t-41.5 18.5t-49 -18.5t-28 -45.5z" />
<glyph unicode="&#xe16;" horiz-adv-x="897" d="M94 166l53 252q12 59 55.5 108t73.5 58q-49 55 -155 73q168 168 405 168q342 0 285 -272l-117 -553h-135l119 561q33 154 -166 154q-94 0 -168 -43q68 -29 113 -80q-31 -12 -84 -55q-78 -63 -92 -131l-25 -111q16 2 33 2q66 0 106.5 -40t26.5 -112q-16 -74 -80 -116 q-51 -37 -113 -37q-94 0 -125 61q-25 45 -10 113zM205 147q-6 -25 7 -41t38 -16t44 16t25 41q4 25 -8 41.5t-37 16.5t-45 -16.5t-24 -41.5z" />
<glyph unicode="&#xe17;" horiz-adv-x="995" d="M111 670q14 66 67 108.5t125 42.5q172 0 135 -172l-51 -235l-51 -166l340 571h102q88 0 128 -48t20 -140l-133 -631h-136l136 643q14 61 -41 62q-12 0 -21 -3l-430 -702h-135l108 520q-25 -2 -34 -2q-66 0 -105 41t-24 111zM213 668q-6 -25 7 -41.5t38 -16.5t44.5 16.5 t25.5 41.5q4 25 -8.5 41t-36.5 16q-25 0 -45.5 -16.5t-24.5 -40.5z" />
<glyph unicode="&#xe18;" horiz-adv-x="849" d="M61 0l25 117h66l73 348h-112l10 47q25 117 121 203q121 109 301 108q260 0 311 -155l-123 -62q-31 106 -198 107q-195 0 -244 -131h293q178 0 137 -189l-82 -393h-578zM287 117h241l58 272q16 76 -54 76h-172z" />
<glyph unicode="&#xe19;" horiz-adv-x="962" d="M111 670q14 66 67 108.5t125 42.5q172 0 135 -170l-104 -491q35 27 129 76t174 83q61 33 76 99l86 401h135l-90 -420q-6 -29 -27.5 -52t-42.5 -34q103 -49 78 -166q-16 -74 -76.5 -119.5t-126.5 -45.5q-100 0 -131 67q-18 41 -8 94l4 15q-119 -51 -209 -158h-139l108 520 q-25 -2 -34 -2q-66 0 -105 41t-24 111zM213 668q-6 -25 7 -41.5t38 -16.5t44.5 16.5t25.5 41.5q4 25 -8.5 41t-36.5 16q-25 0 -45.5 -16.5t-24.5 -40.5zM614 150q-6 -29 7.5 -46.5t42.5 -17.5t51 17.5t28 46.5t-8 47t-43 18t-50 -18.5t-28 -46.5z" />
<glyph unicode="&#xe1a;" horiz-adv-x="995" d="M100 0l25 117h65l84 403q-25 -2 -34 -2q-66 0 -105 41t-24 111q14 66 67 108.5t125 42.5q172 0 135 -170l-112 -534h356l149 702h136l-174 -819h-693zM213 668q-6 -25 7 -41.5t38 -16.5t44.5 16.5t25.5 41.5q4 25 -8.5 41t-36.5 16q-25 0 -45.5 -16.5t-24.5 -40.5z" />
<glyph unicode="&#xe1b;" horiz-adv-x="995" d="M100 0l25 117h65l84 403q-25 -2 -34 -2q-66 0 -105 41t-24 111q14 66 67 108.5t125 42.5q172 0 135 -170l-112 -534h356l246 1161h135l-270 -1278h-693zM213 668q-6 -25 7 -41.5t38 -16.5t44.5 16.5t25.5 41.5q4 25 -8.5 41t-36.5 16q-25 0 -45.5 -16.5t-24.5 -40.5z" />
<glyph unicode="&#xe1c;" horiz-adv-x="897" d="M31 0l137 649q37 172 209 172q72 0 106.5 -43t20.5 -108q-14 -70 -71.5 -111t-123.5 -41q-10 0 -35 2l-69 -327l196 194h93l104 -194l135 626h135l-174 -819h-135l-141 262l-252 -262h-135zM287 668q-6 -25 7 -41.5t38 -16.5t44 16.5t25 41.5q4 25 -8 41t-37 16 t-45 -16.5t-24 -40.5z" />
<glyph unicode="&#xe1d;" horiz-adv-x="897" d="M31 0l137 649q37 172 209 172q72 0 106.5 -43t20.5 -108q-14 -70 -71.5 -111t-123.5 -41q-10 0 -35 2l-69 -327l196 194h93l104 -194l231 1085h136l-271 -1278h-135l-141 262l-252 -262h-135zM287 668q-6 -25 7 -41.5t38 -16.5t44 16.5t25 41.5q4 25 -8 41t-37 16 t-45 -16.5t-24 -40.5z" />
<glyph unicode="&#xe1e;" horiz-adv-x="1069" d="M111 670q14 66 67 108.5t125 42.5q172 0 135 -172l-57 -268l-25 -74l279 512h106l64 -512l6 74l94 438h135l-174 -819h-151l-70 610l-328 -610h-151l108 520q-25 -2 -34 -2q-66 0 -105 41t-24 111zM213 668q-6 -25 7 -41.5t38 -16.5t44.5 16.5t25.5 41.5q4 25 -8.5 41 t-36.5 16q-25 0 -45.5 -16.5t-24.5 -40.5z" />
<glyph unicode="&#xe1f;" horiz-adv-x="1069" d="M111 670q14 66 67 108.5t125 42.5q172 0 135 -172l-57 -268l-25 -74l279 512h106l64 -512l6 74l190 897h136l-271 -1278h-151l-70 610l-328 -610h-151l108 520q-25 -2 -34 -2q-66 0 -105 41t-24 111zM213 668q-6 -25 7 -41.5t38 -16.5t44.5 16.5t25.5 41.5q4 25 -8.5 41 t-36.5 16q-25 0 -45.5 -16.5t-24.5 -40.5z" />
<glyph unicode="&#xe20;" horiz-adv-x="991" d="M2 137q14 72 74 113q53 39 119 39q18 0 34 -2l29 131q12 57 64 112q39 45 65 54q-59 45 -156 73q168 168 398 168q334 0 276 -272l-117 -553h-135l119 561q33 154 -158 154q-94 0 -159 -43q70 -29 112 -80q-39 -14 -88 -55q-74 -63 -88 -131l-53 -248q-14 -68 -57 -113 q-57 -61 -152 -61q-61 0 -98 36q-43 43 -29 117zM104 139q-6 -25 7.5 -41t38.5 -16t44 16t25 41t-7 41.5t-38 16.5t-44 -16.5t-26 -41.5z" />
<glyph unicode="&#xe21;" horiz-adv-x="968" d="M45 170q37 174 231 195l33 155q-25 -2 -35 -2q-66 0 -104.5 41t-24.5 111q14 66 67.5 108.5t125.5 42.5q172 0 135 -170l-63 -301q168 -43 254 -192l141 661h135l-174 -819h-154q-78 174 -227 231l-23 -98q-31 -145 -180 -145q-80 0 -117.5 49t-19.5 133zM164 156 q-12 -57 26 -58q31 1 43 60l17 80q-8 2 -17 2q-53 0 -69 -84zM248 668q-6 -25 7 -41.5t38 -16.5t44 16.5t25 41.5q4 25 -8 41t-37 16t-45 -16.5t-24 -40.5z" />
<glyph unicode="&#xe22;" horiz-adv-x="882" d="M70 0l39 188q20 98 79 154q41 41 68 41q-43 0 -86 31q-78 57 -51 182q27 119 133 182q82 49 170 49q74 0 119 -36q49 -43 32 -119q-14 -70 -69 -112t-123 -42q-72 0 -105 51q-25 39 -20 76q-12 -33 -16 -55q-31 -143 192 -144h86l-20 -98h-68q-152 0 -180 -127l-21 -104 h340l150 702h135l-174 -819h-610zM356 668q-6 -23 8.5 -40.5t36.5 -17.5q23 0 43.5 17.5t26.5 40.5q4 23 -9 40t-36 17t-44.5 -17.5t-25.5 -39.5z" />
<glyph unicode="&#xe23;" horiz-adv-x="741" d="M63 453q39 176 160 278q117 98 264 98q174 0 242 -102q37 -59 31 -106h-142q-23 94 -151 94q-162 0 -229 -152h352l-84 -399q-16 -68 -57 -113q-59 -61 -154 -61q-61 0 -98 37q-43 43 -29 116q16 72 76 113q53 39 118 39q18 0 35 -2l33 160h-367zM272 145q-6 -25 7.5 -41 t37.5 -16q25 0 44.5 16t25.5 41q4 25 -8 41.5t-37 16.5t-45.5 -16.5t-24.5 -41.5z" />
<glyph unicode="&#xe24;" horiz-adv-x="897" d="M94 166l53 252q12 59 55.5 108t73.5 58q-49 55 -155 73q168 168 405 168q342 0 285 -272l-180 -848h-135l182 856q33 154 -166 154q-94 0 -168 -43q68 -29 113 -80q-31 -12 -84 -55q-78 -63 -92 -131l-25 -111q16 2 33 2q66 0 106.5 -40t26.5 -112q-16 -74 -80 -116 q-51 -37 -113 -37q-94 0 -125 61q-25 45 -10 113zM205 147q-6 -25 7 -41t38 -16t44 16t25 41q4 25 -8 41.5t-37 16.5t-45 -16.5t-24 -41.5z" />
<glyph unicode="&#xe25;" horiz-adv-x="903" d="M57 459l4 14q25 115 97 201q127 150 362 149q184 0 256 -96q61 -80 35 -205l-111 -522h-141q-4 109 -51 279t-80 190q-86 -72 -147 -184q49 0 84 -27q53 -39 36 -121q-16 -74 -72.5 -113.5t-117.5 -39.5q-160 0 -123 178q27 123 141 270q125 158 246 193q33 -12 87 -126 t69 -188l37 176q47 225 -183 226q-152 0 -231 -105q-49 -61 -66 -141l-2 -8h-129zM188 135q-6 -25 7.5 -41t37.5 -16q25 0 44.5 16t25.5 41q4 25 -9 41.5t-38 16.5t-44 -16.5t-24 -41.5z" />
<glyph unicode="&#xe26;" horiz-adv-x="991" d="M2 137q14 72 74 113q53 39 119 39q18 0 34 -2l29 131q12 57 64 112q39 45 65 54q-59 45 -156 73q168 168 398 168q334 0 276 -272l-180 -848h-135l182 856q33 154 -158 154q-94 0 -159 -43q70 -29 112 -80q-39 -14 -88 -55q-74 -63 -88 -131l-53 -248q-14 -68 -57 -113 q-57 -61 -152 -61q-61 0 -98 36q-43 43 -29 117zM104 139q-6 -25 7.5 -41t38.5 -16t44 16t25 41t-7 41.5t-38 16.5t-44 -16.5t-26 -41.5z" />
<glyph unicode="&#xe27;" horiz-adv-x="774" d="M55 469l17 76q59 279 366 278q307 0 248 -278l-80 -381q-16 -68 -57 -113q-59 -61 -154 -61q-61 0 -98 37q-43 43 -29 116q16 72 76 113q53 39 119 39q18 0 35 -2l53 248q37 174 -135 174t-209 -174l-17 -72h-135zM373 145q-6 -25 7 -41t38 -16t44 16t25 41q4 25 -8 41.5 t-37 16.5t-45 -16.5t-24 -41.5z" />
<glyph unicode="&#xe28;" horiz-adv-x="907" d="M27 0l114 545q59 279 398 278q100 0 163 -24q57 53 70 112h154q-18 -84 -127 -184q45 -68 20 -182l-114 -545h-136l115 541q12 61 -6 102q-53 -33 -107 -61q14 -8 25 -21q33 -41 18 -108q-12 -59 -63 -101.5t-117 -42.5q-37 0 -86 27l-180 -336h-141zM195 233l127 252 q45 80 112 107q94 47 170 110q-35 12 -86 13q-205 0 -244 -174l-36 -166zM403 453q-4 -27 10.5 -45.5t41.5 -18.5t49 18.5t26 45.5q6 27 -8 45t-41 18t-49 -18.5t-29 -44.5z" />
<glyph unicode="&#xe29;" horiz-adv-x="1003" d="M100 0l25 117h65l84 403q-25 -2 -34 -2q-66 0 -105 41t-24 111q14 66 67 108.5t125 42.5q172 0 135 -172l-112 -532h356l39 182q-49 -8 -98 -8q-219 0 -189 151q12 51 56.5 89t109.5 38q66 0 93.5 -37.5t15.5 -89.5q-4 -25 -23 -49q29 -2 55 10l90 416h136l-74 -338 q41 25 76 70l59 -88q-78 -90 -164 -123l-71 -340h-693zM213 668q-6 -25 7 -41.5t38 -16.5t44.5 16.5t25.5 41.5q4 25 -8.5 41t-36.5 16q-25 0 -45.5 -16.5t-24.5 -40.5zM514 438q-4 -23 7 -38t34 -15t42.5 15t23.5 38t-7.5 38.5t-33.5 15.5q-23 0 -42.5 -15.5t-23.5 -38.5z " />
<glyph unicode="&#xe2a;" horiz-adv-x="909" d="M84 459l4 14q25 115 96 201q127 150 363 149q94 0 162 -26q59 70 69 114h154q-14 -63 -127 -186q57 -82 33 -203l-111 -522h-141q-4 109 -51.5 279t-79.5 190q-29 -16 -82 -88q-49 -63 -66 -96q49 0 84 -27q53 -39 37 -121q-16 -74 -72.5 -113.5t-117.5 -39.5 q-160 0 -123 178q37 170 184 319q131 131 313 217q-47 14 -100 15q-152 0 -231 -105q-49 -61 -66 -141l-2 -8h-129zM215 135q-6 -25 7.5 -41t37.5 -16q25 0 44.5 16t25.5 41q4 25 -9.5 41.5t-37.5 16.5q-25 0 -44.5 -16.5t-23.5 -41.5zM561 549q78 -138 96 -238l37 176 q18 86 -4 146q-72 -47 -129 -84z" />
<glyph unicode="&#xe2b;" horiz-adv-x="989" d="M111 670q14 66 67 108.5t125 42.5q172 0 135 -170l-98 -465l348 359q-63 43 -47 127q14 68 67.5 110.5t122.5 42.5q70 0 105 -43t20 -110q-18 -92 -100 -129q49 -31 23 -150l-82 -393h-135l90 432q4 18 -9 31l-438 -463h-139l108 520q-25 -2 -34 -2q-66 0 -105 41 t-24 111zM213 668q-6 -25 7 -41.5t38 -16.5t44.5 16.5t25.5 41.5q4 25 -8.5 41t-36.5 16q-25 0 -45.5 -16.5t-24.5 -40.5zM739 672q-4 -25 8.5 -41.5t36.5 -16.5q25 0 45.5 16.5t24.5 41.5q6 25 -7 41t-38 16t-44.5 -16.5t-25.5 -40.5z" />
<glyph unicode="&#xe2c;" horiz-adv-x="1085" d="M111 670q14 66 67 108.5t125 42.5q172 0 135 -172l-71 -340l-25 -73l244 352h106l99 -352l6 73l69 330q-8 -2 -26 -2q-63 0 -95 40t-20 101q12 59 62.5 105.5t115.5 46.5q82 0 113 -60q53 25 76 70h125q-68 -137 -193 -190l-158 -750h-151l-105 446l-293 -446h-151 l108 520q-25 -2 -34 -2q-66 0 -105 41t-24 111zM213 668q-6 -25 7 -41.5t38 -16.5t44.5 16.5t25.5 41.5q4 25 -8.5 41t-36.5 16q-25 0 -45.5 -16.5t-24.5 -40.5zM815 776q-4 -25 8.5 -41t36.5 -16q25 0 45.5 16t24.5 41q6 25 -7.5 41.5t-37.5 16.5q-25 0 -44.5 -16.5 t-25.5 -41.5z" />
<glyph unicode="&#xe2d;" horiz-adv-x="925" d="M39 461q23 104 90 190q135 172 387 172q184 0 268 -96q74 -84 50 -205l-111 -522h-594l82 393q14 66 57 115q59 70 158 70q61 0 100 -39t25 -113q-16 -78 -82 -119q-53 -33 -119 -33q-14 0 -28 2l-33 -159h323l78 370q23 109 -28.5 167.5t-163.5 58.5q-168 0 -256 -99 q-53 -59 -70 -139l-4 -14h-129zM334 422q-4 -25 8 -41t37 -16t45.5 16t24.5 41q6 25 -7.5 41t-38.5 16t-44 -16.5t-25 -40.5z" />
<glyph unicode="&#xe2e;" horiz-adv-x="851" d="M39 0l65 315q14 66 58 115q59 70 157 70q61 0 100.5 -39t24.5 -113q-16 -78 -82 -119q-53 -33 -118 -32q-14 0 -29 2l-16 -82h340l88 420q8 41 4 61q-115 -55 -262 -55q-113 0 -181 32q-78 37 -63 107q16 76 125 117q90 35 209 35q190 0 252 -68q66 49 110 127l92 -70 q-57 -98 -141 -155q10 -35 -6 -113l-117 -555h-610zM227 344q-4 -25 8.5 -41t36.5 -16q25 0 45.5 16t24.5 41q6 25 -7 41t-38 16t-44.5 -16t-25.5 -41zM279 686q-8 -37 116 -37q170 0 207 43q-59 37 -166 37q-150 0 -157 -43z" />
<glyph unicode="&#xe2f;" horiz-adv-x="849" d="M127 666q12 66 64.5 111.5t130.5 45.5q70 0 103.5 -42t18.5 -113q-10 -43 -38 -74q86 0 172 63.5t114 161.5h135l-174 -819h-135l125 588q-14 -29 -104 -66q-104 -43 -203 -43q-98 0 -158 45q-72 51 -51 142zM225 668q-6 -27 7.5 -44.5t39.5 -17.5q27 0 48.5 17.5 t27.5 44.5t-8 44t-41 17t-47.5 -17.5t-26.5 -43.5z" />
<glyph unicode="&#xe30;" horiz-adv-x="759" d="M10 193q14 68 67.5 106.5t117.5 38.5q63 0 96 -40t18 -108q-6 -29 -26 -59q205 8 266 205h115q-25 -117 -93 -186q-123 -125 -338 -125q-256 0 -223 168zM98 190q-4 -27 9.5 -44t39.5 -17q27 0 48.5 17t25.5 44q6 27 -7 44.5t-40 17.5t-48.5 -17.5t-27.5 -44.5zM106 643 q14 68 66.5 106.5t116.5 38.5q63 0 97 -39.5t20 -107.5q-6 -29 -27 -59q205 8 266 204h115q-25 -117 -92 -186q-123 -125 -338 -125q-258 0 -224 168zM195 641q-6 -27 8 -44t41 -17t47 17t26 44t-8 44t-41 17t-47 -17t-26 -44z" />
<glyph unicode="&#xe31;" horiz-adv-x="0" d="M-416 1171q12 59 60.5 105.5t122.5 46.5q70 0 102.5 -40t19.5 -97q-14 -61 -63 -92q14 -10 90 -11q96 0 182 52q111 63 135 184h134q-33 -154 -185 -250q-141 -92 -311 -92q-127 0 -209 47q-98 53 -78 147zM-322 1178q-6 -25 7.5 -41.5t38.5 -16.5t44 16.5t25 41.5 q4 25 -8 41t-37 16t-45 -16.5t-25 -40.5z" />
<glyph unicode="&#xe32;" horiz-adv-x="729" d="M43 567q74 256 346 256q311 0 252 -278l-115 -545h-135l115 541q37 174 -127 174q-178 0 -211 -148h-125z" />
<glyph unicode="&#xe33;" horiz-adv-x="729" d="M-201 1139q14 74 74.5 123t132.5 49q74 0 111.5 -49t23.5 -123q-16 -74 -75.5 -123t-131.5 -49q-74 0 -112.5 49t-22.5 123zM-104 1139q-8 -33 9 -54.5t50 -21.5t57.5 21.5t32.5 54.5q6 33 -10.5 54t-46.5 21q-33 0 -59.5 -21.5t-32.5 -53.5zM43 567q74 256 346 256 q311 0 252 -278l-115 -545h-135l115 541q37 174 -127 174q-178 0 -211 -148h-125z" />
<glyph unicode="&#xe34;" horiz-adv-x="0" d="M-721 1024q127 287 406 287q160 0 248.5 -105.5t78.5 -263.5q-154 55 -376 73.5t-357 8.5zM-522 1120q184 6 379 -45q-53 129 -187 129q-123 0 -192 -84z" />
<glyph unicode="&#xe35;" horiz-adv-x="0" d="M-721 1024q127 287 406 287q150 0 235 -94l33 155h135l-76 -360q2 -33 0 -70q-154 55 -376 73.5t-357 8.5zM-522 1120q184 6 379 -45q-53 129 -187 129q-123 0 -192 -84z" />
<glyph unicode="&#xe36;" horiz-adv-x="0" d="M-721 1024q127 287 406 287q98 0 170 -41q23 43 64.5 71.5t86.5 28.5q55 0 86 -40t19 -97q-8 -47 -41 -81t-78 -48q26 -72 20 -162q-154 55 -376 73.5t-357 8.5zM-522 1120q184 6 379 -45q-53 129 -187 129q-123 0 -192 -84zM-88 1231q-4 -27 10.5 -44.5t40.5 -17.5 q27 0 47.5 17.5t26.5 44.5t-7.5 45t-39.5 18q-27 0 -49.5 -18.5t-28.5 -44.5z" />
<glyph unicode="&#xe37;" horiz-adv-x="0" d="M-721 1024q127 287 406 287q49 0 90 -11l16 72h107l-27 -121q39 -20 59 -47l2 -2l37 170h119l-76 -360q2 -33 0 -70q-154 55 -376 73.5t-357 8.5zM-522 1120q184 6 379 -45q-53 129 -187 129q-123 0 -192 -84z" />
<glyph unicode="&#xe38;" horiz-adv-x="0" d="M-567 -240q12 66 65 107t119 41q162 0 123 -182l-43 -203h-135l20 98q-14 -4 -33 -4q-49 0 -86 29q-47 41 -30 114zM-475 -240q-6 -25 7 -42t38 -17t46.5 17t27.5 42q4 25 -9.5 42.5t-37.5 17.5q-25 0 -46.5 -17.5t-25.5 -42.5z" />
<glyph unicode="&#xe39;" horiz-adv-x="0" d="M-817 -240q12 66 65.5 107t118.5 41q162 0 123 -178l-20 -99h114l56 263h135l-78 -371h-385l20 98q-14 -4 -32 -4q-49 0 -86 29q-47 41 -31 114zM-725 -240q-6 -25 7 -42t38 -17t46.5 17t27.5 42q4 25 -9.5 42.5t-37.5 17.5q-25 0 -46.5 -17.5t-25.5 -42.5z" />
<glyph unicode="&#xe3a;" horiz-adv-x="0" d="M-414 -205q10 43 44 71t77 28t65.5 -28t12.5 -71q-8 -43 -42 -71.5t-77 -28.5t-65.5 28.5t-14.5 71.5z" />
<glyph unicode="&#xe3f;" horiz-adv-x="866" d="M0 0l205 969h291l26 129h58l-27 -129h76q268 0 217 -240q-31 -145 -168 -207l-2 -2q155 -41 112 -250q-27 -121 -116 -192q-98 -78 -271 -78h-53l-29 -129h-57l29 129h-291zM190 139h129l64 301h-129zM281 563h129l57 268h-129zM377 139h76q145 0 178 154 q31 147 -115 147h-76zM467 563h55q55 0 98.5 36t57.5 99q29 133 -98 133h-56z" />
<glyph unicode="&#xe40;" horiz-adv-x="507" d="M86 164l139 655h135l-112 -526q25 2 35 2q66 0 105.5 -41t23.5 -111q-12 -66 -65.5 -108.5t-125.5 -42.5q-172 0 -135 172zM197 145q-6 -25 7 -41t38 -16t44 16t25 41q4 25 -8 41.5t-37 16.5t-45 -16.5t-24 -41.5z" />
<glyph unicode="&#xe41;" horiz-adv-x="901" d="M86 164l139 655h135l-112 -526q25 2 35 2q66 0 105.5 -41t23.5 -111q-12 -66 -65.5 -108.5t-125.5 -42.5q-172 0 -135 172zM197 145q-6 -25 7 -41t38 -16t44 16t25 41q4 25 -8 41.5t-37 16.5t-45 -16.5t-24 -41.5zM479 164l139 655h136l-113 -526q25 2 35 2 q66 0 105.5 -41t23.5 -111q-12 -66 -65.5 -108.5t-125.5 -42.5q-172 0 -135 172zM590 145q-6 -25 7 -41t38 -16t44.5 16t25.5 41q4 25 -8.5 41.5t-37.5 16.5t-45 -16.5t-24 -41.5z" />
<glyph unicode="&#xe42;" horiz-adv-x="559" d="M66 1090q12 66 71 137q106 133 293 133q133 0 197 -90q59 -84 32 -205h-120q16 80 -11 133q-33 59 -120 59q-131 0 -195 -110l238 -135l-154 -719q25 2 35 2q66 0 105.5 -41t23.5 -111q-12 -66 -65.5 -108.5t-125.5 -42.5q-172 0 -135 172l168 799zM246 145q-6 -25 7 -41 t38 -16t44 16t25 41q4 25 -8 41.5t-37 16.5t-45 -16.5t-24 -41.5z" />
<glyph unicode="&#xe43;" horiz-adv-x="651" d="M57 1135q23 106 99.5 164.5t185.5 58.5q274 0 217 -273l-168 -792q25 2 35 2q66 0 105.5 -41t23.5 -111q-12 -66 -65.5 -108.5t-124.5 -42.5q-172 0 -136 172l197 930q35 162 -68 161q-2 0 -18 -2q47 -27 25 -133q-16 -76 -68.5 -116.5t-112.5 -40.5q-66 0 -104.5 46 t-22.5 126zM154 1133q-6 -31 5 -52.5t38 -21.5t49 21.5t28 52.5t-6 53t-39 22t-48 -22.5t-27 -52.5zM340 145q-6 -25 7 -41t38 -16t44.5 16t25.5 41q4 25 -8.5 41.5t-36.5 16.5q-25 0 -45.5 -16.5t-24.5 -41.5z" />
<glyph unicode="&#xe44;" horiz-adv-x="608" d="M104 991q8 23 21 82q14 70 21.5 158t-15.5 180h131q14 -47 11 -109.5t-29 -189.5l178 246h151l-225 -1065q25 2 35 2q66 0 105.5 -41t23.5 -111q-12 -66 -65.5 -108.5t-124.5 -42.5q-172 0 -136 172l215 1014l-131 -187h-166zM297 145q-6 -25 7 -41t38 -16t44.5 16 t25.5 41q4 25 -8.5 41.5t-36.5 16.5q-25 0 -45.5 -16.5t-24.5 -41.5z" />
<glyph unicode="&#xe45;" horiz-adv-x="477" d="M-209 567q74 256 346 256q311 0 252 -278l-178 -840h-135l178 836q37 174 -127 174q-178 0 -211 -148h-125z" />
<glyph unicode="&#xe46;" horiz-adv-x="1081" d="M319 549q23 102 100 187t161 85q74 0 118 -43q37 -33 33 -47q16 29 63.5 60.5t88.5 31.5q139 0 98 -188l-156 -737q-23 -100 -61 -162q-55 -84 -125 -117l-76 86q98 57 127 193l154 720q14 68 -15 68q-27 0 -77 -41t-43 -45q2 10 -43 57q-53 53 -101 54q-39 0 -82 -49 q18 2 27 2q47 0 80 -29q45 -39 28 -117q-14 -66 -63 -107.5t-119 -41.5q-63 0 -99 46t-18 134zM414 518q-12 -59 47 -59t71 59q12 60 -47 60t-71 -60z" />
<glyph unicode="&#xe47;" horiz-adv-x="0" d="M-510 1128q41 190 240 191h114q139 0 150 57l4 10h102q-14 -66 -67 -103.5t-123 -37.5h-168q-131 0 -154 -106q-10 -51 -6 -58q14 20 36 39t52 35h72q10 -78 72 -94q-20 20 -15 53q10 43 44 68.5t77 25.5q47 0 69.5 -30.5t12.5 -71.5q-12 -61 -62.5 -93t-109.5 -32 q-121 0 -154 98q-59 -47 -79 -96h-50q-88 0 -57 145zM-139 1110q-8 -41 33 -41t49 41t-33 41t-49 -41z" />
<glyph unicode="&#xe48;" horiz-adv-x="0" d="M-31 1434l49 239h136l-52 -239h-133z" />
<glyph unicode="&#xe49;" horiz-adv-x="0" d="M-227 1399l14 69q80 16 109 56l-13 -2q-43 0 -71.5 29.5t-18.5 76.5q10 49 51 81t97 32q121 0 94 -119q-14 -72 -88 -131q45 0 149.5 55.5t132.5 169.5h107q-33 -150 -196 -235.5t-367 -81.5zM-133 1628q-4 -23 6 -34t31 -11q20 0 35.5 11t19.5 34q2 23 -6 35t-29 12 q-20 0 -36.5 -12t-20.5 -35z" />
<glyph unicode="&#xe4a;" horiz-adv-x="0" d="M-268 1556q31 147 176 173l72 -60l100 60q45 0 71.5 -41t14.5 -101q-4 -23 -14.5 -47t-26.5 -47q51 8 104.5 60.5t79.5 166.5h119q-29 -80 -74 -139t-99 -98t-115.5 -58.5t-125.5 -19.5h-18t-10 2q66 49 86 152q14 70 -19 86l-92 -50l-72 58q-51 -31 -63 -90q27 23 68 22 q43 0 64.5 -21.5t10.5 -66.5q-10 -49 -42.5 -73.5t-84.5 -24.5q-143 0 -110 157zM-172 1493q-2 -16 7 -27.5t26 -11.5q16 0 31.5 11.5t15.5 27.5q4 16 -3 29.5t-24 13.5q-16 0 -32.5 -13.5t-20.5 -29.5z" />
<glyph unicode="&#xe4b;" horiz-adv-x="0" d="M-141 1520l20 92h129l17 86h135l-19 -86h129l-20 -92h-129l-19 -86h-133l19 86h-129z" />
<glyph unicode="&#xe4c;" horiz-adv-x="0" d="M-94 1391q23 100 162 127.5t159 119.5h92q-23 -102 -104 -143q-55 -27 -113 -27q35 -27 23 -77q-10 -47 -47 -79t-84 -32q-49 0 -73.5 31.5t-14.5 79.5zM-31 1389q-4 -20 7.5 -33t27.5 -13q18 0 34.5 13t20.5 33t-6 33.5t-28 13.5t-35 -13.5t-21 -33.5z" />
<glyph unicode="&#xe4d;" horiz-adv-x="0" d="M-201 1139q14 74 74.5 123t132.5 49q74 0 111.5 -49t23.5 -123q-16 -74 -75.5 -123t-131.5 -49q-74 0 -112.5 49t-22.5 123zM-104 1139q-8 -33 9 -54.5t50 -21.5t57.5 21.5t32.5 54.5q6 33 -10.5 54t-46.5 21q-33 0 -59.5 -21.5t-32.5 -53.5z" />
<glyph unicode="&#xe4e;" horiz-adv-x="0" d="M-367 1047q8 35 28 60.5t47.5 43.5t58 30.5t61.5 20.5q-74 18 -61 78q6 27 34.5 55.5t70.5 51t91 37t96 14.5q23 0 60 -4t92 -21l-57 -65q-12 8 -36 14t-44 6q-25 0 -52.5 -3t-55 -11t-47 -23.5t-25.5 -42.5q-4 -18 24.5 -34.5t85.5 -16.5l-33 -66q-86 -16 -148.5 -39.5 t-72.5 -72.5q-6 -29 13.5 -42t43.5 -13q23 0 41.5 10t22.5 30q2 6 2 17.5t-10 21.5l80 29q14 -27 16 -46t0 -30q-8 -43 -62.5 -69.5t-115.5 -26.5q-53 0 -84 10.5t-45 26.5t-18.5 34.5t-0.5 35.5z" />
<glyph unicode="&#xe4f;" horiz-adv-x="927" d="M117 334q0 70 27.5 133t74.5 110.5t109.5 75t134.5 27.5q70 0 132 -27.5t110.5 -76t76 -110.5t27.5 -132q0 -72 -27.5 -134.5t-75 -109.5t-111 -74.5t-132.5 -27.5q-72 0 -135.5 26.5t-110.5 73.5t-73.5 110.5t-26.5 135.5zM188 334q0 -57 21.5 -107.5t58.5 -88.5 t87.5 -59.5t107.5 -21.5q55 0 105 22.5t88 60.5t59.5 88.5t21.5 105.5q0 57 -21.5 107.5t-58 87t-87 58t-107.5 21.5q-55 0 -105.5 -21.5t-88.5 -58t-59.5 -87t-21.5 -107.5zM260 334q0 86 58.5 144.5t144.5 58.5t144.5 -58.5t58.5 -144.5t-58.5 -145.5t-144.5 -59.5 t-144.5 59.5t-58.5 145.5zM332 334q0 -55 38 -93t93 -38t93 38t38 93q0 53 -38 92t-93 39t-93 -39t-38 -92z" />
<glyph unicode="&#xe50;" horiz-adv-x="870" d="M74 287q27 123 135 209t260 86q156 0 229.5 -85t46.5 -210q-29 -133 -134 -214t-263 -81q-156 0 -228.5 82t-45.5 213zM203 285q-39 -180 166 -181q206 1 245 181q18 82 -26.5 133t-141.5 51q-94 0 -159.5 -50t-83.5 -134z" />
<glyph unicode="&#xe51;" horiz-adv-x="892" d="M61 268q29 133 141.5 221.5t276.5 88.5q160 0 238 -89.5t49 -224.5q-33 -152 -162 -272q-78 -72 -137 -98l-59 63q51 25 126.5 107.5t96.5 185.5q20 92 -29 155.5t-151 63.5q-106 0 -181 -70q-61 -57 -75 -123q-10 -51 2 -92q8 45 49 77t94 32q78 2 109.5 -40t19.5 -108 q-14 -59 -64.5 -105t-134.5 -46q-123 0 -178 78t-31 196zM262 147q-6 -27 7.5 -43t39.5 -16q27 0 47.5 16t26.5 43q4 27 -9.5 44.5t-39.5 17.5q-27 0 -47.5 -17.5t-24.5 -44.5z" />
<glyph unicode="&#xe52;" horiz-adv-x="954" d="M68 0l141 674q14 68 -25 112q-27 33 -47 33l127 86q113 -80 84 -219l-121 -569h437l59 280q18 86 -25 86q-27 0 -57.5 -26.5t-32.5 -36.5q2 10 -14 35q-23 29 -49 28q-59 0 -82 -100q37 14 65 14q51 0 76 -33.5t14 -82.5q-12 -53 -58 -86t-95 -33q-158 0 -113 207 q43 205 197 211q61 2 82 -62q53 61 119 62q72 0 100 -52q25 -47 10 -120l-86 -408h-706zM453 281q-6 -20 5 -34t31 -14t36 14t22 34q4 20 -6.5 33.5t-30.5 13.5t-36.5 -13.5t-20.5 -33.5z" />
<glyph unicode="&#xe53;" horiz-adv-x="917" d="M86 297q29 135 111 213q76 72 172 72q127 0 123 -111q6 25 36 57q53 53 142 54q74 0 106.5 -53.5t14.5 -135.5l-82 -393h-136l84 397q16 84 -34 84q-78 0 -105 -133h-102q16 133 -62 133q-51 0 -92 -69q-31 -53 -45 -119q-14 -68 -8 -117q41 88 137 88q55 0 88 -33 q35 -39 23 -102q-29 -137 -187 -137q-113 0 -164 77.5t-20 227.5zM268 129q-4 -23 7.5 -37t33.5 -14q23 0 41.5 14t22.5 37t-8.5 38t-34.5 15q-23 0 -40.5 -15t-21.5 -38z" />
<glyph unicode="&#xe54;" horiz-adv-x="942" d="M66 291q29 139 143 213q104 70 262 69h129q139 0 231 134q45 66 60 141h123q-18 -94 -90 -197q-129 -188 -334 -188h-164q-78 0 -140.5 -50.5t-78.5 -129.5q-16 -72 14.5 -120t95.5 -48h111q-18 0 -49 37q-45 49 -29 118q12 57 57.5 97.5t110.5 40.5q59 0 91 -35t18 -94 q-10 -51 -54 -91q-33 -29 -53 -28q14 -12 55 -35q31 -10 89 -10h79l-22 -115h-410q-131 0 -200 72q-76 80 -45 219zM434 274q-6 -25 7.5 -41t37.5 -16q25 0 44.5 16t25.5 41t-7.5 41.5t-37.5 16.5q-25 0 -44.5 -16.5t-25.5 -41.5z" />
<glyph unicode="&#xe55;" horiz-adv-x="942" d="M66 291q45 213 264 266q-27 16 -36 44t-3 58q14 66 69.5 111t131.5 45q68 0 105.5 -40t20.5 -113q-8 -43 -43 -84q4 -2 13 -3q72 0 151 48q117 70 148 213h125q-20 -96 -88 -195q-125 -178 -334 -178h-164q-78 0 -140.5 -50.5t-78.5 -129.5q-16 -72 14.5 -120t95.5 -48 h111q-18 0 -49 37q-45 49 -29 118q12 57 57.5 97.5t110.5 40.5q59 0 91 -35t18 -94q-10 -51 -54 -91q-33 -29 -53 -28q14 -12 55 -35q31 -10 89 -10h79l-22 -115h-410q-131 0 -200 72q-76 80 -45 219zM383 659q-6 -31 10.5 -52t46.5 -21q31 0 57.5 21t32.5 52t-10 52.5 t-47 21.5t-57.5 -21.5t-32.5 -52.5zM434 274q-6 -25 7.5 -41t37.5 -16q25 0 44.5 16t25.5 41t-7.5 41.5t-37.5 16.5q-25 0 -44.5 -16.5t-25.5 -41.5z" />
<glyph unicode="&#xe56;" horiz-adv-x="950" d="M100 410q16 53 29 114q16 80 23 160q10 98 -46 135l117 80q16 -16 29 -35q31 -47 33 -104q4 -74 -15 -154q-4 -25 -14 -59q88 27 158 26h161q137 0 204 -77.5t42 -200.5q-25 -129 -115 -212t-204 -83h-185q-252 0 -213 184q12 61 60.5 106.5t114.5 45.5q164 0 135 -141 q-12 -55 -43 -80h125q66 0 120 49t68 125q18 80 -31 127t-131 47h-160q-96 0 -147 -53h-115zM195 182q-4 -27 10 -45t41 -18t49.5 18t26.5 45q6 27 -8.5 45.5t-41.5 18.5t-49 -18.5t-28 -45.5z" />
<glyph unicode="&#xe57;" horiz-adv-x="1126" d="M84 295q29 137 109 215q76 72 174 72q127 0 122 -111q6 25 37 57q53 53 142 54q74 0 106.5 -53.5t13.5 -135.5l-34 -168q-8 -37 -27 -75q-14 -27 -39 -44q133 0 164 152l80 373q41 197 172 280l86 -88q-90 -41 -125 -205l-76 -356q-27 -127 -129 -199q-92 -63 -211 -63 h-135l23 106q20 0 42.5 23t38.5 96l37 172q16 84 -34 84q-57 0 -105 -133h-102q16 133 -62 133q-51 0 -92 -69q-31 -53 -45 -119q-14 -68 -8 -117q39 88 137 88q55 0 89 -34.5t20 -100.5t-65.5 -104.5t-119.5 -38.5q-109 0 -159 77q-55 86 -25 232zM266 129q-4 -23 7.5 -37 t33.5 -14q23 0 41.5 14t22.5 37t-8.5 38t-34.5 15q-23 0 -40.5 -15t-21.5 -38z" />
<glyph unicode="&#xe58;" horiz-adv-x="1015" d="M90 266q66 307 399 307h129q141 0 230 74q80 68 106 246l107 -74q-37 -170 -156 -263t-276 -93h-172q-84 0 -146.5 -48t-81.5 -132q-35 -164 35 -164q2 12 43 68.5t101 95.5q57 -150 188 -179q-49 41 -35 113q12 55 62.5 99t113.5 44q72 0 107 -50t22 -113 q-20 -98 -106 -156q-78 -53 -174 -53q-68 0 -142 49q-63 43 -69 72q-53 -49 -70 -117q-129 6 -180 59q-66 66 -35 215zM649 207q-6 -27 8.5 -45.5t40.5 -18.5q27 0 49.5 18.5t28.5 45.5t-8 45t-41 18t-49.5 -18.5t-28.5 -44.5z" />
<glyph unicode="&#xe59;" horiz-adv-x="1056" d="M53 270q29 137 128.5 222.5t217.5 85.5q201 0 230 -160q37 160 127 160q23 0 62.5 -13.5t53.5 -13.5q57 0 101 209q25 115 16 125l111 -66q2 -4 -8 -49q-25 -117 -70 -209q-63 -123 -137 -123q-25 0 -52.5 14.5t-41.5 14.5q-47 0 -68 -100q-55 -252 108 -252q20 0 48 4 l-25 -119q-104 4 -125 10q-59 12 -96 64q-31 43 -64 180q-29 121 -100 184q-29 27 -80 27q-70 0 -126 -52.5t-73 -125.5q-12 -57 -2 -90q10 47 64 79q47 29 96 29q61 0 97 -41t22 -108q-16 -78 -88 -123q-63 -37 -139 -37q-104 0 -158 67q-57 74 -29 207zM264 164 q-6 -25 7.5 -41.5t37.5 -16.5q25 0 44.5 16.5t25.5 41.5q4 25 -9.5 41t-37.5 16q-25 0 -44.5 -16.5t-23.5 -40.5z" />
<glyph unicode="&#xe5a;" horiz-adv-x="1069" d="M127 666q12 66 64.5 111.5t130.5 45.5q70 0 103.5 -42t18.5 -113q-10 -43 -38 -74q86 0 172 63.5t114 161.5h135l-174 -819h-135l125 588q-14 -29 -104 -66q-104 -43 -203 -43q-98 0 -158 45q-72 51 -51 142zM225 668q-6 -27 7.5 -44.5t39.5 -17.5q27 0 48.5 17.5 t27.5 44.5t-8 44t-41 17t-47.5 -17.5t-26.5 -43.5zM737 0l174 819h136l-175 -819h-135z" />
<glyph unicode="&#xe5b;" horiz-adv-x="1499" d="M108.5 238.5q-10.5 60.5 4.5 130.5q16 70 49 130t81 105t106 71.5t124 26.5q45 0 86 -15t68.5 -43t40 -67.5t0.5 -91.5q-20 -100 -84 -163.5t-150 -63.5q-53 0 -86 37t-22 84q12 53 56 87t103 34q18 0 42 -6.5t36 -22.5l2 10q12 55 -11.5 97.5t-92.5 42.5 q-74 0 -145.5 -69t-96.5 -185q-14 -63 -4 -108.5t35.5 -74t64.5 -42t86 -13.5q117 0 202 87t118 241q6 27 9 53.5t5 54.5q31 -6 53.5 -25.5t38 -47t24.5 -59.5t13 -60l10 49q10 47 9.5 76.5t-9.5 64.5q57 -14 95.5 -65.5t46.5 -110.5q4 10 8 21.5t6 21.5q12 63 -4 109 q55 -16 85 -58.5t44 -89.5l6 33q4 20 6 33.5t0 27.5q35 -8 64 -25.5t60.5 -35.5t72.5 -33.5t100 -19.5q-29 -10 -70.5 -21.5t-70.5 -11.5q-27 0 -60.5 9t-52.5 30q-16 -82 -73 -101q-10 0 -18.5 12.5t-13.5 30t-10 38t-10 36.5q-20 -55 -46.5 -96t-57.5 -41 q-23 0 -19.5 30.5t-5.5 67.5l-12 47q-18 -76 -55 -120.5t-72 -44.5q-6 0 -11 12t-9 31.5t-7.5 42t-7.5 43.5q-23 -88 -68.5 -149.5t-102 -100.5t-117 -57.5t-111.5 -18.5q-80 0 -138.5 25.5t-92 69.5t-44 104.5zM354 655q0 -14 13 -14q12 0 12 10h-4q0 -8 -8 -8q-9 0 -9 12 t9 13q8 0 8 -9h4q0 10 -12 11q-12 0 -13 -15zM383 641h4v14h14v-14h5v29h-5v-13h-14v13h-4v-29zM408 379q-8 -45 36 -45q20 0 36 12.5t20 32.5t-6.5 33.5t-30.5 13.5t-35.5 -13.5t-19.5 -33.5zM412 641h18v4h-14v25h-4v-29zM434 641h4v12h6q10 0 11 9q0 8 -11 8h-10v-29z M438 655v13h6q6 0 7 -6q0 -6 -7 -7h-6zM469 651q0 -10 10 -10t10 8q0 6 -8 8t-8 5q0 6 6 6q4 0 4 -6h4q0 8 -8 8q-10 0 -10 -8q0 -6 8 -8.5t8 -4.5q0 -6 -6 -6t-6 8h-4zM494 641h4v12h6q10 0 10 9q0 8 -10 8h-10v-29zM498 655v13h6q6 0 6 -6t-6 -7h-6zM520 641h4v10l4 4 l9 -14h6l-13 16l11 13h-6l-11 -15v15h-4v-29z" />
<glyph unicode="&#x1ea0;" horiz-adv-x="905" d="M-98 0l577 969h180l170 -969h-182l-39 256h-387l-143 -256h-176zM229 -178q10 41 44 68.5t75 27.5t63.5 -27.5t12.5 -68.5t-43 -69.5t-74 -28.5t-64.5 28.5t-13.5 69.5zM295 385h295l-55 418h-5z" />
<glyph unicode="&#x1ea1;" d="M-4 186q23 117 119 168q61 31 196 52q76 10 152 22q68 18 80 76q20 94 -125 94q-143 0 -180 -111h-154q61 233 369 234q117 0 184 -45q76 -55 53 -158l-76 -362q-12 -53 25 -54q20 0 39 4l-25 -108q-47 -16 -98 -16q-104 0 -104 84q-102 -84 -258 -84q-102 0 -158 51 q-59 55 -39 153zM150 193q-8 -47 34 -72q37 -18 88 -19q63 0 119 31q70 37 84 103l25 116q-33 -20 -90.5 -28.5t-108.5 -14.5q-131 -20 -151 -116zM153 -178q10 41 44 68.5t75 27.5t63.5 -27.5t12.5 -68.5t-43 -69.5t-74 -28.5t-64.5 28.5t-13.5 69.5z" />
<glyph unicode="&#x1ea2;" horiz-adv-x="905" d="M-98 0l577 969h180l170 -969h-182l-39 256h-387l-143 -256h-176zM295 385h295l-55 418h-5zM457 1186q16 74 66 121t134 47q66 0 99.5 -33t23.5 -86q-6 -29 -26.5 -48.5t-44 -36.5t-43 -35.5t-25.5 -45.5h-92q10 37 29.5 60.5t39 40t36 29.5t20.5 32q4 10 -1 28.5 t-38 18.5q-39 0 -60.5 -28.5t-27.5 -63.5h-90z" />
<glyph unicode="&#x1ea3;" d="M-4 186q23 117 119 168q61 31 196 52q76 10 152 22q68 18 80 76q20 94 -125 94q-143 0 -180 -111h-154q61 233 369 234q117 0 184 -45q76 -55 53 -158l-76 -362q-12 -53 25 -54q20 0 39 4l-25 -108q-47 -16 -98 -16q-104 0 -104 84q-102 -84 -258 -84q-102 0 -158 51 q-59 55 -39 153zM150 193q-8 -47 34 -72q37 -18 88 -19q63 0 119 31q70 37 84 103l25 116q-33 -20 -90.5 -28.5t-108.5 -14.5q-131 -20 -151 -116zM326 918q16 74 66 121t134 47q66 0 99.5 -33t23.5 -86q-6 -29 -26.5 -48.5t-44 -36.5t-43 -35.5t-25.5 -45.5h-92 q10 37 29.5 60.5t39 40t36 29.5t20.5 32q4 10 -1 28.5t-38 18.5q-39 0 -60.5 -28.5t-27.5 -63.5h-90z" />
<glyph unicode="&#x1ea4;" horiz-adv-x="905" d="M-98 0l577 969h180l170 -969h-182l-39 256h-387l-143 -256h-176zM295 385h295l-55 418h-5zM371 1069l186 194h151l105 -194h-125l-70 123l-123 -123h-124zM817 1182l166 195h180l-234 -195h-112z" />
<glyph unicode="&#x1ea5;" d="M-4 186q23 117 119 168q61 31 196 52q76 10 152 22q68 18 80 76q20 94 -125 94q-143 0 -180 -111h-154q61 233 369 234q117 0 184 -45q76 -55 53 -158l-76 -362q-12 -53 25 -54q20 0 39 4l-25 -108q-47 -16 -98 -16q-104 0 -104 84q-102 -84 -258 -84q-102 0 -158 51 q-59 55 -39 153zM150 193q-8 -47 34 -72q37 -18 88 -19q63 0 119 31q70 37 84 103l25 116q-33 -20 -90.5 -28.5t-108.5 -14.5q-131 -20 -151 -116zM236 795l186 194h151l105 -194h-125l-70 123l-123 -123h-124zM680 913l166 195h180l-234 -195h-112z" />
<glyph unicode="&#x1ea6;" horiz-adv-x="905" d="M-98 0l577 969h180l170 -969h-182l-39 256h-387l-143 -256h-176zM295 385h295l-55 418h-5zM371 1069l186 194h151l105 -194h-125l-70 123l-123 -123h-124zM729 1377h181l79 -195h-110z" />
<glyph unicode="&#x1ea7;" d="M-4 186q23 117 119 168q61 31 196 52q76 10 152 22q68 18 80 76q20 94 -125 94q-143 0 -180 -111h-154q61 233 369 234q117 0 184 -45q76 -55 53 -158l-76 -362q-12 -53 25 -54q20 0 39 4l-25 -108q-47 -16 -98 -16q-104 0 -104 84q-102 -84 -258 -84q-102 0 -158 51 q-59 55 -39 153zM150 193q-8 -47 34 -72q37 -18 88 -19q63 0 119 31q70 37 84 103l25 116q-33 -20 -90.5 -28.5t-108.5 -14.5q-131 -20 -151 -116zM250 795l186 194h151l105 -194h-125l-70 123l-123 -123h-124zM600 1108h181l79 -195h-110z" />
<glyph unicode="&#x1ea8;" horiz-adv-x="905" d="M-98 0l577 969h180l170 -969h-182l-39 256h-387l-143 -256h-176zM295 385h295l-55 418h-5zM385 1069l186 194h151l105 -194h-125l-70 123l-123 -123h-124zM764 1299q16 74 66 121t134 47q66 0 99.5 -33t23.5 -86q-6 -29 -26.5 -48.5t-44 -36.5t-43 -35.5t-25.5 -45.5h-92 q10 37 29.5 60.5t39 40t36 29.5t20.5 32q4 10 -1 28.5t-38 18.5q-39 0 -60.5 -28.5t-27.5 -63.5h-90z" />
<glyph unicode="&#x1ea9;" d="M-4 186q23 117 119 168q61 31 196 52q76 10 152 22q68 18 80 76q20 94 -125 94q-143 0 -180 -111h-154q61 233 369 234q117 0 184 -45q76 -55 53 -158l-76 -362q-12 -53 25 -54q20 0 39 4l-25 -108q-47 -16 -98 -16q-104 0 -104 84q-102 -84 -258 -84q-102 0 -158 51 q-59 55 -39 153zM150 193q-8 -47 34 -72q37 -18 88 -19q63 0 119 31q70 37 84 103l25 116q-33 -20 -90.5 -28.5t-108.5 -14.5q-131 -20 -151 -116zM250 795l186 194h151l105 -194h-125l-70 123l-123 -123h-124zM623 1030q16 74 66 121t134 47q66 0 99.5 -33t23.5 -86 q-6 -29 -26.5 -48.5t-44 -36.5t-43 -35.5t-25.5 -45.5h-92q10 37 29.5 60.5t39 40t36 29.5t20.5 32q4 10 -1 28.5t-38 18.5q-39 0 -60.5 -28.5t-27.5 -63.5h-90z" />
<glyph unicode="&#x1eaa;" horiz-adv-x="905" d="M-98 0l577 969h180l170 -969h-182l-39 256h-387l-143 -256h-176zM295 385h295l-55 418h-5zM367 1069l186 194h151l105 -194h-125l-70 123l-123 -123h-124zM406 1329q8 27 25.5 53.5t40 49t50 36.5t58.5 14t56.5 -8t47 -17t41 -17.5t37.5 -8.5q29 0 47.5 16.5t32.5 43.5 h76q-23 -66 -68 -111t-115 -45q-23 0 -46 8t-47.5 17.5t-47 17.5t-41.5 8q-25 0 -45 -18.5t-24 -38.5h-78z" />
<glyph unicode="&#x1eab;" d="M-4 186q23 117 119 168q61 31 196 52q76 10 152 22q68 18 80 76q20 94 -125 94q-143 0 -180 -111h-154q61 233 369 234q117 0 184 -45q76 -55 53 -158l-76 -362q-12 -53 25 -54q20 0 39 4l-25 -108q-47 -16 -98 -16q-104 0 -104 84q-102 -84 -258 -84q-102 0 -158 51 q-59 55 -39 153zM150 193q-8 -47 34 -72q37 -18 88 -19q63 0 119 31q70 37 84 103l25 116q-33 -20 -90.5 -28.5t-108.5 -14.5q-131 -20 -151 -116zM236 795l186 194h151l105 -194h-125l-70 123l-123 -123h-124zM275 1057q8 27 25.5 53.5t40 49t50 36.5t58.5 14t56.5 -8 t47 -17t41 -17.5t37.5 -8.5q29 0 47.5 16.5t32.5 43.5h76q-23 -66 -68 -111t-115 -45q-23 0 -46 8t-47.5 17.5t-47 17.5t-41.5 8q-25 0 -45 -18.5t-24 -38.5h-78z" />
<glyph unicode="&#x1eac;" horiz-adv-x="905" d="M-98 0l577 969h180l170 -969h-182l-39 256h-387l-143 -256h-176zM229 -178q10 41 44 68.5t75 27.5t63.5 -27.5t12.5 -68.5t-43 -69.5t-74 -28.5t-64.5 28.5t-13.5 69.5zM295 385h295l-55 418h-5zM367 1069l186 194h151l105 -194h-125l-70 123l-123 -123h-124z" />
<glyph unicode="&#x1ead;" d="M-4 186q23 117 119 168q61 31 196 52q76 10 152 22q68 18 80 76q20 94 -125 94q-143 0 -180 -111h-154q61 233 369 234q117 0 184 -45q76 -55 53 -158l-76 -362q-12 -53 25 -54q20 0 39 4l-25 -108q-47 -16 -98 -16q-104 0 -104 84q-102 -84 -258 -84q-102 0 -158 51 q-59 55 -39 153zM150 193q-8 -47 34 -72q37 -18 88 -19q63 0 119 31q70 37 84 103l25 116q-33 -20 -90.5 -28.5t-108.5 -14.5q-131 -20 -151 -116zM153 -178q10 41 44 68.5t75 27.5t63.5 -27.5t12.5 -68.5t-43 -69.5t-74 -28.5t-64.5 28.5t-13.5 69.5zM236 795l186 194h151 l105 -194h-125l-70 123l-123 -123h-124z" />
<glyph unicode="&#x1eae;" horiz-adv-x="905" d="M-98 0l577 969h180l170 -969h-182l-39 256h-387l-143 -256h-176zM295 385h295l-55 418h-5zM413 1266h78q0 -57 35 -81t88 -24t95 26t65 79h78q-31 -98 -101.5 -145.5t-164.5 -47.5t-139.5 49.5t-33.5 143.5zM574 1278l166 195h180l-234 -195h-112z" />
<glyph unicode="&#x1eaf;" d="M-4 186q23 117 119 168q61 31 196 52q76 10 152 22q68 18 80 76q20 94 -125 94q-143 0 -180 -111h-154q61 233 369 234q117 0 184 -45q76 -55 53 -158l-76 -362q-12 -53 25 -54q20 0 39 4l-25 -108q-47 -16 -98 -16q-104 0 -104 84q-102 -84 -258 -84q-102 0 -158 51 q-59 55 -39 153zM150 193q-8 -47 34 -72q37 -18 88 -19q63 0 119 31q70 37 84 103l25 116q-33 -20 -90.5 -28.5t-108.5 -14.5q-131 -20 -151 -116zM258 979h78q0 -57 35 -81t88 -24t95 26t65 79h78q-31 -98 -101.5 -145.5t-164.5 -47.5t-139.5 49.5t-33.5 143.5zM408 985 l166 195h180l-234 -195h-112z" />
<glyph unicode="&#x1eb0;" horiz-adv-x="905" d="M-98 0l577 969h180l170 -969h-182l-39 256h-387l-143 -256h-176zM295 385h295l-55 418h-5zM413 1266h78q0 -57 35 -81t88 -24t95 26t65 79h78q-31 -98 -101.5 -145.5t-164.5 -47.5t-139.5 49.5t-33.5 143.5zM456 1473h181l79 -195h-110z" />
<glyph unicode="&#x1eb1;" d="M-4 186q23 117 119 168q61 31 196 52q76 10 152 22q68 18 80 76q20 94 -125 94q-143 0 -180 -111h-154q61 233 369 234q117 0 184 -45q76 -55 53 -158l-76 -362q-12 -53 25 -54q20 0 39 4l-25 -108q-47 -16 -98 -16q-104 0 -104 84q-102 -84 -258 -84q-102 0 -158 51 q-59 55 -39 153zM150 193q-8 -47 34 -72q37 -18 88 -19q63 0 119 31q70 37 84 103l25 116q-33 -20 -90.5 -28.5t-108.5 -14.5q-131 -20 -151 -116zM258 979h78q0 -57 35 -81t88 -24t95 26t65 79h78q-31 -98 -101.5 -145.5t-164.5 -47.5t-139.5 49.5t-33.5 143.5zM290 1180 h181l79 -195h-110z" />
<glyph unicode="&#x1eb2;" horiz-adv-x="905" d="M-98 0l577 969h180l170 -969h-182l-39 256h-387l-143 -256h-176zM295 385h295l-55 418h-5zM413 1266h78q0 -57 35 -81t88 -24t95 26t65 79h78q-31 -98 -101.5 -145.5t-164.5 -47.5t-139.5 49.5t-33.5 143.5zM490 1383q16 74 66 121t134 47q66 0 99.5 -33t23.5 -86 q-6 -29 -26.5 -48.5t-44 -36.5t-43 -35.5t-25.5 -45.5h-92q10 37 29.5 60.5t39 40t36 29.5t20.5 32q4 10 -1 28.5t-38 18.5q-39 0 -60.5 -28.5t-27.5 -63.5h-90z" />
<glyph unicode="&#x1eb3;" d="M-4 186q23 117 119 168q61 31 196 52q76 10 152 22q68 18 80 76q20 94 -125 94q-143 0 -180 -111h-154q61 233 369 234q117 0 184 -45q76 -55 53 -158l-76 -362q-12 -53 25 -54q20 0 39 4l-25 -108q-47 -16 -98 -16q-104 0 -104 84q-102 -84 -258 -84q-102 0 -158 51 q-59 55 -39 153zM150 193q-8 -47 34 -72q37 -18 88 -19q63 0 119 31q70 37 84 103l25 116q-33 -20 -90.5 -28.5t-108.5 -14.5q-131 -20 -151 -116zM258 979h78q0 -57 35 -81t88 -24t95 26t65 79h78q-31 -98 -101.5 -145.5t-164.5 -47.5t-139.5 49.5t-33.5 143.5zM340 1102 q16 74 66 121t134 47q66 0 99.5 -33t23.5 -86q-6 -29 -26.5 -48.5t-44 -36.5t-43 -35.5t-25.5 -45.5h-92q10 37 29.5 60.5t39 40t36 29.5t20.5 32q4 10 -1 28.5t-38 18.5q-39 0 -60.5 -28.5t-27.5 -63.5h-90z" />
<glyph unicode="&#x1eb4;" horiz-adv-x="905" d="M-98 0l577 969h180l170 -969h-182l-39 256h-387l-143 -256h-176zM295 385h295l-55 418h-5zM385 1331q8 27 25.5 53.5t40 49t50 36.5t58.5 14t56.5 -8t47 -17t41 -17.5t37.5 -8.5q29 0 47.5 16.5t32.5 43.5h76q-23 -66 -68 -111t-115 -45q-23 0 -46 8t-47.5 17.5t-47 17.5 t-41.5 8q-25 0 -45 -18.5t-24 -38.5h-78zM413 1266h78q0 -57 35 -81t88 -24t95 26t65 79h78q-31 -98 -101.5 -145.5t-164.5 -47.5t-139.5 49.5t-33.5 143.5z" />
<glyph unicode="&#x1eb5;" d="M-4 186q23 117 119 168q61 31 196 52q76 10 152 22q68 18 80 76q20 94 -125 94q-143 0 -180 -111h-154q61 233 369 234q117 0 184 -45q76 -55 53 -158l-76 -362q-12 -53 25 -54q20 0 39 4l-25 -108q-47 -16 -98 -16q-104 0 -104 84q-102 -84 -258 -84q-102 0 -158 51 q-59 55 -39 153zM150 193q-8 -47 34 -72q37 -18 88 -19q63 0 119 31q70 37 84 103l25 116q-33 -20 -90.5 -28.5t-108.5 -14.5q-131 -20 -151 -116zM258 979h78q0 -57 35 -81t88 -24t95 26t65 79h78q-31 -98 -101.5 -145.5t-164.5 -47.5t-139.5 49.5t-33.5 143.5zM275 1057 q8 27 25.5 53.5t40 49t50 36.5t58.5 14t56.5 -8t47 -17t41 -17.5t37.5 -8.5q29 0 47.5 16.5t32.5 43.5h76q-23 -66 -68 -111t-115 -45q-23 0 -46 8t-47.5 17.5t-47 17.5t-41.5 8q-25 0 -45 -18.5t-24 -38.5h-78z" />
<glyph unicode="&#x1eb6;" horiz-adv-x="905" d="M-98 0l577 969h180l170 -969h-182l-39 256h-387l-143 -256h-176zM229 -178q10 41 44 68.5t75 27.5t63.5 -27.5t12.5 -68.5t-43 -69.5t-74 -28.5t-64.5 28.5t-13.5 69.5zM295 385h295l-55 418h-5zM413 1266h78q0 -57 35 -81t88 -24t95 26t65 79h78q-31 -98 -101.5 -145.5 t-164.5 -47.5t-139.5 49.5t-33.5 143.5z" />
<glyph unicode="&#x1eb7;" d="M-4 186q23 117 119 168q61 31 196 52q76 10 152 22q68 18 80 76q20 94 -125 94q-143 0 -180 -111h-154q61 233 369 234q117 0 184 -45q76 -55 53 -158l-76 -362q-12 -53 25 -54q20 0 39 4l-25 -108q-47 -16 -98 -16q-104 0 -104 84q-102 -84 -258 -84q-102 0 -158 51 q-59 55 -39 153zM150 193q-8 -47 34 -72q37 -18 88 -19q63 0 119 31q70 37 84 103l25 116q-33 -20 -90.5 -28.5t-108.5 -14.5q-131 -20 -151 -116zM153 -178q10 41 44 68.5t75 27.5t63.5 -27.5t12.5 -68.5t-43 -69.5t-74 -28.5t-64.5 28.5t-13.5 69.5zM258 979h78 q0 -57 35 -81t88 -24t95 26t65 79h78q-31 -98 -101.5 -145.5t-164.5 -47.5t-139.5 49.5t-33.5 143.5z" />
<glyph unicode="&#x1eb8;" horiz-adv-x="856" d="M14 0l205 969h699l-31 -146h-529l-53 -254h490l-31 -139h-490l-59 -283h539l-31 -147h-709zM205 -178q10 41 44 68.5t75 27.5t63.5 -27.5t12.5 -68.5t-43 -69.5t-74 -28.5t-64.5 28.5t-13.5 69.5z" />
<glyph unicode="&#x1eb9;" d="M33 350q33 156 149.5 263.5t268.5 107.5q147 0 221 -109q68 -102 37 -252q-6 -25 -13 -49h-516q-20 -90 15 -145q37 -63 129 -64q129 0 194 117h148q-47 -113 -147.5 -175t-219.5 -62q-162 0 -233 104q-66 98 -33 264zM153 -178q10 41 44 68.5t75 27.5t63.5 -27.5 t12.5 -68.5t-43 -69.5t-74 -28.5t-64.5 28.5t-13.5 69.5zM201 414h360q12 76 -23.5 130t-111.5 54q-78 0 -140.5 -52t-84.5 -132z" />
<glyph unicode="&#x1eba;" horiz-adv-x="856" d="M14 0l205 969h699l-31 -146h-529l-53 -254h490l-31 -139h-490l-59 -283h539l-31 -147h-709zM449 1186q16 74 66 121t134 47q66 0 99.5 -33t23.5 -86q-6 -29 -26.5 -48.5t-44 -36.5t-43 -35.5t-25.5 -45.5h-92q10 37 29.5 60.5t39 40t36 29.5t20.5 32q4 10 -1 28.5 t-38 18.5q-39 0 -60.5 -28.5t-27.5 -63.5h-90z" />
<glyph unicode="&#x1ebb;" d="M33 350q33 156 149.5 263.5t268.5 107.5q147 0 221 -109q68 -102 37 -252q-6 -25 -13 -49h-516q-20 -90 15 -145q37 -63 129 -64q129 0 194 117h148q-47 -113 -147.5 -175t-219.5 -62q-162 0 -233 104q-66 98 -33 264zM201 414h360q12 76 -23.5 130t-111.5 54 q-78 0 -140.5 -52t-84.5 -132zM328 926q16 74 66 121t134 47q66 0 99.5 -33t23.5 -86q-6 -29 -26.5 -48.5t-44 -36.5t-43 -35.5t-25.5 -45.5h-92q10 37 29.5 60.5t39 40t36 29.5t20.5 32q4 10 -1 28.5t-38 18.5q-39 0 -60.5 -28.5t-27.5 -63.5h-90z" />
<glyph unicode="&#x1ebc;" horiz-adv-x="856" d="M14 0l205 969h699l-31 -146h-529l-53 -254h490l-31 -139h-490l-59 -283h539l-31 -147h-709zM355 1057q8 27 25.5 53.5t40 49t50 36.5t58.5 14t56.5 -8t47 -17t41 -17.5t37.5 -8.5q29 0 47.5 16.5t32.5 43.5h76q-23 -66 -68 -111t-115 -45q-23 0 -46 8t-47.5 17.5 t-47 17.5t-41.5 8q-25 0 -45 -18.5t-24 -38.5h-78z" />
<glyph unicode="&#x1ebd;" d="M33 350q33 156 149.5 263.5t268.5 107.5q147 0 221 -109q68 -102 37 -252q-6 -25 -13 -49h-516q-20 -90 15 -145q37 -63 129 -64q129 0 194 117h148q-47 -113 -147.5 -175t-219.5 -62q-162 0 -233 104q-66 98 -33 264zM201 414h360q12 76 -23.5 130t-111.5 54 q-78 0 -140.5 -52t-84.5 -132zM275 789q8 27 25.5 53.5t40 49t50 36.5t58.5 14t56.5 -8t47 -17t41 -17.5t37.5 -8.5q29 0 47.5 16.5t32.5 43.5h76q-23 -66 -68 -111t-115 -45q-23 0 -46 8t-47.5 17.5t-47 17.5t-41.5 8q-25 0 -45 -18.5t-24 -38.5h-78z" />
<glyph unicode="&#x1ebe;" horiz-adv-x="856" d="M14 0l205 969h699l-31 -146h-529l-53 -254h490l-31 -139h-490l-59 -283h539l-31 -147h-709zM371 1069l186 194h151l105 -194h-125l-70 123l-123 -123h-124zM817 1182l166 195h180l-234 -195h-112z" />
<glyph unicode="&#x1ebf;" d="M33 350q33 156 149.5 263.5t268.5 107.5q147 0 221 -109q68 -102 37 -252q-6 -25 -13 -49h-516q-20 -90 15 -145q37 -63 129 -64q129 0 194 117h148q-47 -113 -147.5 -175t-219.5 -62q-162 0 -233 104q-66 98 -33 264zM201 414h360q12 76 -23.5 130t-111.5 54 q-78 0 -140.5 -52t-84.5 -132zM244 795l186 194h151l105 -194h-125l-70 123l-123 -123h-124zM688 913l166 195h180l-234 -195h-112z" />
<glyph unicode="&#x1ec0;" horiz-adv-x="856" d="M14 0l205 969h699l-31 -146h-529l-53 -254h490l-31 -139h-490l-59 -283h539l-31 -147h-709zM371 1069l186 194h151l105 -194h-125l-70 123l-123 -123h-124zM731 1377h181l79 -195h-110z" />
<glyph unicode="&#x1ec1;" d="M33 350q33 156 149.5 263.5t268.5 107.5q147 0 221 -109q68 -102 37 -252q-6 -25 -13 -49h-516q-20 -90 15 -145q37 -63 129 -64q129 0 194 117h148q-47 -113 -147.5 -175t-219.5 -62q-162 0 -233 104q-66 98 -33 264zM201 414h360q12 76 -23.5 130t-111.5 54 q-78 0 -140.5 -52t-84.5 -132zM244 795l186 194h151l105 -194h-125l-70 123l-123 -123h-124zM600 1108h181l79 -195h-110z" />
<glyph unicode="&#x1ec2;" horiz-adv-x="856" d="M14 0l205 969h699l-31 -146h-529l-53 -254h490l-31 -139h-490l-59 -283h539l-31 -147h-709zM385 1069l186 194h151l105 -194h-125l-70 123l-123 -123h-124zM764 1299q16 74 66 121t134 47q66 0 99.5 -33t23.5 -86q-6 -29 -26.5 -48.5t-44 -36.5t-43 -35.5t-25.5 -45.5 h-92q10 37 29.5 60.5t39 40t36 29.5t20.5 32q4 10 -1 28.5t-38 18.5q-39 0 -60.5 -28.5t-27.5 -63.5h-90z" />
<glyph unicode="&#x1ec3;" d="M33 350q33 156 149.5 263.5t268.5 107.5q147 0 221 -109q68 -102 37 -252q-6 -25 -13 -49h-516q-20 -90 15 -145q37 -63 129 -64q129 0 194 117h148q-47 -113 -147.5 -175t-219.5 -62q-162 0 -233 104q-66 98 -33 264zM201 414h360q12 76 -23.5 130t-111.5 54 q-78 0 -140.5 -52t-84.5 -132zM244 795l186 194h151l105 -194h-125l-70 123l-123 -123h-124zM592 1030q16 74 66 121t134 47q66 0 99.5 -33t23.5 -86q-6 -29 -26.5 -48.5t-44 -36.5t-43 -35.5t-25.5 -45.5h-92q10 37 29.5 60.5t39 40t36 29.5t20.5 32q4 10 -1 28.5t-38 18.5 q-39 0 -60.5 -28.5t-27.5 -63.5h-90z" />
<glyph unicode="&#x1ec4;" horiz-adv-x="856" d="M14 0l205 969h699l-31 -146h-529l-53 -254h490l-31 -139h-490l-59 -283h539l-31 -147h-709zM371 1069l186 194h151l105 -194h-125l-70 123l-123 -123h-124zM410 1331q8 27 25.5 53.5t40 49t50 36.5t58.5 14t56.5 -8t47 -17t41 -17.5t37.5 -8.5q29 0 47.5 16.5t32.5 43.5 h76q-23 -66 -68 -111t-115 -45q-23 0 -46 8t-47.5 17.5t-47 17.5t-41.5 8q-25 0 -45 -18.5t-24 -38.5h-78z" />
<glyph unicode="&#x1ec5;" d="M33 350q33 156 149.5 263.5t268.5 107.5q147 0 221 -109q68 -102 37 -252q-6 -25 -13 -49h-516q-20 -90 15 -145q37 -63 129 -64q129 0 194 117h148q-47 -113 -147.5 -175t-219.5 -62q-162 0 -233 104q-66 98 -33 264zM201 414h360q12 76 -23.5 130t-111.5 54 q-78 0 -140.5 -52t-84.5 -132zM244 795l186 194h151l105 -194h-125l-70 123l-123 -123h-124zM287 1057q8 27 25.5 53.5t40 49t50 36.5t58.5 14t56.5 -8t47 -17t41 -17.5t37.5 -8.5q29 0 47.5 16.5t32.5 43.5h76q-23 -66 -68 -111t-115 -45q-23 0 -46 8t-47.5 17.5t-47 17.5 t-41.5 8q-25 0 -45 -18.5t-24 -38.5h-78z" />
<glyph unicode="&#x1ec6;" horiz-adv-x="856" d="M14 0l205 969h699l-31 -146h-529l-53 -254h490l-31 -139h-490l-59 -283h539l-31 -147h-709zM250 -178q10 41 44 68.5t75 27.5t63.5 -27.5t12.5 -68.5t-43 -69.5t-74 -28.5t-64.5 28.5t-13.5 69.5zM371 1069l186 194h151l105 -194h-125l-70 123l-123 -123h-124z" />
<glyph unicode="&#x1ec7;" d="M33 350q33 156 149.5 263.5t268.5 107.5q147 0 221 -109q68 -102 37 -252q-6 -25 -13 -49h-516q-20 -90 15 -145q37 -63 129 -64q129 0 194 117h148q-47 -113 -147.5 -175t-219.5 -62q-162 0 -233 104q-66 98 -33 264zM153 -178q10 41 44 68.5t75 27.5t63.5 -27.5 t12.5 -68.5t-43 -69.5t-74 -28.5t-64.5 28.5t-13.5 69.5zM201 414h360q12 76 -23.5 130t-111.5 54q-78 0 -140.5 -52t-84.5 -132zM244 795l186 194h151l105 -194h-125l-70 123l-123 -123h-124z" />
<glyph unicode="&#x1ec8;" horiz-adv-x="376" d="M16 0l205 969h170l-205 -969h-170zM197 1186q16 74 66 121t134 47q66 0 99.5 -33t23.5 -86q-6 -29 -26.5 -48.5t-44 -36.5t-43 -35.5t-25.5 -45.5h-92q10 37 29.5 60.5t39 40t36 29.5t20.5 32q4 10 -1 28.5t-38 18.5q-39 0 -60.5 -28.5t-27.5 -63.5h-90z" />
<glyph unicode="&#x1ec9;" horiz-adv-x="327" d="M0 0l147 702h154l-147 -702h-154zM113 889q16 72 64.5 116t127.5 44q61 0 93 -32t22 -81q-6 -27 -25.5 -45.5t-41 -34.5t-40 -34.5t-24.5 -43.5h-88q8 37 27.5 58.5t39 37t35 27.5t19.5 31q4 10 -1 27.5t-38 17.5q-37 0 -57.5 -27.5t-26.5 -60.5h-86z" />
<glyph unicode="&#x1eca;" horiz-adv-x="376" d="M-35 -178q10 41 44 68.5t75 27.5t63.5 -27.5t12.5 -68.5t-43 -69.5t-74 -28.5t-64.5 28.5t-13.5 69.5zM16 0l205 969h170l-205 -969h-170z" />
<glyph unicode="&#x1ecb;" horiz-adv-x="327" d="M-60 -178q10 41 44 68.5t75 27.5t63.5 -27.5t12.5 -68.5t-43 -69.5t-74 -28.5t-64.5 28.5t-13.5 69.5zM0 0l147 702h154l-147 -702h-154zM164 895q10 43 46 71.5t79 28.5t65.5 -28.5t12.5 -71.5t-44 -72.5t-77 -29.5t-67.5 29.5t-14.5 72.5z" />
<glyph unicode="&#x1ecc;" horiz-adv-x="1032" d="M66 485q45 215 198 359q164 150 375 149q211 0 309 -149q92 -144 47 -359t-198 -358q-164 -150 -375 -150t-309 150q-92 143 -47 358zM236 485q-33 -154 14 -256q55 -115 201 -114q145 0 249 114q92 102 125 256t-16 254q-55 115 -201 115q-145 0 -250 -115 q-90 -100 -122 -254zM293 -178q10 41 44 68.5t75 27.5t63.5 -27.5t12.5 -68.5t-43 -69.5t-74 -28.5t-64.5 28.5t-13.5 69.5z" />
<glyph unicode="&#x1ecd;" horiz-adv-x="804" d="M35 352q35 164 150.5 266.5t281.5 102.5t238.5 -102.5t37.5 -266.5q-35 -166 -151 -268q-115 -102 -281 -102t-238.5 102t-37.5 268zM178 -178q10 41 44 68.5t75 27.5t63.5 -27.5t12.5 -68.5t-43 -69.5t-74 -28.5t-64.5 28.5t-13.5 69.5zM188 352q-23 -102 13 -170 q37 -80 135 -80t168 80q61 68 84 170q20 100 -13 168q-35 78 -133 78t-170 -78q-63 -68 -84 -168z" />
<glyph unicode="&#x1ece;" horiz-adv-x="1032" d="M66 485q45 215 198 359q164 150 375 149q211 0 309 -149q92 -144 47 -359t-198 -358q-164 -150 -375 -150t-309 150q-92 143 -47 358zM236 485q-33 -154 14 -256q55 -115 201 -114q145 0 249 114q92 102 125 256t-16 254q-55 115 -201 115q-145 0 -250 -115 q-90 -100 -122 -254zM525 1186q16 74 66 121t134 47q66 0 99.5 -33t23.5 -86q-6 -29 -26.5 -48.5t-44 -36.5t-43 -35.5t-25.5 -45.5h-92q10 37 29.5 60.5t39 40t36 29.5t20.5 32q4 10 -1 28.5t-38 18.5q-39 0 -60.5 -28.5t-27.5 -63.5h-90z" />
<glyph unicode="&#x1ecf;" horiz-adv-x="804" d="M35 352q35 164 150.5 266.5t281.5 102.5t238.5 -102.5t37.5 -266.5q-35 -166 -151 -268q-115 -102 -281 -102t-238.5 102t-37.5 268zM188 352q-23 -102 13 -170q37 -80 135 -80t168 80q61 68 84 170q20 100 -13 168q-35 78 -133 78t-170 -78q-63 -68 -84 -168zM348 905 q16 74 66 121t134 47q66 0 99.5 -33t23.5 -86q-6 -29 -26.5 -48.5t-44 -36.5t-43 -35.5t-25.5 -45.5h-92q10 37 29.5 60.5t39 40t36 29.5t20.5 32q4 10 -1 28.5t-38 18.5q-39 0 -60.5 -28.5t-27.5 -63.5h-90z" />
<glyph unicode="&#x1ed0;" horiz-adv-x="1032" d="M66 485q45 215 198 359q164 150 375 149q211 0 309 -149q92 -144 47 -359t-198 -358q-164 -150 -375 -150t-309 150q-92 143 -47 358zM236 485q-33 -154 14 -256q55 -115 201 -114q145 0 249 114q92 102 125 256t-16 254q-55 115 -201 115q-145 0 -250 -115 q-90 -100 -122 -254zM435 1069l186 194h151l105 -194h-125l-70 123l-123 -123h-124zM879 1182l166 195h180l-234 -195h-112z" />
<glyph unicode="&#x1ed1;" horiz-adv-x="804" d="M35 352q35 164 150.5 266.5t281.5 102.5t238.5 -102.5t37.5 -266.5q-35 -166 -151 -268q-115 -102 -281 -102t-238.5 102t-37.5 268zM188 352q-23 -102 13 -170q37 -80 135 -80t168 80q61 68 84 170q20 100 -13 168q-35 78 -133 78t-170 -78q-63 -68 -84 -168zM261 795 l186 194h151l105 -194h-125l-70 123l-123 -123h-124zM705 913l166 195h180l-234 -195h-112z" />
<glyph unicode="&#x1ed2;" horiz-adv-x="1032" d="M66 485q45 215 198 359q164 150 375 149q211 0 309 -149q92 -144 47 -359t-198 -358q-164 -150 -375 -150t-309 150q-92 143 -47 358zM236 485q-33 -154 14 -256q55 -115 201 -114q145 0 249 114q92 102 125 256t-16 254q-55 115 -201 115q-145 0 -250 -115 q-90 -100 -122 -254zM435 1069l186 194h151l105 -194h-125l-70 123l-123 -123h-124zM794 1377h181l79 -195h-110z" />
<glyph unicode="&#x1ed3;" horiz-adv-x="804" d="M35 352q35 164 150.5 266.5t281.5 102.5t238.5 -102.5t37.5 -266.5q-35 -166 -151 -268q-115 -102 -281 -102t-238.5 102t-37.5 268zM188 352q-23 -102 13 -170q37 -80 135 -80t168 80q61 68 84 170q20 100 -13 168q-35 78 -133 78t-170 -78q-63 -68 -84 -168zM261 795 l186 194h151l105 -194h-125l-70 123l-123 -123h-124zM610 1108h181l79 -195h-110z" />
<glyph unicode="&#x1ed4;" horiz-adv-x="1032" d="M66 485q45 215 198 359q164 150 375 149q211 0 309 -149q92 -144 47 -359t-198 -358q-164 -150 -375 -150t-309 150q-92 143 -47 358zM236 485q-33 -154 14 -256q55 -115 201 -114q145 0 249 114q92 102 125 256t-16 254q-55 115 -201 115q-145 0 -250 -115 q-90 -100 -122 -254zM435 1069l186 194h151l105 -194h-125l-70 123l-123 -123h-124zM815 1299q16 74 66 121t134 47q66 0 99.5 -33t23.5 -86q-6 -29 -26.5 -48.5t-44 -36.5t-43 -35.5t-25.5 -45.5h-92q10 37 29.5 60.5t39 40t36 29.5t20.5 32q4 10 -1 28.5t-38 18.5 q-39 0 -60.5 -28.5t-27.5 -63.5h-90z" />
<glyph unicode="&#x1ed5;" horiz-adv-x="804" d="M35 352q35 164 150.5 266.5t281.5 102.5t238.5 -102.5t37.5 -266.5q-35 -166 -151 -268q-115 -102 -281 -102t-238.5 102t-37.5 268zM188 352q-23 -102 13 -170q37 -80 135 -80t168 80q61 68 84 170q20 100 -13 168q-35 78 -133 78t-170 -78q-63 -68 -84 -168zM261 795 l186 194h151l105 -194h-125l-70 123l-123 -123h-124zM633 1030q16 74 66 121t134 47q66 0 99.5 -33t23.5 -86q-6 -29 -26.5 -48.5t-44 -36.5t-43 -35.5t-25.5 -45.5h-92q10 37 29.5 60.5t39 40t36 29.5t20.5 32q4 10 -1 28.5t-38 18.5q-39 0 -60.5 -28.5t-27.5 -63.5h-90z " />
<glyph unicode="&#x1ed6;" horiz-adv-x="1032" d="M66 485q45 215 198 359q164 150 375 149q211 0 309 -149q92 -144 47 -359t-198 -358q-164 -150 -375 -150t-309 150q-92 143 -47 358zM236 485q-33 -154 14 -256q55 -115 201 -114q145 0 249 114q92 102 125 256t-16 254q-55 115 -201 115q-145 0 -250 -115 q-90 -100 -122 -254zM433 1069l186 194h151l105 -194h-125l-70 123l-123 -123h-124zM471 1329q8 27 25.5 53.5t40 49t50 36.5t58.5 14t56.5 -8t47 -17t41 -17.5t37.5 -8.5q29 0 47.5 16.5t32.5 43.5h76q-23 -66 -68 -111t-115 -45q-23 0 -46 8t-47.5 17.5t-47 17.5t-41.5 8 q-25 0 -45 -18.5t-24 -38.5h-78z" />
<glyph unicode="&#x1ed7;" horiz-adv-x="804" d="M35 352q35 164 150.5 266.5t281.5 102.5t238.5 -102.5t37.5 -266.5q-35 -166 -151 -268q-115 -102 -281 -102t-238.5 102t-37.5 268zM188 352q-23 -102 13 -170q37 -80 135 -80t168 80q61 68 84 170q20 100 -13 168q-35 78 -133 78t-170 -78q-63 -68 -84 -168zM261 795 l186 194h151l105 -194h-125l-70 123l-123 -123h-124zM299 1057q8 27 25.5 53.5t40 49t50 36.5t58.5 14t56.5 -8t47 -17t41 -17.5t37.5 -8.5q29 0 47.5 16.5t32.5 43.5h76q-23 -66 -68 -111t-115 -45q-23 0 -46 8t-47.5 17.5t-47 17.5t-41.5 8q-25 0 -45 -18.5t-24 -38.5h-78 z" />
<glyph unicode="&#x1ed8;" horiz-adv-x="1032" d="M66 485q45 215 198 359q164 150 375 149q211 0 309 -149q92 -144 47 -359t-198 -358q-164 -150 -375 -150t-309 150q-92 143 -47 358zM236 485q-33 -154 14 -256q55 -115 201 -114q145 0 249 114q92 102 125 256t-16 254q-55 115 -201 115q-145 0 -250 -115 q-90 -100 -122 -254zM293 -178q10 41 44 68.5t75 27.5t63.5 -27.5t12.5 -68.5t-43 -69.5t-74 -28.5t-64.5 28.5t-13.5 69.5zM435 1069l186 194h151l105 -194h-125l-70 123l-123 -123h-124z" />
<glyph unicode="&#x1ed9;" horiz-adv-x="804" d="M35 352q35 164 150.5 266.5t281.5 102.5t238.5 -102.5t37.5 -266.5q-35 -166 -151 -268q-115 -102 -281 -102t-238.5 102t-37.5 268zM178 -178q10 41 44 68.5t75 27.5t63.5 -27.5t12.5 -68.5t-43 -69.5t-74 -28.5t-64.5 28.5t-13.5 69.5zM188 352q-23 -102 13 -170 q37 -80 135 -80t168 80q61 68 84 170q20 100 -13 168q-35 78 -133 78t-170 -78q-63 -68 -84 -168zM261 795l186 194h151l105 -194h-125l-70 123l-123 -123h-124z" />
<glyph unicode="&#x1eda;" horiz-adv-x="1032" d="M66 485q45 215 198 359q164 150 375 149q174 0 272 -102q27 23 42.5 60.5t23.5 72.5h158q-6 -33 -23.5 -66.5t-39 -66.5t-46.5 -60.5t-47 -46.5q53 -127 16 -299q-45 -215 -198 -358q-164 -150 -375 -150t-309 150q-92 143 -47 358zM236 485q-33 -154 14 -256 q55 -115 201 -114q145 0 249 114q92 102 125 256t-16 254q-55 115 -201 115q-145 0 -250 -115q-90 -100 -122 -254zM524 1069l164 194h182l-233 -194h-113z" />
<glyph unicode="&#x1edb;" d="M35 352q35 164 150.5 266.5t281.5 102.5q164 0 229 -98q23 23 38.5 66.5t21.5 76.5h147q-14 -66 -62 -134.5t-96 -107.5q18 -76 -2 -172q-35 -166 -151 -268q-115 -102 -281 -102t-238.5 102t-37.5 268zM188 352q-23 -102 13 -170q37 -80 135 -80t168 80q61 68 84 170 q20 100 -13 168q-35 78 -133 78t-170 -78q-63 -68 -84 -168zM399 795l164 194h182l-233 -194h-113z" />
<glyph unicode="&#x1edc;" horiz-adv-x="1032" d="M66 485q45 215 198 359q164 150 375 149q174 0 272 -102q27 23 42.5 60.5t23.5 72.5h158q-6 -33 -23.5 -66.5t-39 -66.5t-46.5 -60.5t-47 -46.5q53 -127 16 -299q-45 -215 -198 -358q-164 -150 -375 -150t-309 150q-92 143 -47 358zM236 485q-33 -154 14 -256 q55 -115 201 -114q145 0 249 114q92 102 125 256t-16 254q-55 115 -201 115q-145 0 -250 -115q-90 -100 -122 -254zM495 1266h182l82 -195h-112z" />
<glyph unicode="&#x1edd;" horiz-adv-x="804" d="M35 352q35 164 150.5 266.5t281.5 102.5q164 0 229 -98q23 23 38.5 66.5t21.5 76.5h147q-14 -66 -62 -134.5t-96 -107.5q18 -76 -2 -172q-35 -166 -151 -268q-115 -102 -281 -102t-238.5 102t-37.5 268zM188 352q-23 -102 13 -170q37 -80 135 -80t168 80q61 68 84 170 q20 100 -13 168q-35 78 -133 78t-170 -78q-63 -68 -84 -168zM389 995h182l82 -195h-112z" />
<glyph unicode="&#x1ede;" horiz-adv-x="1032" d="M66 485q45 215 198 359q164 150 375 149q174 0 272 -102q27 23 42.5 60.5t23.5 72.5h158q-6 -33 -23.5 -66.5t-39 -66.5t-46.5 -60.5t-47 -46.5q53 -127 16 -299q-45 -215 -198 -358q-164 -150 -375 -150t-309 150q-92 143 -47 358zM236 485q-33 -154 14 -256 q55 -115 201 -114q145 0 249 114q92 102 125 256t-16 254q-55 115 -201 115q-145 0 -250 -115q-90 -100 -122 -254zM516 1190q16 74 66 121t134 47q66 0 99.5 -33t23.5 -86q-6 -29 -26.5 -48.5t-44 -36.5t-43 -35.5t-25.5 -45.5h-92q10 37 29.5 60.5t39 40t36 29.5t20.5 32 q4 10 -1 28.5t-38 18.5q-39 0 -60.5 -28.5t-27.5 -63.5h-90z" />
<glyph unicode="&#x1edf;" horiz-adv-x="804" d="M35 352q35 164 150.5 266.5t281.5 102.5q164 0 229 -98q23 23 38.5 66.5t21.5 76.5h147q-14 -66 -62 -134.5t-96 -107.5q18 -76 -2 -172q-35 -166 -151 -268q-115 -102 -281 -102t-238.5 102t-37.5 268zM188 352q-23 -102 13 -170q37 -80 135 -80t168 80q61 68 84 170 q20 100 -13 168q-35 78 -133 78t-170 -78q-63 -68 -84 -168zM410 918q16 74 66 121t134 47q66 0 99.5 -33t23.5 -86q-6 -29 -26.5 -48.5t-44 -36.5t-43 -35.5t-25.5 -45.5h-92q10 37 29.5 60.5t39 40t36 29.5t20.5 32q4 10 -1 28.5t-38 18.5q-39 0 -60.5 -28.5t-27.5 -63.5 h-90z" />
<glyph unicode="&#x1ee0;" horiz-adv-x="1032" d="M66 485q45 215 198 359q164 150 375 149q174 0 272 -102q27 23 42.5 60.5t23.5 72.5h158q-6 -33 -23.5 -66.5t-39 -66.5t-46.5 -60.5t-47 -46.5q53 -127 16 -299q-45 -215 -198 -358q-164 -150 -375 -150t-309 150q-92 143 -47 358zM236 485q-33 -154 14 -256 q55 -115 201 -114q145 0 249 114q92 102 125 256t-16 254q-55 115 -201 115q-145 0 -250 -115q-90 -100 -122 -254zM428 1059q8 27 25.5 53.5t40 49t50 36.5t58.5 14t56.5 -8t47 -17t41 -17.5t37.5 -8.5q29 0 47.5 16.5t32.5 43.5h76q-23 -66 -68 -111t-115 -45q-23 0 -46 8 t-47.5 17.5t-47 17.5t-41.5 8q-25 0 -45 -18.5t-24 -38.5h-78z" />
<glyph unicode="&#x1ee1;" horiz-adv-x="804" d="M35 352q35 164 150.5 266.5t281.5 102.5q164 0 229 -98q23 23 38.5 66.5t21.5 76.5h147q-14 -66 -62 -134.5t-96 -107.5q18 -76 -2 -172q-35 -166 -151 -268q-115 -102 -281 -102t-238.5 102t-37.5 268zM188 352q-23 -102 13 -170q37 -80 135 -80t168 80q61 68 84 170 q20 100 -13 168q-35 78 -133 78t-170 -78q-63 -68 -84 -168zM299 789q8 27 25.5 53.5t40 49t50 36.5t58.5 14t56.5 -8t47 -17t41 -17.5t37.5 -8.5q29 0 47.5 16.5t32.5 43.5h76q-23 -66 -68 -111t-115 -45q-23 0 -46 8t-47.5 17.5t-47 17.5t-41.5 8q-25 0 -45 -18.5 t-24 -38.5h-78z" />
<glyph unicode="&#x1ee2;" horiz-adv-x="1032" d="M66 485q45 215 198 359q164 150 375 149q174 0 272 -102q27 23 42.5 60.5t23.5 72.5h158q-6 -33 -23.5 -66.5t-39 -66.5t-46.5 -60.5t-47 -46.5q53 -127 16 -299q-45 -215 -198 -358q-164 -150 -375 -150t-309 150q-92 143 -47 358zM236 485q-33 -154 14 -256 q55 -115 201 -114q145 0 249 114q92 102 125 256t-16 254q-55 115 -201 115q-145 0 -250 -115q-90 -100 -122 -254zM293 -178q10 41 44 68.5t75 27.5t63.5 -27.5t12.5 -68.5t-43 -69.5t-74 -28.5t-64.5 28.5t-13.5 69.5z" />
<glyph unicode="&#x1ee3;" horiz-adv-x="804" d="M35 352q35 164 150.5 266.5t281.5 102.5q164 0 229 -98q23 23 38.5 66.5t21.5 76.5h147q-14 -66 -62 -134.5t-96 -107.5q18 -76 -2 -172q-35 -166 -151 -268q-115 -102 -281 -102t-238.5 102t-37.5 268zM178 -178q10 41 44 68.5t75 27.5t63.5 -27.5t12.5 -68.5t-43 -69.5 t-74 -28.5t-64.5 28.5t-13.5 69.5zM188 352q-23 -102 13 -170q37 -80 135 -80t168 80q61 68 84 170q20 100 -13 168q-35 78 -133 78t-170 -78q-63 -68 -84 -168z" />
<glyph unicode="&#x1ee4;" horiz-adv-x="980" d="M78 348l131 621h170l-119 -563q-29 -133 -10 -191q31 -92 176 -92q147 0 219 92q43 57 72 191l119 563h170l-132 -621q-39 -182 -166.5 -276.5t-312.5 -94.5q-184 0 -266 93q-90 98 -51 278zM266 -178q10 41 44 68.5t75 27.5t63.5 -27.5t12.5 -68.5t-43 -69.5t-74 -28.5 t-64.5 28.5t-13.5 69.5z" />
<glyph unicode="&#x1ee5;" horiz-adv-x="780" d="M47 256l94 446h154l-90 -430q-37 -170 98 -170q172 0 213 193l86 407h156l-148 -702h-151l20 98h-4q-39 -53 -101.5 -84.5t-121.5 -31.5q-260 0 -205 274zM166 -178q10 41 44 68.5t75 27.5t63.5 -27.5t12.5 -68.5t-43 -69.5t-74 -28.5t-64.5 28.5t-13.5 69.5z" />
<glyph unicode="&#x1ee6;" horiz-adv-x="980" d="M78 348l131 621h170l-119 -563q-29 -133 -10 -191q31 -92 176 -92q147 0 219 92q43 57 72 191l119 563h170l-132 -621q-39 -182 -166.5 -276.5t-312.5 -94.5q-184 0 -266 93q-90 98 -51 278zM478 1186q16 74 66 121t134 47q66 0 99.5 -33t23.5 -86q-6 -29 -26.5 -48.5 t-44 -36.5t-43 -35.5t-25.5 -45.5h-92q10 37 29.5 60.5t39 40t36 29.5t20.5 32q4 10 -1 28.5t-38 18.5q-39 0 -60.5 -28.5t-27.5 -63.5h-90z" />
<glyph unicode="&#x1ee7;" horiz-adv-x="780" d="M47 256l94 446h154l-90 -430q-37 -170 98 -170q172 0 213 193l86 407h156l-148 -702h-151l20 98h-4q-39 -53 -101.5 -84.5t-121.5 -31.5q-260 0 -205 274zM334 918q16 74 66 121t134 47q66 0 99.5 -33t23.5 -86q-6 -29 -26.5 -48.5t-44 -36.5t-43 -35.5t-25.5 -45.5h-92 q10 37 29.5 60.5t39 40t36 29.5t20.5 32q4 10 -1 28.5t-38 18.5q-39 0 -60.5 -28.5t-27.5 -63.5h-90z" />
<glyph unicode="&#x1ee8;" horiz-adv-x="980" d="M78 348l131 621h170l-119 -563q-29 -133 -10 -191q31 -92 176 -92q147 0 219 92q43 57 72 191l119 563h170q39 0 73.5 31.5t50.5 107.5h144q-12 -55 -43 -106.5t-73 -91.5t-90 -64.5t-93 -24.5l-101 -473q-39 -182 -166.5 -276.5t-312.5 -94.5q-184 0 -266 93 q-90 98 -51 278zM520 1069l164 194h182l-233 -194h-113z" />
<glyph unicode="&#x1ee9;" horiz-adv-x="780" d="M47 256l94 446h154l-90 -430q-37 -170 98 -170q172 0 213 193l86 407h156q39 0 68.5 37t41.5 95h144q-10 -43 -38 -86t-67 -77t-84 -54.5t-88 -20.5l-125 -596h-151l20 98h-4q-39 -53 -101.5 -84.5t-121.5 -31.5q-260 0 -205 274zM393 795l164 194h182l-233 -194h-113z " />
<glyph unicode="&#x1eea;" horiz-adv-x="980" d="M78 348l131 621h170l-119 -563q-29 -133 -10 -191q31 -92 176 -92q147 0 219 92q43 57 72 191l119 563h170q39 0 73.5 31.5t50.5 107.5h144q-12 -55 -43 -106.5t-73 -91.5t-90 -64.5t-93 -24.5l-101 -473q-39 -182 -166.5 -276.5t-312.5 -94.5q-184 0 -266 93 q-90 98 -51 278zM432 1264h182l82 -195h-112z" />
<glyph unicode="&#x1eeb;" horiz-adv-x="780" d="M47 256l94 446h154l-90 -430q-37 -170 98 -170q172 0 213 193l86 407h156q39 0 68.5 37t41.5 95h144q-10 -43 -38 -86t-67 -77t-84 -54.5t-88 -20.5l-125 -596h-151l20 98h-4q-39 -53 -101.5 -84.5t-121.5 -31.5q-260 0 -205 274zM301 995h182l82 -195h-112z" />
<glyph unicode="&#x1eec;" horiz-adv-x="980" d="M78 348l131 621h170l-119 -563q-29 -133 -10 -191q31 -92 176 -92q147 0 219 92q43 57 72 191l119 563h170q39 0 73.5 31.5t50.5 107.5h144q-12 -55 -43 -106.5t-73 -91.5t-90 -64.5t-93 -24.5l-101 -473q-39 -182 -166.5 -276.5t-312.5 -94.5q-184 0 -266 93 q-90 98 -51 278zM480 1186q16 74 66 121t134 47q66 0 99.5 -33t23.5 -86q-6 -29 -26.5 -48.5t-44 -36.5t-43 -35.5t-25.5 -45.5h-92q10 37 29.5 60.5t39 40t36 29.5t20.5 32q4 10 -1 28.5t-38 18.5q-39 0 -60.5 -28.5t-27.5 -63.5h-90z" />
<glyph unicode="&#x1eed;" horiz-adv-x="780" d="M47 256l94 446h154l-90 -430q-37 -170 98 -170q172 0 213 193l86 407h156q39 0 68.5 37t41.5 95h144q-10 -43 -38 -86t-67 -77t-84 -54.5t-88 -20.5l-125 -596h-151l20 98h-4q-39 -53 -101.5 -84.5t-121.5 -31.5q-260 0 -205 274zM322 918q16 74 66 121t134 47 q66 0 99.5 -33t23.5 -86q-6 -29 -26.5 -48.5t-44 -36.5t-43 -35.5t-25.5 -45.5h-92q10 37 29.5 60.5t39 40t36 29.5t20.5 32q4 10 -1 28.5t-38 18.5q-39 0 -60.5 -28.5t-27.5 -63.5h-90z" />
<glyph unicode="&#x1eee;" horiz-adv-x="980" d="M78 348l131 621h170l-119 -563q-29 -133 -10 -191q31 -92 176 -92q147 0 219 92q43 57 72 191l119 563h170q39 0 73.5 31.5t50.5 107.5h144q-12 -55 -43 -106.5t-73 -91.5t-90 -64.5t-93 -24.5l-101 -473q-39 -182 -166.5 -276.5t-312.5 -94.5q-184 0 -266 93 q-90 98 -51 278zM393 1067q6 27 22.5 56.5t40 55t53.5 42t60 16.5q33 0 58.5 -7.5t48.5 -17.5q20 -10 38.5 -18.5t39.5 -8.5q29 0 47 16.5t32 43.5h76q-10 -33 -29.5 -69t-41.5 -56q-23 -23 -51.5 -35t-65.5 -12q-23 0 -47.5 8t-46.5 18q-25 10 -47.5 17.5t-40.5 7.5 q-25 0 -44.5 -18.5t-23.5 -38.5h-78z" />
<glyph unicode="&#x1eef;" horiz-adv-x="780" d="M47 256l94 446h154l-90 -430q-37 -170 98 -170q172 0 213 193l86 407h156q39 0 68.5 37t41.5 95h144q-10 -43 -38 -86t-67 -77t-84 -54.5t-88 -20.5l-125 -596h-151l20 98h-4q-39 -53 -101.5 -84.5t-121.5 -31.5q-260 0 -205 274zM244 791q6 27 22.5 56.5t40 55t53.5 42 t60 16.5q33 0 58.5 -7.5t48.5 -17.5q20 -10 38.5 -18.5t39.5 -8.5q29 0 47 16.5t32 43.5h76q-10 -33 -29.5 -69t-41.5 -56q-23 -23 -51.5 -35t-65.5 -12q-23 0 -47.5 8t-46.5 18q-25 10 -47.5 17.5t-40.5 7.5q-25 0 -44.5 -18.5t-23.5 -38.5h-78z" />
<glyph unicode="&#x1ef0;" horiz-adv-x="980" d="M78 348l131 621h170l-119 -563q-29 -133 -10 -191q31 -92 176 -92q147 0 219 92q43 57 72 191l119 563h170q39 0 73.5 31.5t50.5 107.5h144q-12 -55 -43 -106.5t-73 -91.5t-90 -64.5t-93 -24.5l-101 -473q-39 -182 -166.5 -276.5t-312.5 -94.5q-184 0 -266 93 q-90 98 -51 278zM266 -178q10 41 44 68.5t75 27.5t63.5 -27.5t12.5 -68.5t-43 -69.5t-74 -28.5t-64.5 28.5t-13.5 69.5z" />
<glyph unicode="&#x1ef1;" horiz-adv-x="780" d="M47 256l94 446h154l-90 -430q-37 -170 98 -170q172 0 213 193l86 407h156q39 0 68.5 37t41.5 95h144q-10 -43 -38 -86t-67 -77t-84 -54.5t-88 -20.5l-125 -596h-151l20 98h-4q-39 -53 -101.5 -84.5t-121.5 -31.5q-260 0 -205 274zM166 -178q10 41 44 68.5t75 27.5 t63.5 -27.5t12.5 -68.5t-43 -69.5t-74 -28.5t-64.5 28.5t-13.5 69.5z" />
<glyph unicode="&#x1ef2;" horiz-adv-x="880" d="M109 969h196l164 -434l346 434h191l-488 -588l-80 -381h-170l80 381zM393 1264h181l79 -195h-110z" />
<glyph unicode="&#x1ef3;" horiz-adv-x="704" d="M-76 -270l29 131q57 -10 70 -11q49 0 79 27q20 18 50 72l30 53l-119 700h170l72 -524h4l289 524h160l-430 -741q-72 -125 -115 -168q-74 -72 -182 -72q-57 0 -107 9zM268 996h181l79 -195h-110z" />
<glyph unicode="&#x1ef4;" horiz-adv-x="880" d="M109 969h196l164 -434l346 434h191l-488 -588l-80 -381h-170l80 381zM217 -178q10 41 44 68.5t75 27.5t63.5 -27.5t12.5 -68.5t-43 -69.5t-74 -28.5t-64.5 28.5t-13.5 69.5z" />
<glyph unicode="&#x1ef5;" horiz-adv-x="704" d="M-76 -270l29 131q57 -10 70 -11q49 0 79 27q20 18 50 72l30 53l-119 700h170l72 -524h4l289 524h160l-430 -741q-72 -125 -115 -168q-74 -72 -182 -72q-57 0 -107 9zM354 -178q10 41 44 68.5t75 27.5t63.5 -27.5t12.5 -68.5t-43 -69.5t-74 -28.5t-64.5 28.5t-13.5 69.5z " />
<glyph unicode="&#x1ef6;" horiz-adv-x="880" d="M109 969h196l164 -434l346 434h191l-488 -588l-80 -381h-170l80 381zM420 1186q16 74 66 121t134 47q66 0 99.5 -33t23.5 -86q-6 -29 -26.5 -48.5t-44 -36.5t-43 -35.5t-25.5 -45.5h-92q10 37 29.5 60.5t39 40t36 29.5t20.5 32q4 10 -1 28.5t-38 18.5q-39 0 -60.5 -28.5 t-27.5 -63.5h-90z" />
<glyph unicode="&#x1ef7;" horiz-adv-x="704" d="M-76 -270l29 131q57 -10 70 -11q49 0 79 27q20 18 50 72l30 53l-119 700h170l72 -524h4l289 524h160l-430 -741q-72 -125 -115 -168q-74 -72 -182 -72q-57 0 -107 9zM291 916q16 74 66 121t134 47q66 0 99.5 -33t23.5 -86q-6 -29 -26.5 -48.5t-44 -36.5t-43 -35.5 t-25.5 -45.5h-92q10 37 29.5 60.5t39 40t36 29.5t20.5 32q4 10 -1 28.5t-38 18.5q-39 0 -60.5 -28.5t-27.5 -63.5h-90z" />
<glyph unicode="&#x1ef8;" horiz-adv-x="880" d="M109 969h196l164 -434l346 434h191l-488 -588l-80 -381h-170l80 381zM297 1065q6 27 22.5 56.5t40 55t53.5 42t60 16.5q33 0 58.5 -7.5t48.5 -17.5q20 -10 38.5 -18.5t39.5 -8.5q29 0 47 16.5t32 43.5h76q-10 -33 -29.5 -69t-41.5 -56q-23 -23 -51.5 -35t-65.5 -12 q-23 0 -47.5 8t-46.5 18q-25 10 -47.5 17.5t-40.5 7.5q-25 0 -44.5 -18.5t-23.5 -38.5h-78z" />
<glyph unicode="&#x1ef9;" horiz-adv-x="704" d="M-76 -270l29 131q57 -10 70 -11q49 0 79 27q20 18 50 72l30 53l-119 700h170l72 -524h4l289 524h160l-430 -741q-72 -125 -115 -168q-74 -72 -182 -72q-57 0 -107 9zM192 791q6 27 22.5 56.5t40 55t53.5 42t60 16.5q33 0 58.5 -7.5t48.5 -17.5q20 -10 38.5 -18.5 t39.5 -8.5q29 0 47 16.5t32 43.5h76q-10 -33 -29.5 -69t-41.5 -56q-23 -23 -51.5 -35t-65.5 -12q-23 0 -47.5 8t-46.5 18q-25 10 -47.5 17.5t-40.5 7.5q-25 0 -44.5 -18.5t-23.5 -38.5h-78z" />
<glyph unicode="&#x2000;" horiz-adv-x="870" />
<glyph unicode="&#x2001;" horiz-adv-x="1741" />
<glyph unicode="&#x2002;" horiz-adv-x="870" />
<glyph unicode="&#x2003;" horiz-adv-x="1741" />
<glyph unicode="&#x2004;" horiz-adv-x="580" />
<glyph unicode="&#x2005;" horiz-adv-x="435" />
<glyph unicode="&#x2006;" horiz-adv-x="290" />
<glyph unicode="&#x2007;" horiz-adv-x="290" />
<glyph unicode="&#x2008;" horiz-adv-x="217" />
<glyph unicode="&#x2009;" horiz-adv-x="348" />
<glyph unicode="&#x200a;" horiz-adv-x="96" />
<glyph unicode="&#x200c;" horiz-adv-x="0" d="M-27 -197v1119h54v-1119h-54z" />
<glyph unicode="&#x200d;" horiz-adv-x="0" d="M-158 733l125 123l-125 119l37 35l121 -123l121 123l37 -35l-125 -119l125 -123l-37 -33l-94 97v-994h-54v994l-94 -97z" />
<glyph unicode="&#x200e;" horiz-adv-x="0" d="M-27 -197v1080h242l-98 92l35 35l155 -154l-155 -154l-35 35l98 94h-188v-1028h-54z" />
<glyph unicode="&#x200f;" horiz-adv-x="0" d="M-307 856l155 154l33 -35l-96 -92h242v-1080h-54v1028h-188l96 -94l-33 -35z" />
<glyph unicode="&#x2010;" horiz-adv-x="528" d="M39 297l31 145h395l-31 -145h-395z" />
<glyph unicode="&#x2011;" horiz-adv-x="528" d="M39 297l31 145h395l-31 -145h-395z" />
<glyph unicode="&#x2012;" horiz-adv-x="528" d="M39 297l31 145h395l-31 -145h-395z" />
<glyph unicode="&#x2013;" horiz-adv-x="677" d="M-25 297l29 145h678l-31 -145h-676z" />
<glyph unicode="&#x2014;" horiz-adv-x="1357" d="M150 297l30 145h1006l-31 -145h-1005z" />
<glyph unicode="&#x2018;" horiz-adv-x="376" d="M141 743q10 55 62.5 117t134.5 109l63 -49q-35 -18 -71.5 -50t-59.5 -61q59 0 75.5 -28.5t8.5 -63.5q-10 -47 -48 -71.5t-79 -24.5t-70.5 29.5t-15.5 92.5z" />
<glyph unicode="&#x2019;" horiz-adv-x="376" d="M125 670q35 18 71.5 50t57.5 60q-59 0 -74.5 29t-7.5 63q10 47 48 72t79 25t70.5 -30t15.5 -93q-10 -55 -62.5 -116.5t-134.5 -108.5z" />
<glyph unicode="&#x201a;" horiz-adv-x="376" d="M-39 -111q35 18 71 50t58 61q-59 0 -74.5 28.5t-9.5 63.5q10 47 48 71.5t79 24.5t70.5 -29.5t15.5 -92.5q-10 -55 -62.5 -117t-133.5 -109z" />
<glyph unicode="&#x201c;" horiz-adv-x="665" d="M141 743q10 55 62.5 117t134.5 109l63 -49q-35 -18 -71.5 -50t-59.5 -61q59 0 75.5 -28.5t8.5 -63.5q-10 -47 -48 -71.5t-79 -24.5t-70.5 29.5t-15.5 92.5zM430 743q10 55 62.5 117t134.5 109l63 -49q-35 -18 -71.5 -50t-59.5 -61q59 0 75.5 -28.5t8.5 -63.5 q-10 -47 -48 -71.5t-79 -24.5t-70.5 29.5t-15.5 92.5z" />
<glyph unicode="&#x201d;" horiz-adv-x="665" d="M125 670q35 18 71.5 50t57.5 60q-59 0 -74.5 29t-7.5 63q10 47 48 72t79 25t70.5 -30t15.5 -93q-10 -55 -62.5 -116.5t-134.5 -108.5zM414 670q35 18 71.5 50t57.5 60q-59 0 -74.5 29t-7.5 63q10 47 48 72t79 25t70.5 -30t15.5 -93q-10 -55 -62.5 -116.5t-134.5 -108.5z " />
<glyph unicode="&#x201e;" horiz-adv-x="665" d="M-39 -111q35 18 71 50t58 61q-59 0 -74.5 28.5t-9.5 63.5q10 47 48 71.5t79 24.5t70.5 -29.5t15.5 -92.5q-10 -55 -62.5 -117t-133.5 -109zM248 -111q35 18 71.5 50t59.5 61q-59 0 -75.5 28.5t-8.5 63.5q10 47 48 71.5t79 24.5t70.5 -29.5t15.5 -92.5q-10 -55 -62.5 -117 t-134.5 -109z" />
<glyph unicode="&#x2020;" d="M74 573l26 129h260l58 267h153l-57 -267h260l-26 -129h-261l-168 -790h-153l168 790h-260z" />
<glyph unicode="&#x2021;" d="M-35 51l27 129h258l84 393h-260l26 129h260l58 267h153l-57 -267h260l-26 -129h-261l-84 -393h261l-27 -129h-260l-58 -268h-153l57 268h-258z" />
<glyph unicode="&#x2022;" horiz-adv-x="677" d="M98 485q0 49 19.5 93.5t52.5 77t77 52t93 19.5t93 -19.5t77 -52t52.5 -77t19.5 -93.5t-19.5 -93t-52.5 -76.5t-77 -52t-93 -19.5t-93 19.5t-77 52t-52.5 76.5t-19.5 93z" />
<glyph unicode="&#x2026;" horiz-adv-x="1357" d="M43 0l39 184h188l-39 -184h-188zM496 0l39 184h188l-39 -184h-188zM948 0l39 184h189l-39 -184h-189z" />
<glyph unicode="&#x202f;" horiz-adv-x="348" />
<glyph unicode="&#x2030;" horiz-adv-x="1916" d="M170 698q57 268 285 269q227 -1 170 -269t-285 -268q-227 0 -170 268zM256 -33l745 1016h105l-744 -1016h-106zM293 698q-39 -180 63 -180q107 0 146 180t-68 181q-102 0 -141 -181zM756 250q57 268 284 268t170 -268q-55 -268 -282 -268t-172 268zM879 250 q-37 -180 65 -180q106 0 143 180q39 180 -67 180q-102 0 -141 -180zM1315 250q57 268 284 268t170 -268q-55 -268 -282 -268t-172 268zM1438 250q-37 -180 65 -180q107 0 144 180q39 180 -68 180q-102 0 -141 -180z" />
<glyph unicode="&#x2032;" horiz-adv-x="280" d="M68 666l188 327h186l-264 -327h-110z" />
<glyph unicode="&#x2033;" horiz-adv-x="550" d="M68 666l188 327h186l-264 -327h-110zM338 666l188 327h187l-264 -327h-111z" />
<glyph unicode="&#x2039;" horiz-adv-x="352" d="M41 293l33 151l245 168l-28 -139l-152 -104l107 -103l-29 -139z" />
<glyph unicode="&#x203a;" horiz-adv-x="352" d="M12 127l29 139l152 103l-107 104l29 139l176 -168l-33 -151z" />
<glyph unicode="&#x2044;" horiz-adv-x="219" d="M-324 -23q205 258 399.5 507t399.5 509h129l-797 -1016h-131z" />
<glyph unicode="&#x205f;" horiz-adv-x="435" />
<glyph unicode="&#x2070;" horiz-adv-x="489" d="M78 659q63 301 278 302q219 -1 156 -302q-63 -297 -283 -297q-215 0 -151 297zM188 659q-47 -209 60 -208q104 -1 151 208q43 211 -61 211q-106 0 -150 -211z" />
<glyph unicode="&#x2074;" horiz-adv-x="489" d="M37 506l20 100l336 342h105l-76 -356h78l-19 -86h-78l-28 -133h-109l29 133h-258zM147 592h166q12 59 22.5 110.5t22.5 110.5q-57 -57 -105 -109.5t-106 -111.5z" />
<glyph unicode="&#x2075;" horiz-adv-x="489" d="M53 545h111q-12 -94 84 -94q111 0 137 118q10 45 -13.5 78t-76.5 33q-70 0 -105 -51h-112l137 319h328l-21 -94h-239q-12 -33 -26.5 -60.5t-29.5 -62.5q53 33 113 33q92 0 132 -54.5t24 -140.5q-8 -41 -32 -77.5t-58.5 -65.5t-78.5 -46.5t-94 -17.5q-96 0 -146 46.5 t-34 136.5z" />
<glyph unicode="&#x2076;" horiz-adv-x="489" d="M61 535q0 92 25 169.5t67 135t99 89.5t123 32q68 0 111.5 -40t43.5 -102q0 -16 -2 -24h-110q0 35 -13.5 55t-54.5 20q-100 0 -149 -163q27 23 62.5 36t72.5 13q78 0 120 -43t42 -109q0 -10 -1 -22.5t-3 -22.5q-18 -84 -88 -140.5t-166 -56.5q-86 0 -132.5 40t-46.5 133z M172 532q0 -35 21.5 -58t60.5 -23q59 0 95 44t36 95q0 35 -21.5 57.5t-62.5 22.5q-55 0 -92 -40t-37 -98z" />
<glyph unicode="&#x2077;" horiz-adv-x="489" d="M96 373q35 133 118 251.5t210 229.5h-305l20 94h428l-18 -84q-252 -219 -332 -491h-121z" />
<glyph unicode="&#x2078;" horiz-adv-x="489" d="M51 545q10 53 42 87t83 52q-63 39 -49 115q16 78 75.5 120t153.5 42q96 0 137.5 -42t24.5 -120q-8 -41 -29.5 -70t-64.5 -45q88 -35 68 -139q-16 -84 -88 -133.5t-175 -49.5q-98 0 -146 49.5t-32 133.5zM162 545q-10 -47 14.5 -73t71.5 -26q49 0 85 26t46 73 q10 45 -15.5 68.5t-74.5 23.5q-43 0 -80 -25.5t-47 -66.5zM236 797q-8 -35 12 -57.5t57 -22.5q41 0 70 22.5t37 57.5q8 37 -12.5 57t-61.5 20q-35 0 -64.5 -20t-37.5 -57z" />
<glyph unicode="&#x2079;" horiz-adv-x="489" d="M57 526h113q-6 -76 63 -75q55 0 90 38.5t66 126.5q-49 -51 -137 -51t-130 52.5t-22 144.5q16 86 85 142.5t169 56.5q113 0 153 -74t7 -228q-29 -141 -109.5 -219t-191.5 -78q-39 0 -70.5 12.5t-53 34t-30 51t-2.5 66.5zM211 764q-10 -49 10.5 -82t61.5 -33q51 0 86 33 t45 82q10 43 -11.5 74.5t-72.5 31.5q-47 0 -78 -30.5t-41 -75.5z" />
<glyph unicode="&#x207d;" horiz-adv-x="280" d="M72 596q43 199 211 377h94q-147 -184 -191 -377q-43 -205 35 -377h-98q-92 186 -51 377z" />
<glyph unicode="&#x207e;" horiz-adv-x="280" d="M-6 219q150 174 192 377q43 193 -30 377h94q94 -180 51 -377q-41 -190 -211 -377h-96z" />
<glyph unicode="&#x207f;" horiz-adv-x="505" d="M37 373l92 428h109l-9 -45q61 55 142 55q168 0 135 -147l-62 -291h-112l57 266q18 88 -63 88q-43 0 -78 -28.5t-45 -73.5l-53 -252h-113z" />
<glyph unicode="&#x2080;" horiz-adv-x="489" d="M41 -156q63 301 278 302q219 -1 156 -302q-63 -297 -283 -297q-215 0 -151 297zM151 -156q-47 -209 60 -208q104 -1 151 208q43 211 -61 211q-106 0 -150 -211z" />
<glyph unicode="&#x2081;" horiz-adv-x="489" d="M90 -31l16 78q68 0 126.5 21.5t80.5 72.5h96l-124 -585h-119l88 413h-164z" />
<glyph unicode="&#x2082;" horiz-adv-x="489" d="M-29 -444q18 84 66.5 138t118.5 93q35 20 71.5 40t68.5 42.5t55.5 48t33.5 58.5q8 43 -17.5 63t-66.5 20q-53 0 -82.5 -39.5t-42.5 -86.5h-119q23 104 94.5 162.5t176.5 58.5q43 0 78.5 -10.5t60.5 -32t35 -54t0 -79.5q-16 -68 -67.5 -112t-110.5 -79 q-61 -35 -116.5 -65.5t-76.5 -71.5h289l-21 -94h-428z" />
<glyph unicode="&#x2083;" horiz-adv-x="489" d="M8 -246h109q-14 -47 7.5 -81.5t78.5 -34.5q49 0 89 25.5t50 72.5q6 33 -3 51.5t-30.5 28.5t-50.5 12t-59 2l18 78q49 -2 96.5 17.5t57.5 66.5q8 37 -19.5 52t-60.5 15q-45 0 -79 -28.5t-40 -73.5h-108q23 94 89 145.5t160 51.5q37 0 72 -8.5t59.5 -27t35 -49t1.5 -73.5 q-10 -41 -38.5 -72.5t-75.5 -48.5v-4q51 -8 72.5 -47t9.5 -94q-18 -90 -94 -138.5t-171 -48.5q-111 0 -153.5 55.5t-22.5 155.5z" />
<glyph unicode="&#x2084;" horiz-adv-x="489" d="M-10 -309l20 100l336 342h105l-76 -356h78l-19 -86h-78l-28 -133h-109l29 133h-258zM100 -223h166q12 59 22.5 110.5t22.5 110.5q-57 -57 -105 -109.5t-106 -111.5z" />
<glyph unicode="&#x2085;" horiz-adv-x="489" d="M6 -270h111q-12 -94 84 -94q111 0 137 118q10 45 -13.5 78t-76.5 33q-70 0 -105 -51h-112l137 319h328l-21 -94h-239q-12 -33 -26.5 -60.5t-29.5 -62.5q53 33 113 33q92 0 132 -54.5t24 -140.5q-8 -41 -32 -77.5t-58.5 -65.5t-78.5 -46.5t-94 -17.5q-96 0 -146 46.5 t-34 136.5z" />
<glyph unicode="&#x2086;" horiz-adv-x="489" d="M14 -280q0 92 25 169.5t67 135t99 89.5t123 32q68 0 111.5 -40t43.5 -102q0 -16 -2 -24h-110q0 35 -13.5 55t-54.5 20q-100 0 -149 -163q27 23 62.5 36t72.5 13q78 0 120 -43t42 -109q0 -10 -1 -22.5t-3 -22.5q-18 -84 -88 -140.5t-166 -56.5q-86 0 -132.5 40t-46.5 133z M125 -283q0 -35 21.5 -58t60.5 -23q59 0 95 44t36 95q0 35 -21.5 57.5t-62.5 22.5q-55 0 -92 -40t-37 -98z" />
<glyph unicode="&#x2087;" horiz-adv-x="489" d="M49 -442q35 133 118 251.5t210 229.5h-305l20 94h428l-18 -84q-252 -219 -332 -491h-121z" />
<glyph unicode="&#x2088;" horiz-adv-x="489" d="M4 -270q10 53 42 87t83 52q-63 39 -49 115q16 78 75.5 120t153.5 42q96 0 137.5 -42t24.5 -120q-8 -41 -29.5 -70t-64.5 -45q88 -35 68 -139q-16 -84 -88 -133.5t-175 -49.5q-98 0 -146 49.5t-32 133.5zM115 -270q-10 -47 14.5 -73t71.5 -26q49 0 85 26t46 73 q10 45 -15.5 68.5t-74.5 23.5q-43 0 -80 -25.5t-47 -66.5zM189 -18q-8 -35 12 -57.5t57 -22.5q41 0 70 22.5t37 57.5q8 37 -12.5 57t-61.5 20q-35 0 -64.5 -20t-37.5 -57z" />
<glyph unicode="&#x2089;" horiz-adv-x="489" d="M10 -289h113q-6 -76 63 -75q55 0 90 38.5t66 126.5q-49 -51 -137 -51t-130 52.5t-22 144.5q16 86 85 142.5t169 56.5q113 0 153 -74t7 -228q-29 -141 -109.5 -219t-191.5 -78q-39 0 -70.5 12.5t-53 34t-30 51t-2.5 66.5zM164 -51q-10 -49 10.5 -82t61.5 -33q51 0 86 33 t45 82q10 43 -11.5 74.5t-72.5 31.5q-47 0 -78 -30.5t-41 -75.5z" />
<glyph unicode="&#x208d;" horiz-adv-x="280" d="M25 -219q43 199 211 377h94q-147 -184 -191 -377q-43 -205 35 -377h-98q-92 186 -51 377z" />
<glyph unicode="&#x208e;" horiz-adv-x="280" d="M-53 -596q150 174 192 377q43 193 -30 377h94q94 -180 51 -377q-41 -190 -211 -377h-96z" />
<glyph unicode="&#x20a3;" horiz-adv-x="804" d="M-51 170l28 131h101l141 668h670l-31 -146h-500l-53 -254h438l-30 -139h-439l-26 -129h237l-28 -131h-238l-35 -170h-170l35 170h-100z" />
<glyph unicode="&#x20ab;" horiz-adv-x="829" d="M33 356q39 178 153 279q102 86 230 86q166 0 211 -111h2l41 193h-236l21 100h235l15 66h155l-14 -66h86l-21 -100h-86l-170 -803h-147l18 94h-2q-80 -113 -239 -112q-160 0 -226 108q-59 100 -26 266zM57 -186l23 100h477l-22 -100h-478zM186 344q-20 -100 13 -166 q37 -76 131 -76q96 0 166 80q61 68 84 170q25 115 -13.5 180.5t-128.5 65.5q-100 0 -172 -80q-57 -68 -80 -174z" />
<glyph unicode="&#x20ac;" horiz-adv-x="860" d="M-2 348l33 94h63q4 25 9.5 44.5t15.5 45.5h-80l35 97h78q39 90 95 157.5t125.5 112.5t148.5 67.5t163 22.5q63 0 124.5 -14t90.5 -43l-59 -123q-45 33 -95.5 44t-89.5 11q-47 0 -95 -12t-92 -41t-82 -74t-64 -108h446l-43 -97h-434q-10 -23 -17.5 -49t-9.5 -41h424 l-41 -94h-387q2 -63 21.5 -108t51.5 -74t74 -42t89 -13q39 0 95 12t116 43l4 -117q-63 -35 -119.5 -50t-120.5 -15q-84 0 -153.5 22.5t-120 68.5t-77 113.5t-26.5 159.5h-96z" />
<glyph unicode="&#x2113;" horiz-adv-x="438" d="M-25 287l150 155l55 256q33 152 81 222.5t142 70.5q63 0 97.5 -46t17.5 -120q-6 -31 -22.5 -66.5t-47 -80.5t-80 -103.5t-118.5 -134.5l-57 -268q-12 -57 -7.5 -69.5t21.5 -12.5q6 0 14 3t25.5 11.5t44 23.5t69.5 42l-26 -127q-96 -59 -166 -59q-66 0 -94.5 37.5 t-10.5 128.5l27 122q-16 -14 -32.5 -29.5t-24.5 -25.5zM289 618q39 49 62.5 81t35.5 53.5t16.5 38t8.5 34.5q4 20 0 45t-27 25q-29 0 -44 -51t-34 -135z" />
<glyph unicode="&#x2116;" horiz-adv-x="1740" d="M8 0l205 969h180l291 -713h2l152 713h161l-204 -969h-181l-290 713h-5l-149 -713h-162zM926 0l22 115h606l-22 -115h-606zM993 600q35 164 151 266.5t281 102.5q166 0 239 -102.5t38 -266.5q-35 -166 -152 -268t-282 -103q-166 0 -238 102.5t-37 268.5zM1147 600 q-23 -102 12 -170q37 -80 135 -80t168 80q61 68 84 170q20 100 -12 168q-37 78 -135 78t-168 -78q-63 -68 -84 -168z" />
<glyph unicode="&#x2122;" horiz-adv-x="1044" d="M127 907v62h342v-62h-121v-340h-96v340h-125zM537 567v402h131l102 -297l100 297h129v-402h-90v299l-106 -299h-72l-104 299v-299h-90z" />
<glyph unicode="&#x2126;" horiz-adv-x="1138" d="M-66 0l23 104h227q-37 31 -65.5 74t-47 96.5t-22.5 116t10 131.5q23 104 79.5 191.5t136 151t177 98t201.5 34.5t188.5 -34.5t137.5 -98t73.5 -150.5t-1.5 -192q-14 -70 -45 -132t-72 -115.5t-88 -96.5t-96 -74h229l-23 -104h-415l20 100q51 27 104.5 69t99.5 95 t80 115.5t48 132.5q14 68 5 135.5t-42 119.5t-88 85t-135 33t-149.5 -33t-125 -85t-93.5 -119.5t-52 -135.5q-14 -70 -7 -132.5t30.5 -115.5t57.5 -95t75 -69l-21 -100h-414z" />
<glyph unicode="&#x212e;" horiz-adv-x="1110" d="M31 442q0 94 41 178.5t111.5 145.5t164.5 97t201 36q106 0 200.5 -36t165 -97t110.5 -145t40 -179v-20h-811v-240q0 -16 6 -22q57 -59 131 -93t160 -34q92 0 170 38t137 109h115q-76 -90 -185.5 -142t-238.5 -52q-106 0 -200.5 35.5t-165 97t-111.5 144.5t-41 179z M254 465h590v242q0 14 -4 22q-59 57 -132 91t-157 34q-86 0 -159 -35t-130 -94q-8 -8 -8 -23v-237z" />
<glyph unicode="&#x2153;" horiz-adv-x="1185" d="M127 784l16 78q68 0 126.5 21.5t80.5 72.5h96l-124 -585h-119l88 413h-164zM170 -33l786 1016h107l-784 -1016h-109zM657 199h109q-10 -47 9.5 -82t78.5 -35q49 0 88 25.5t49 72.5q6 33 -3 51.5t-30.5 27.5t-49 12t-58.5 3l16 78q51 0 98.5 17.5t57.5 66.5 q8 37 -19.5 52.5t-60.5 15.5q-47 0 -79 -29t-42 -74h-108q23 94 90 145.5t162 51.5q37 0 71.5 -8t58 -26.5t34 -49.5t1.5 -74q-10 -41 -37.5 -72.5t-74.5 -48.5l-2 -4q51 -8 72.5 -47t11.5 -94q-20 -90 -96 -138t-170 -48q-111 0 -154 55t-23 156z" />
<glyph unicode="&#x2154;" horiz-adv-x="1185" d="M18 371q14 63 48 108t78 78t90.5 58.5t88.5 51t71.5 54.5t37.5 70q8 43 -17.5 63t-66.5 20q-53 0 -82.5 -39.5t-42.5 -86.5h-119q23 104 94.5 162.5t176.5 58.5q43 0 78.5 -10.5t60.5 -32t35 -54t0 -79.5q-14 -68 -66.5 -113t-114 -80t-115.5 -65.5t-75 -69.5h289 l-21 -94h-428zM170 -33l786 1016h107l-784 -1016h-109zM657 199h109q-10 -47 9.5 -82t78.5 -35q49 0 88 25.5t49 72.5q6 33 -3 51.5t-30.5 27.5t-49 12t-58.5 3l16 78q51 0 98.5 17.5t57.5 66.5q8 37 -19.5 52.5t-60.5 15.5q-47 0 -79 -29t-42 -74h-108q23 94 90 145.5 t162 51.5q37 0 71.5 -8t58 -26.5t34 -49.5t1.5 -74q-10 -41 -37.5 -72.5t-74.5 -48.5l-2 -4q51 -8 72.5 -47t11.5 -94q-20 -90 -96 -138t-170 -48q-111 0 -154 55t-23 156z" />
<glyph unicode="&#x2155;" horiz-adv-x="1185" d="M127 784l16 78q68 0 126.5 21.5t80.5 72.5h96l-124 -585h-119l88 413h-164zM170 -33l786 1016h107l-784 -1016h-109zM655 170h111q-8 -94 84 -94q111 0 137 119q10 45 -13.5 77.5t-76.5 32.5q-70 0 -104 -51h-113l137 319h328l-21 -94h-239q-12 -33 -26.5 -60.5 t-29.5 -62.5q53 33 113 33q92 0 133 -54t23 -140q-8 -41 -32 -78t-58.5 -65.5t-78.5 -46t-93 -17.5q-96 0 -146.5 46t-34.5 136z" />
<glyph unicode="&#x2156;" horiz-adv-x="1185" d="M18 371q14 63 48 108t78 78t90.5 58.5t88.5 51t71.5 54.5t37.5 70q8 43 -17.5 63t-66.5 20q-53 0 -82.5 -39.5t-42.5 -86.5h-119q23 104 94.5 162.5t176.5 58.5q43 0 78.5 -10.5t60.5 -32t35 -54t0 -79.5q-14 -68 -66.5 -113t-114 -80t-115.5 -65.5t-75 -69.5h289 l-21 -94h-428zM170 -33l786 1016h107l-784 -1016h-109zM655 170h111q-8 -94 84 -94q111 0 137 119q10 45 -13.5 77.5t-76.5 32.5q-70 0 -104 -51h-113l137 319h328l-21 -94h-239q-12 -33 -26.5 -60.5t-29.5 -62.5q53 33 113 33q92 0 133 -54t23 -140q-8 -41 -32 -78 t-58.5 -65.5t-78.5 -46t-93 -17.5q-96 0 -146.5 46t-34.5 136z" />
<glyph unicode="&#x2157;" horiz-adv-x="1185" d="M55 569h109q-10 -47 8 -81.5t78 -34.5q49 0 89 25.5t50 72.5q6 33 -4 51.5t-30.5 27.5t-49.5 12t-59 3l18 78q51 0 97.5 17.5t56.5 66.5q8 37 -19.5 52t-60.5 15q-47 0 -78 -28.5t-41 -73.5h-108q23 94 89 145.5t160 51.5q37 0 72 -8.5t59.5 -27t35 -49t1.5 -73.5 q-10 -41 -38.5 -72.5t-75.5 -48.5v-4q51 -8 72.5 -47t9.5 -94q-18 -90 -94 -138.5t-171 -48.5q-111 0 -153.5 55.5t-22.5 155.5zM170 -33l786 1016h107l-784 -1016h-109zM655 170h111q-8 -94 84 -94q111 0 137 119q10 45 -13.5 77.5t-76.5 32.5q-70 0 -104 -51h-113l137 319 h328l-21 -94h-239q-12 -33 -26.5 -60.5t-29.5 -62.5q53 33 113 33q92 0 133 -54t23 -140q-8 -41 -32 -78t-58.5 -65.5t-78.5 -46t-93 -17.5q-96 0 -146.5 46t-34.5 136z" />
<glyph unicode="&#x2158;" horiz-adv-x="1185" d="M37 506l20 100l336 342h105l-76 -356h78l-19 -86h-78l-28 -133h-109l29 133h-258zM147 592h166q12 59 22.5 110.5t22.5 110.5q-57 -57 -105 -109.5t-106 -111.5zM170 -33l786 1016h107l-784 -1016h-109zM655 170h111q-8 -94 84 -94q111 0 137 119q10 45 -13.5 77.5 t-76.5 32.5q-70 0 -104 -51h-113l137 319h328l-21 -94h-239q-12 -33 -26.5 -60.5t-29.5 -62.5q53 33 113 33q92 0 133 -54t23 -140q-8 -41 -32 -78t-58.5 -65.5t-78.5 -46t-93 -17.5q-96 0 -146.5 46t-34.5 136z" />
<glyph unicode="&#x2159;" horiz-adv-x="1185" d="M127 784l16 78q68 0 126.5 21.5t80.5 72.5h96l-124 -585h-119l88 413h-164zM170 -33l786 1016h107l-784 -1016h-109zM674 287q29 135 107.5 217t189.5 82q76 0 120 -47t33 -119h-110q10 76 -68 76q-100 0 -149 -164q27 23 62.5 36t72.5 13q92 0 133 -56.5t25 -140.5 q-18 -84 -88 -140t-166 -56q-111 0 -154 67.5t-8 231.5zM772 188q-10 -47 10.5 -79.5t67.5 -32.5t83 30.5t46 81.5q10 45 -11.5 76t-70.5 31q-47 0 -81 -29.5t-44 -77.5z" />
<glyph unicode="&#x215a;" horiz-adv-x="1185" d="M80 551h110q-12 -94 84 -94q111 0 136 118q10 45 -12.5 78t-75.5 33q-68 0 -107 -51h-113l140 319h327l-20 -94h-240q-14 -33 -27.5 -60.5t-27.5 -62.5q49 33 111 33q92 0 132.5 -54.5t22.5 -140.5q-8 -41 -31.5 -77.5t-57.5 -65.5t-78 -46t-93 -17q-96 0 -146.5 46 t-33.5 136zM170 -33l786 1016h107l-784 -1016h-109zM674 287q29 135 107.5 217t189.5 82q76 0 120 -47t33 -119h-110q10 76 -68 76q-100 0 -149 -164q27 23 62.5 36t72.5 13q92 0 133 -56.5t25 -140.5q-18 -84 -88 -140t-166 -56q-111 0 -154 67.5t-8 231.5zM772 188 q-10 -47 10.5 -79.5t67.5 -32.5t83 30.5t46 81.5q10 45 -11.5 76t-70.5 31q-47 0 -81 -29.5t-44 -77.5z" />
<glyph unicode="&#x215b;" horiz-adv-x="1185" d="M127 784l16 78q68 0 126.5 21.5t80.5 72.5h96l-124 -585h-119l88 413h-164zM170 -33l786 1016h107l-784 -1016h-109zM655 170q23 102 127 139q-66 39 -51 115q16 78 75.5 120t154.5 42q96 0 137 -42t24 -120q-8 -41 -29.5 -69.5t-62.5 -45.5q86 -35 66 -139 q-16 -84 -88 -133t-174 -49q-98 0 -146.5 49t-32.5 133zM766 170q-10 -47 14.5 -72.5t71.5 -25.5q49 0 85 25.5t46 72.5q10 45 -15.5 68.5t-74.5 23.5q-43 0 -80 -25.5t-47 -66.5zM840 422q-8 -35 12 -57.5t57 -22.5q41 0 70 22.5t37 57.5q8 37 -12.5 57.5t-61.5 20.5 q-35 0 -64.5 -20.5t-37.5 -57.5z" />
<glyph unicode="&#x215c;" horiz-adv-x="1185" d="M55 569h109q-10 -47 8 -81.5t78 -34.5q49 0 89 25.5t50 72.5q6 33 -4 51.5t-30.5 27.5t-49.5 12t-59 3l18 78q51 0 97.5 17.5t56.5 66.5q8 37 -19.5 52t-60.5 15q-47 0 -78 -28.5t-41 -73.5h-108q23 94 89 145.5t160 51.5q37 0 72 -8.5t59.5 -27t35 -49t1.5 -73.5 q-10 -41 -38.5 -72.5t-75.5 -48.5v-4q51 -8 72.5 -47t9.5 -94q-18 -90 -94 -138.5t-171 -48.5q-111 0 -153.5 55.5t-22.5 155.5zM170 -33l786 1016h107l-784 -1016h-109zM655 170q23 102 127 139q-66 39 -51 115q16 78 75.5 120t154.5 42q96 0 137 -42t24 -120 q-8 -41 -29.5 -69.5t-62.5 -45.5q86 -35 66 -139q-16 -84 -88 -133t-174 -49q-98 0 -146.5 49t-32.5 133zM766 170q-10 -47 14.5 -72.5t71.5 -25.5q49 0 85 25.5t46 72.5q10 45 -15.5 68.5t-74.5 23.5q-43 0 -80 -25.5t-47 -66.5zM840 422q-8 -35 12 -57.5t57 -22.5 q41 0 70 22.5t37 57.5q8 37 -12.5 57.5t-61.5 20.5q-35 0 -64.5 -20.5t-37.5 -57.5z" />
<glyph unicode="&#x215d;" horiz-adv-x="1185" d="M80 551h110q-12 -94 84 -94q111 0 136 118q10 45 -12.5 78t-75.5 33q-68 0 -107 -51h-113l140 319h327l-20 -94h-240q-14 -33 -27.5 -60.5t-27.5 -62.5q49 33 111 33q92 0 132.5 -54.5t22.5 -140.5q-8 -41 -31.5 -77.5t-57.5 -65.5t-78 -46t-93 -17q-96 0 -146.5 46 t-33.5 136zM170 -33l786 1016h107l-784 -1016h-109zM655 170q23 102 127 139q-66 39 -51 115q16 78 75.5 120t154.5 42q96 0 137 -42t24 -120q-8 -41 -29.5 -69.5t-62.5 -45.5q86 -35 66 -139q-16 -84 -88 -133t-174 -49q-98 0 -146.5 49t-32.5 133zM766 170 q-10 -47 14.5 -72.5t71.5 -25.5q49 0 85 25.5t46 72.5q10 45 -15.5 68.5t-74.5 23.5q-43 0 -80 -25.5t-47 -66.5zM840 422q-8 -35 12 -57.5t57 -22.5q41 0 70 22.5t37 57.5q8 37 -12.5 57.5t-61.5 20.5q-35 0 -64.5 -20.5t-37.5 -57.5z" />
<glyph unicode="&#x215e;" horiz-adv-x="1185" d="M162 373q35 133 117.5 251.5t209.5 229.5h-305l21 94h428l-19 -84q-251 -219 -331 -491h-121zM170 -33l786 1016h107l-784 -1016h-109zM655 170q23 102 127 139q-66 39 -51 115q16 78 75.5 120t154.5 42q96 0 137 -42t24 -120q-8 -41 -29.5 -69.5t-62.5 -45.5 q86 -35 66 -139q-16 -84 -88 -133t-174 -49q-98 0 -146.5 49t-32.5 133zM766 170q-10 -47 14.5 -72.5t71.5 -25.5q49 0 85 25.5t46 72.5q10 45 -15.5 68.5t-74.5 23.5q-43 0 -80 -25.5t-47 -66.5zM840 422q-8 -35 12 -57.5t57 -22.5q41 0 70 22.5t37 57.5q8 37 -12.5 57.5 t-61.5 20.5q-35 0 -64.5 -20.5t-37.5 -57.5z" />
<glyph unicode="&#x2202;" horiz-adv-x="878" d="M37 155.5q-8 51.5 4 106.5q14 68 53 128.5t94.5 104.5t123 69.5t139.5 25.5q66 0 121 -15.5t90 -37.5q14 94 2.5 156.5t-39 100t-66.5 53t-80 15.5q-53 0 -116.5 -21.5t-114.5 -43.5l-27 96q49 29 122 51.5t171 22.5q82 0 150.5 -31t112.5 -91.5t58.5 -148t-10.5 -202.5 q-29 -129 -83 -226.5t-126.5 -162t-155.5 -96.5t-165 -32t-136.5 24t-84 63.5t-37.5 91zM219 264q-18 -88 13 -134t94 -46q49 0 95 25.5t86 68.5t73.5 99.5t58.5 117.5q-8 23 -28.5 38.5t-48 24.5t-58.5 13t-55 4q-37 0 -74 -15.5t-68 -43t-54.5 -66.5t-33.5 -86z" />
<glyph unicode="&#x2206;" horiz-adv-x="864" d="M-72 0l600 926h54l178 -926h-832zM113 94h495l-112 588z" />
<glyph unicode="&#x220f;" horiz-adv-x="1118" d="M-63 -287l270 1274h944l-270 -1274h-164l248 1166h-613l-248 -1166h-167z" />
<glyph unicode="&#x2211;" horiz-adv-x="968" d="M-111 -281l27 129l514 517l-287 505l25 119h864l-26 -123h-648l289 -497l-528 -531h676l-27 -119h-879z" />
<glyph unicode="&#x2212;" horiz-adv-x="815" d="M55 303v107h701v-107h-701z" />
<glyph unicode="&#x221a;" horiz-adv-x="825" d="M55 535l281 120l100 -549l424 1139l90 -20l-534 -1422l-72 -28l-143 751l-133 -59z" />
<glyph unicode="&#x221e;" horiz-adv-x="1015" d="M45 385q0 102 62.5 163.5t160.5 61.5q76 0 132.5 -42t109.5 -105l57.5 57.5t55 47t60.5 31.5t71 11q92 0 149.5 -59.5t57.5 -159.5q0 -53 -18.5 -95t-48.5 -71.5t-69 -46t-82 -16.5q-59 0 -115.5 35.5t-123.5 113.5q-53 -59 -108.5 -104t-137.5 -45q-43 0 -82 16.5 t-67.5 46t-46 70.5t-17.5 90zM143 383q0 -51 35 -89t90 -38q49 0 94.5 39t86.5 86q-41 57 -85.5 98t-101.5 41q-55 0 -87 -40t-32 -97zM561 387q57 -66 98 -98.5t89 -32.5q55 0 84.5 42t29.5 87q0 61 -31.5 98t-87.5 37q-31 0 -57.5 -15.5t-49 -37t-42 -44t-33.5 -36.5z" />
<glyph unicode="&#x222b;" horiz-adv-x="540" d="M-115 -201l43 105q20 -8 47 -8q14 0 32 5t36 27.5t37.5 66.5t36.5 124q35 166 59.5 321.5t59.5 313.5q39 180 113.5 258t172.5 78q43 0 68 -11l-39 -102q-23 6 -43 6q-23 0 -43.5 -10t-38.5 -36t-35.5 -73t-32.5 -121q-33 -154 -56 -304t-58 -316q-20 -98 -50 -163.5 t-66 -104.5t-78 -54.5t-85 -15.5q-25 0 -47 4t-33 10z" />
<glyph unicode="&#x2248;" horiz-adv-x="815" d="M29 473q35 47 90 82t125 35q57 0 95 -14.5t70.5 -33t67.5 -32.5t86 -14q49 0 88 29.5t62 54.5l65 -70q-35 -49 -91 -85t-122 -36q-57 0 -95 15.5t-71.5 33t-68.5 32.5t-86 15q-49 0 -89 -27.5t-69 -56.5zM33 195q35 47 91 81.5t122 34.5q57 0 95 -15t70.5 -32.5t67.5 -33 t86 -15.5t91 27.5t63 58.5l63 -68q-35 -53 -92 -87.5t-125 -34.5q-55 0 -92 14t-70.5 32.5t-69.5 33t-89 14.5q-45 0 -85 -26.5t-69 -55.5z" />
<glyph unicode="&#x2260;" horiz-adv-x="815" d="M66 137v139h225l86 136h-311v139h399l100 156h113l-100 -156h172v-139h-261l-86 -136h347v-139h-437l-71 -114h-113l72 114h-135z" />
<glyph unicode="&#x2264;" horiz-adv-x="815" d="M84 397v105l641 250v-117l-494 -184v-2l494 -185v-117zM86 0v100h639v-100h-639z" />
<glyph unicode="&#x2265;" horiz-adv-x="815" d="M84 0v100h639v-100h-639zM84 147v117l494 185v2l-494 184v117l641 -250v-105z" />
<glyph unicode="&#x25ca;" horiz-adv-x="815" d="M94 453l398 555h92l157 -555l-391 -549h-94zM188 455l131 -469h5l327 467l-129 469h-4z" />
<glyph unicode="&#x25cc;" horiz-adv-x="835" d="M35 428q0 16 12 27.5t27 11.5q14 0 26.5 -11.5t12.5 -27.5q0 -12 -12.5 -24.5t-26.5 -12.5t-26.5 12.5t-12.5 24.5zM63 297q0 39 37 39t37 -39q0 -37 -37 -37t-37 37zM63 561q0 35 37 35t37 -35q0 -41 -35 -41q-39 0 -39 41zM137 184q0 39 37 39q39 0 39 -39 q0 -37 -39 -37q-37 0 -37 37zM137 668q0 41 37 41q39 0 39 -41q0 -33 -39 -33q-37 0 -37 33zM248 111q0 39 37 39t37 -35q0 -39 -37 -39t-37 35zM248 743q0 39 37 39t37 -39q0 -35 -37 -34q-37 0 -37 34zM377 84q0 16 12 27.5t27 11.5q14 0 26.5 -11.5t12.5 -27.5 q0 -12 -12.5 -24.5t-26.5 -12.5t-26.5 12.5t-12.5 24.5zM377 770q0 16 12 27.5t27 11.5q14 0 26.5 -11.5t12.5 -27.5q0 -14 -12.5 -25.5t-26.5 -11.5t-26.5 11.5t-12.5 25.5zM512 743q0 39 37 39q35 0 35 -39q0 -35 -35 -34q-37 0 -37 34zM514 111q0 39 35 39t35 -39 q0 -35 -35 -35t-35 35zM618 668q0 41 41 41q35 0 35 -41q0 -33 -35 -33q-41 0 -41 33zM621 184q0 39 38 39q35 0 35 -39q0 -37 -35 -37q-39 0 -38 37zM694 297q0 39 37 39q39 0 39 -39q0 -37 -39 -37q-37 0 -37 37zM694 561q0 35 39 35q37 0 37 -35q0 -41 -39 -41 q-37 0 -37 41zM723 428q0 39 39 39q14 0 25.5 -11.5t11.5 -27.5q0 -12 -11.5 -24.5t-25.5 -12.5q-16 0 -27.5 12.5t-11.5 24.5z" />
<glyph unicode="&#x25fc;" horiz-adv-x="706" d="M0 0v707h707v-707h-707z" />
<glyph unicode="&#xe003;" horiz-adv-x="661" d="M-109 0l424 713h146l127 -713h-154l-31 182h-260q-25 -45 -52.5 -92t-49.5 -90h-150zM207 295h184q-10 70 -19.5 127t-19.5 129zM291 801l166 195h155l-233 -195h-88z" />
<glyph unicode="&#xe004;" horiz-adv-x="661" d="M-109 0l424 713h146l127 -713h-154l-31 182h-260q-25 -45 -52.5 -92t-49.5 -90h-150zM207 295h184q-10 70 -19.5 127t-19.5 129zM208 977h78q0 -57 35 -81t88 -24t95 26t65 79h78q-33 -98 -102.5 -145.5t-164.5 -47.5q-94 0 -139 49.5t-33 143.5z" />
<glyph unicode="&#xe005;" horiz-adv-x="661" d="M-109 0l424 713h146l127 -713h-154l-31 182h-260q-25 -45 -52.5 -92t-49.5 -90h-150zM173 795l186 194h151l105 -194h-125l-70 123l-123 -123h-124zM207 295h184q-10 70 -19.5 127t-19.5 129z" />
<glyph unicode="&#xe006;" horiz-adv-x="661" d="M-109 0l424 713h146l127 -713h-154l-31 182h-260q-25 -45 -52.5 -92t-49.5 -90h-150zM207 295h184q-10 70 -19.5 127t-19.5 129zM215 860q6 29 32.5 50.5t55.5 21.5t45 -21.5t10 -50.5t-31.5 -50.5t-54.5 -21.5t-46 21.5t-11 50.5zM491 860q6 29 33 50.5t55 21.5 q29 0 45.5 -21.5t10.5 -50.5t-32 -50.5t-54 -21.5q-29 0 -46.5 21.5t-11.5 50.5z" />
<glyph unicode="&#xe007;" horiz-adv-x="661" d="M-109 0l424 713h146l127 -713h-154l-31 182h-260q-25 -45 -52.5 -92t-49.5 -90h-150zM207 295h184q-10 70 -19.5 127t-19.5 129zM287 989h158l80 -194h-86z" />
<glyph unicode="&#xe00d;" horiz-adv-x="661" d="M-109 0l424 713h146l127 -713h-154l-31 182h-260q-25 -45 -52.5 -92t-49.5 -90h-150zM207 295h184q-10 70 -19.5 127t-19.5 129zM291 912q12 57 60 97t106 40q57 0 88.5 -40t19.5 -97q-12 -55 -61 -96.5t-105 -41.5q-55 0 -87.5 41t-20.5 97zM346 912q-8 -33 11.5 -57.5 t52.5 -24.5q35 0 64.5 24.5t37.5 57.5q8 35 -11.5 59.5t-54.5 24.5q-33 0 -62.5 -25t-37.5 -59z" />
<glyph unicode="&#xe00e;" horiz-adv-x="661" d="M-109 0l424 713h146l127 -713h-154l-31 182h-260q-25 -45 -52.5 -92t-49.5 -90h-150zM192 799q12 53 57.5 95t104.5 42q27 0 49.5 -8t44 -17.5t41 -17.5t41.5 -8q27 0 41 20.5t17 36.5h69q-8 -53 -54 -95t-104 -42q-29 0 -49 8t-37.5 17.5t-35 17.5t-41.5 8 q-25 0 -45.5 -16.5t-26.5 -40.5h-72zM207 295h184q-10 70 -19.5 127t-19.5 129z" />
<glyph unicode="&#xe012;" horiz-adv-x="716" d="M11.5 210q-11.5 69 4.5 148q16 78 55.5 146.5t95.5 119t124.5 79t146.5 28.5q123 0 195 -68.5t57 -189.5h-141q-4 137 -135 137q-96 0 -164 -70.5t-90 -181.5q-25 -111 12 -183.5t133 -72.5q68 0 123 44t82 137h139q-18 -68 -54 -122.5t-84 -94t-107.5 -61t-122.5 -21.5 q-76 0 -133.5 28.5t-91 78.5t-45 119zM313 795l164 194h158l-233 -194h-89z" />
<glyph unicode="&#xe013;" horiz-adv-x="716" d="M11.5 210q-11.5 69 4.5 148q16 78 55.5 146.5t95.5 119t124.5 79t146.5 28.5q123 0 195 -68.5t57 -189.5h-141q-4 137 -135 137q-96 0 -164 -70.5t-90 -181.5q-25 -111 12 -183.5t133 -72.5q68 0 123 44t82 137h139q-18 -68 -54 -122.5t-84 -94t-107.5 -61t-122.5 -21.5 q-76 0 -133.5 28.5t-91 78.5t-45 119zM279 989h114l66 -119l117 119h106l-196 -190h-95z" />
<glyph unicode="&#xe014;" horiz-adv-x="716" d="M11.5 210q-11.5 69 4.5 148q16 78 55.5 146.5t95.5 119t124.5 79t146.5 28.5q123 0 195 -68.5t57 -189.5h-141q-4 137 -135 137q-96 0 -164 -70.5t-90 -181.5q-25 -111 12 -183.5t133 -72.5q68 0 123 44t82 137h139q-18 -68 -54 -122.5t-84 -94t-107.5 -61t-122.5 -21.5 q-76 0 -133.5 28.5t-91 78.5t-45 119zM66 -270l28 49q14 -6 40 -13.5t53 -7.5q35 0 60.5 14.5t31.5 39.5q6 29 -8.5 41t-32.5 12q-16 0 -36 -5t-28 -10l-20 15l88 135h51l-61 -90q12 4 25 6t24 2q53 0 72.5 -29.5t11.5 -70.5q-12 -55 -65.5 -83t-112.5 -28q-76 0 -121 23z " />
<glyph unicode="&#xe01a;" horiz-adv-x="716" d="M-23 0l66 313h-57l20 103h60l61 297h299q150 0 213.5 -95.5t28.5 -259.5q-35 -168 -137.5 -263t-254.5 -95h-299zM145 121h111q117 0 180 54t92 183q25 121 -14 178.5t-158 57.5h-110l-37 -178h225l-22 -103h-226z" />
<glyph unicode="&#xe01c;" horiz-adv-x="624" d="M-23 0l150 713h520l-24 -125h-377l-35 -160h350l-26 -121h-351l-37 -180h385l-26 -127h-529zM385 801l166 195h155l-233 -195h-88z" />
<glyph unicode="&#xe01f;" horiz-adv-x="624" d="M-23 0l150 713h520l-24 -125h-377l-35 -160h350l-26 -121h-351l-37 -180h385l-26 -127h-529zM170 795l186 194h151l105 -194h-125l-70 123l-123 -123h-124z" />
<glyph unicode="&#xe020;" horiz-adv-x="624" d="M-23 0l150 713h520l-24 -125h-377l-35 -160h350l-26 -121h-351l-37 -180h385l-26 -127h-529zM230 854q6 29 32.5 50.5t55.5 21.5t45 -21.5t10 -50.5t-31.5 -50.5t-54.5 -21.5t-46 21.5t-11 50.5zM506 854q6 29 33 50.5t55 21.5q29 0 45.5 -21.5t10.5 -50.5t-32 -50.5 t-54 -21.5q-29 0 -46.5 21.5t-11.5 50.5z" />
<glyph unicode="&#xe022;" horiz-adv-x="624" d="M-23 0l150 713h520l-24 -125h-377l-35 -160h350l-26 -121h-351l-37 -180h385l-26 -127h-529zM280 995h182l82 -195h-112z" />
<glyph unicode="&#xe02c;" horiz-adv-x="716" d="M-23 0l66 309h-47l18 103h49l64 301h299q150 0 213.5 -95.5t28.5 -259.5q-35 -168 -137.5 -263t-254.5 -95h-299zM145 121h111q117 0 180 54t92 183q25 121 -14 178.5t-158 57.5h-110l-39 -182h178l-20 -103h-179z" />
<glyph unicode="&#xe033;" horiz-adv-x="751" d="M16.5 211q-10.5 68 6.5 147q16 76 54 143.5t93 119t123.5 81t148.5 29.5q123 0 195 -66.5t61 -191.5h-141q8 68 -34 102.5t-105 34.5q-96 0 -164 -70.5t-90 -181.5q-25 -111 12 -183.5t133 -72.5q86 0 143.5 45.5t77.5 124.5h-184l23 113h315l-80 -385h-96v70 q-104 -86 -223 -86q-76 0 -132.5 28.5t-91 79.5t-45 119zM274 975h78q0 -57 35 -81t88 -24t95 26t65 79h78q-33 -98 -102.5 -145.5t-164.5 -47.5q-94 0 -139 49.5t-33 143.5z" />
<glyph unicode="&#xe03c;" horiz-adv-x="274" d="M-23 0l150 713h143l-149 -713h-144zM84 795l164 194h158l-233 -194h-89z" />
<glyph unicode="&#xe03e;" horiz-adv-x="274" d="M-23 0l150 713h143l-149 -713h-144zM3 795l186 194h151l105 -194h-125l-70 123l-123 -123h-124z" />
<glyph unicode="&#xe03f;" horiz-adv-x="274" d="M-23 0l150 713h143l-149 -713h-144zM27 858q6 29 32.5 50.5t55.5 21.5t45 -21.5t10 -50.5t-31.5 -50.5t-54.5 -21.5t-46 21.5t-11 50.5zM303 858q6 29 33 50.5t55 21.5q29 0 45.5 -21.5t10.5 -50.5t-32 -50.5t-54 -21.5q-29 0 -46.5 21.5t-11.5 50.5z" />
<glyph unicode="&#xe040;" horiz-adv-x="274" d="M-23 0l150 713h143l-149 -713h-144zM164 868q6 33 34 55.5t58 22.5q33 0 50.5 -22.5t11.5 -55.5q-10 -35 -37 -57.5t-59 -22.5q-31 0 -48.5 24t-9.5 56z" />
<glyph unicode="&#xe041;" horiz-adv-x="274" d="M-25 0l150 713h143l-149 -713h-144zM131 989h158l80 -194h-86z" />
<glyph unicode="&#xe048;" horiz-adv-x="274" d="M-23 0l150 713h143l-149 -713h-144zM0 799q12 53 57.5 95t104.5 42q27 0 49.5 -8t44 -17.5t41 -17.5t41.5 -8q27 0 41 20.5t17 36.5h69q-8 -53 -54 -95t-104 -42q-29 0 -49 8t-37.5 17.5t-35 17.5t-41.5 8q-25 0 -45.5 -16.5t-26.5 -40.5h-72z" />
<glyph unicode="&#xe054;" horiz-adv-x="569" d="M-43 158l20 96l60 35l90 424h143l-69 -332l315 180l-20 -96l-316 -180l-33 -158h353l-27 -127h-496l39 193z" />
<glyph unicode="&#xe05f;" horiz-adv-x="716" d="M-27 0l150 713h147l199 -484l102 484h136l-150 -713h-145l-199 483l-102 -483h-138zM221 799q12 53 57.5 95t104.5 42q27 0 49.5 -8t44 -17.5t41 -17.5t41.5 -8q27 0 41 20.5t17 36.5h69q-8 -53 -54 -95t-104 -42q-29 0 -49 8t-37.5 17.5t-35 17.5t-41.5 8 q-25 0 -45.5 -16.5t-26.5 -40.5h-72z" />
<glyph unicode="&#xe063;" horiz-adv-x="751" d="M14.5 210q-10.5 69 5.5 148q16 80 55.5 147.5t94.5 118t123.5 79t146.5 28.5q76 0 133.5 -28.5t92 -78t46 -118t-4.5 -148.5q-18 -82 -58.5 -150.5t-96.5 -118.5t-125 -77.5t-144 -27.5q-78 0 -134.5 28.5t-90 78.5t-44 119zM162 358q-25 -111 12 -183.5t133 -72.5 t163.5 69.5t92.5 186.5q23 113 -14 182.5t-133 69.5t-164 -70.5t-90 -181.5zM319 795l164 194h158l-233 -194h-89z" />
<glyph unicode="&#xe065;" horiz-adv-x="751" d="M14.5 210q-10.5 69 5.5 148q16 80 55.5 147.5t94.5 118t123.5 79t146.5 28.5q76 0 133.5 -28.5t92 -78t46 -118t-4.5 -148.5q-18 -82 -58.5 -150.5t-96.5 -118.5t-125 -77.5t-144 -27.5q-78 0 -134.5 28.5t-90 78.5t-44 119zM162 358q-25 -111 12 -183.5t133 -72.5 t163.5 69.5t92.5 186.5q23 113 -14 182.5t-133 69.5t-164 -70.5t-90 -181.5zM234 795l186 194h151l105 -194h-125l-70 123l-123 -123h-124z" />
<glyph unicode="&#xe066;" horiz-adv-x="751" d="M14.5 210q-10.5 69 5.5 148q16 80 55.5 147.5t94.5 118t123.5 79t146.5 28.5q76 0 133.5 -28.5t92 -78t46 -118t-4.5 -148.5q-18 -82 -58.5 -150.5t-96.5 -118.5t-125 -77.5t-144 -27.5q-78 0 -134.5 28.5t-90 78.5t-44 119zM162 358q-25 -111 12 -183.5t133 -72.5 t163.5 69.5t92.5 186.5q23 113 -14 182.5t-133 69.5t-164 -70.5t-90 -181.5zM258 854q6 29 32.5 50.5t55.5 21.5t45 -21.5t10 -50.5t-31.5 -50.5t-54.5 -21.5t-46 21.5t-11 50.5zM534 854q6 29 33 50.5t55 21.5q29 0 45.5 -21.5t10.5 -50.5t-32 -50.5t-54 -21.5 q-29 0 -46.5 21.5t-11.5 50.5z" />
<glyph unicode="&#xe067;" horiz-adv-x="751" d="M14.5 210q-10.5 69 5.5 148q16 80 55.5 147.5t94.5 118t123.5 79t146.5 28.5q76 0 133.5 -28.5t92 -78t46 -118t-4.5 -148.5q-18 -82 -58.5 -150.5t-96.5 -118.5t-125 -77.5t-144 -27.5q-78 0 -134.5 28.5t-90 78.5t-44 119zM162 358q-25 -111 12 -183.5t133 -72.5 t163.5 69.5t92.5 186.5q23 113 -14 182.5t-133 69.5t-164 -70.5t-90 -181.5zM368 989h158l80 -194h-86z" />
<glyph unicode="&#xe06f;" horiz-adv-x="751" d="M17.5 180q-17.5 80 2.5 178q16 80 55.5 147.5t94.5 118t123.5 79t146.5 28.5q35 0 68 -7t61 -19l31 40h86l-57 -79q53 -49 75.5 -129.5t2.5 -178.5q-18 -82 -58.5 -150.5t-96.5 -118.5t-125 -77.5t-144 -27.5q-78 0 -136 28l-28 -39h-86l57 78q-55 49 -72.5 129zM154 253 q4 -48 22 -83l311 424q-33 16 -71 16q-96 0 -164 -70.5t-90 -181.5q-12 -57 -8 -105zM227 121q33 -18 80 -19q96 0 163.5 69.5t92.5 186.5q25 119 -22 191z" />
<glyph unicode="&#xe071;" horiz-adv-x="751" d="M14.5 210q-10.5 69 5.5 148q16 80 55.5 147.5t94.5 118t123.5 79t146.5 28.5q76 0 133.5 -28.5t92 -78t46 -118t-4.5 -148.5q-18 -82 -58.5 -150.5t-96.5 -118.5t-125 -77.5t-144 -27.5q-78 0 -134.5 28.5t-90 78.5t-44 119zM162 358q-25 -111 12 -183.5t133 -72.5 t163.5 69.5t92.5 186.5q23 113 -14 182.5t-133 69.5t-164 -70.5t-90 -181.5zM237 799q12 53 57.5 95t104.5 42q27 0 49.5 -8t44 -17.5t41 -17.5t41.5 -8q27 0 41 20.5t17 36.5h69q-8 -53 -54 -95t-104 -42q-29 0 -49 8t-37.5 17.5t-35 17.5t-41.5 8q-25 0 -45.5 -16.5 t-26.5 -40.5h-72z" />
<glyph unicode="&#xe084;" horiz-adv-x="643" d="M-8 252h141q-35 -150 131 -150q66 0 108 28t50 67q12 57 -35 75l-192 58q-72 23 -106 68.5t-17 117.5q10 49 38.5 88t69.5 67.5t92.5 44t106.5 15.5q121 0 186.5 -63.5t40.5 -180.5h-141q18 123 -113 123q-119 0 -133 -80q-10 -37 5.5 -52t49.5 -25l191 -56 q66 -20 89 -77.5t13 -108.5q-23 -104 -115 -165.5t-221 -61.5q-135 0 -200.5 65.5t-38.5 202.5zM232 989h114l66 -119l117 119h106l-196 -190h-95z" />
<glyph unicode="&#xe085;" horiz-adv-x="643" d="M-8 252h141q-35 -150 131 -150q66 0 108 28t50 67q12 57 -35 75l-192 58q-72 23 -106 68.5t-17 117.5q10 49 38.5 88t69.5 67.5t92.5 44t106.5 15.5q121 0 186.5 -63.5t40.5 -180.5h-141q18 123 -113 123q-119 0 -133 -80q-10 -37 5.5 -52t49.5 -25l191 -56 q66 -20 89 -77.5t13 -108.5q-23 -104 -115 -165.5t-221 -61.5q-135 0 -200.5 65.5t-38.5 202.5zM29 -270l28 49q14 -6 40 -13.5t53 -7.5q35 0 60.5 14.5t31.5 39.5q6 29 -8.5 41t-32.5 12q-16 0 -36 -5t-28 -10l-20 15l88 135h51l-61 -90q12 4 25 6t24 2q53 0 72.5 -29.5 t11.5 -70.5q-12 -55 -65.5 -83t-112.5 -28q-76 0 -121 23z" />
<glyph unicode="&#xe092;" horiz-adv-x="661" d="M-23 0l150 713h143l-20 -105h174q78 0 121 -22.5t63.5 -56t21.5 -73.5t-7 -73q-6 -33 -24.5 -72t-52.5 -72.5t-87 -56t-131 -22.5h-174l-33 -160h-144zM180 281h168q39 0 79 22.5t52 81.5q14 61 -14.5 82.5t-71.5 21.5h-170z" />
<glyph unicode="&#xe094;" horiz-adv-x="716" d="M25 258l96 455h141l-86 -412q-10 -45 -11 -81t10 -60.5t38 -37.5t74 -13q88 0 130 40.5t66 151.5l86 412h142l-97 -455q-29 -135 -122 -204.5t-232 -69.5q-135 0 -198.5 70.5t-36.5 203.5zM344 795l164 194h158l-233 -194h-89z" />
<glyph unicode="&#xe096;" horiz-adv-x="716" d="M25 258l96 455h141l-86 -412q-10 -45 -11 -81t10 -60.5t38 -37.5t74 -13q88 0 130 40.5t66 151.5l86 412h142l-97 -455q-29 -135 -122 -204.5t-232 -69.5q-135 0 -198.5 70.5t-36.5 203.5zM218 795l186 194h151l105 -194h-125l-70 123l-123 -123h-124z" />
<glyph unicode="&#xe097;" horiz-adv-x="716" d="M25 258l96 455h141l-86 -412q-10 -45 -11 -81t10 -60.5t38 -37.5t74 -13q88 0 130 40.5t66 151.5l86 412h142l-97 -455q-29 -135 -122 -204.5t-232 -69.5q-135 0 -198.5 70.5t-36.5 203.5zM242 854q6 29 32.5 50.5t55.5 21.5t45 -21.5t10 -50.5t-31.5 -50.5t-54.5 -21.5 t-46 21.5t-11 50.5zM518 854q6 29 33 50.5t55 21.5q29 0 45.5 -21.5t10.5 -50.5t-32 -50.5t-54 -21.5q-29 0 -46.5 21.5t-11.5 50.5z" />
<glyph unicode="&#xe098;" horiz-adv-x="716" d="M25 258l96 455h141l-86 -412q-10 -45 -11 -81t10 -60.5t38 -37.5t74 -13q88 0 130 40.5t66 151.5l86 412h142l-97 -455q-29 -135 -122 -204.5t-232 -69.5q-135 0 -198.5 70.5t-36.5 203.5zM299 989h158l80 -194h-86z" />
<glyph unicode="&#xe0a1;" horiz-adv-x="716" d="M25 258l96 455h141l-86 -412q-10 -45 -11 -81t10 -60.5t38 -37.5t74 -13q88 0 130 40.5t66 151.5l86 412h142l-97 -455q-29 -135 -122 -204.5t-232 -69.5q-135 0 -198.5 70.5t-36.5 203.5zM221 799q12 53 57.5 95t104.5 42q27 0 49.5 -8t44 -17.5t41 -17.5t41.5 -8 q27 0 41 20.5t17 36.5h69q-8 -53 -54 -95t-104 -42q-29 0 -49 8t-37.5 17.5t-35 17.5t-41.5 8q-25 0 -45.5 -16.5t-26.5 -40.5h-72z" />
<glyph unicode="&#xe0b7;" horiz-adv-x="643" d="M41 713h164l112 -299l242 299h160l-357 -432l-59 -281h-143l59 281zM205 854q6 29 32.5 50.5t55.5 21.5t45 -21.5t10 -50.5t-31.5 -50.5t-54.5 -21.5t-46 21.5t-11 50.5zM481 854q6 29 33 50.5t55 21.5q29 0 45.5 -21.5t10.5 -50.5t-32 -50.5t-54 -21.5q-29 0 -46.5 21.5 t-11.5 50.5z" />
<glyph unicode="&#xe0b8;" horiz-adv-x="643" d="M41 713h164l112 -299l242 299h160l-357 -432l-59 -281h-143l59 281zM280 989h158l80 -194h-86z" />
<glyph unicode="&#xe201;" horiz-adv-x="751" d="M10 210q-10 69 8 148q16 80 55.5 147.5t94.5 118t123.5 79t146.5 28.5q70 0 124 -24.5t91 -67.5q23 16 35 41q18 33 25 59h92q-10 -47 -45 -96t-68 -72q38 -92 13 -213q-18 -82 -58.5 -150.5t-96.5 -118.5t-125 -77.5t-144 -27.5q-78 0 -134.5 28.5t-91.5 78.5t-45 119z M160 358q-25 -111 12 -183.5t133 -72.5t163.5 69.5t92.5 186.5q23 113 -14 182.5t-133 69.5t-164 -70.5t-90 -181.5z" />
<glyph unicode="&#xe203;" horiz-adv-x="716" d="M25 258l96 455h141l-86 -412q-20 -90 -1.5 -141t112.5 -51q90 0 131 40.5t65 151.5l86 412h142q23 4 46 25.5t36 74.5h84q-6 -25 -17.5 -54.5t-33 -58t-55.5 -52t-81 -32.5l-76 -358q-29 -135 -122 -204.5t-232 -69.5q-135 0 -198.5 70.5t-36.5 203.5z" />
<glyph unicode="&#xe22e;" horiz-adv-x="661" d="M-109 0l424 713h146l127 -713h-154l-31 182h-260q-25 -45 -52.5 -92t-49.5 -90h-150zM127 -164q8 35 36.5 57.5t61.5 22.5t51.5 -22.5t10.5 -57.5q-6 -33 -35 -55.5t-62 -22.5t-51 22.5t-12 55.5zM207 295h184q-10 70 -19.5 127t-19.5 129z" />
<glyph unicode="&#xe231;" horiz-adv-x="661" d="M-109 0l424 713h146l127 -713h-154l-31 182h-260q-25 -45 -52.5 -92t-49.5 -90h-150zM207 295h184q-10 70 -19.5 127t-19.5 129zM274 889q16 72 64.5 116t127.5 44q61 0 93 -32t22 -81q-6 -27 -25.5 -45.5t-41 -34.5t-40 -34.5t-24.5 -43.5h-88q8 37 27.5 58.5t39 37 t35 27.5t19.5 31q4 10 -1 27.5t-38 17.5q-37 0 -57.5 -27.5t-26.5 -60.5h-86z" />
<glyph unicode="&#xe234;" horiz-adv-x="661" d="M-109 0l424 713h146l127 -713h-154l-31 182h-260q-25 -45 -52.5 -92t-49.5 -90h-150zM189 795l186 194h151l105 -194h-125l-70 123l-123 -123h-124zM207 295h184q-10 70 -19.5 127t-19.5 129zM589 908l164 194h158l-233 -194h-89z" />
<glyph unicode="&#xe237;" horiz-adv-x="661" d="M-109 0l424 713h146l127 -713h-154l-31 182h-260q-25 -45 -52.5 -92t-49.5 -90h-150zM189 795l186 194h151l105 -194h-125l-70 123l-123 -123h-124zM207 295h184q-10 70 -19.5 127t-19.5 129zM518 1102h158l80 -194h-86z" />
<glyph unicode="&#xe23a;" horiz-adv-x="661" d="M-109 0l424 713h146l127 -713h-154l-31 182h-260q-25 -45 -52.5 -92t-49.5 -90h-150zM189 795l186 194h151l105 -194h-125l-70 123l-123 -123h-124zM207 295h184q-10 70 -19.5 127t-19.5 129zM539 1018q16 72 64.5 116t127.5 44q61 0 93 -32t22 -81q-6 -27 -25.5 -45.5 t-41 -34.5t-40 -34.5t-24.5 -43.5h-88q8 37 27.5 58.5t39 37t35 27.5t19.5 31q4 10 -1 27.5t-38 17.5q-37 0 -57.5 -27.5t-26.5 -60.5h-86z" />
<glyph unicode="&#xe23d;" horiz-adv-x="661" d="M-109 0l424 713h146l127 -713h-154l-31 182h-260q-25 -45 -52.5 -92t-49.5 -90h-150zM189 795l186 194h151l105 -194h-125l-70 123l-123 -123h-124zM207 295h184q-10 70 -19.5 127t-19.5 129zM233 1057q12 53 57.5 95t104.5 42q27 0 49.5 -8t44 -17.5t41 -17.5t41.5 -8 q27 0 41 20.5t17 36.5h69q-8 -53 -54 -95t-104 -42q-29 0 -49 8t-37.5 17.5t-35 17.5t-41.5 8q-25 0 -45.5 -16.5t-26.5 -40.5h-72z" />
<glyph unicode="&#xe240;" horiz-adv-x="661" d="M-109 0l424 713h146l127 -713h-154l-31 182h-260q-25 -45 -52.5 -92t-49.5 -90h-150zM127 -164q8 35 36.5 57.5t61.5 22.5t51.5 -22.5t10.5 -57.5q-6 -33 -35 -55.5t-62 -22.5t-51 22.5t-12 55.5zM189 795l186 194h151l105 -194h-125l-70 123l-123 -123h-124zM207 295 h184q-10 70 -19.5 127t-19.5 129z" />
<glyph unicode="&#xe243;" horiz-adv-x="661" d="M-109 0l424 713h146l127 -713h-154l-31 182h-260q-25 -45 -52.5 -92t-49.5 -90h-150zM207 295h184q-10 70 -19.5 127t-19.5 129zM213 975h78q0 -57 35 -81t88 -24t95 26t65 79h78q-33 -98 -102.5 -145.5t-164.5 -47.5q-94 0 -139 49.5t-33 143.5zM350 969l164 194h158 l-233 -194h-89z" />
<glyph unicode="&#xe246;" horiz-adv-x="661" d="M-109 0l424 713h146l127 -713h-154l-31 182h-260q-25 -45 -52.5 -92t-49.5 -90h-150zM207 295h184q-10 70 -19.5 127t-19.5 129zM213 975h78q0 -57 35 -81t88 -24t95 26t65 79h78q-33 -98 -102.5 -145.5t-164.5 -47.5q-94 0 -139 49.5t-33 143.5zM248 1163h158l80 -194 h-86z" />
<glyph unicode="&#xe249;" horiz-adv-x="661" d="M-109 0l424 713h146l127 -713h-154l-31 182h-260q-25 -45 -52.5 -92t-49.5 -90h-150zM207 295h184q-10 70 -19.5 127t-19.5 129zM213 975h78q0 -57 35 -81t88 -24t95 26t65 79h78q-33 -98 -102.5 -145.5t-164.5 -47.5q-94 0 -139 49.5t-33 143.5zM279 1079 q16 72 64.5 116t127.5 44q61 0 93 -32t22 -81q-6 -27 -25.5 -45.5t-41 -34.5t-40 -34.5t-24.5 -43.5h-88q8 37 27.5 58.5t39 37t35 27.5t19.5 31q4 10 -1 27.5t-38 17.5q-37 0 -57.5 -27.5t-26.5 -60.5h-86z" />
<glyph unicode="&#xe24c;" horiz-adv-x="661" d="M-109 0l424 713h146l127 -713h-154l-31 182h-260q-25 -45 -52.5 -92t-49.5 -90h-150zM192 1063q12 53 57.5 95t104.5 42q27 0 49.5 -8t44 -17.5t41 -17.5t41.5 -8q27 0 41 20.5t17 36.5h69q-8 -53 -54 -95t-104 -42q-29 0 -49 8t-37.5 17.5t-35 17.5t-41.5 8 q-25 0 -45.5 -16.5t-26.5 -40.5h-72zM207 295h184q-10 70 -19.5 127t-19.5 129zM213 975h78q0 -57 35 -81t88 -24t95 26t65 79h78q-33 -98 -102.5 -145.5t-164.5 -47.5q-94 0 -139 49.5t-33 143.5z" />
<glyph unicode="&#xe24f;" horiz-adv-x="661" d="M-109 0l424 713h146l127 -713h-154l-31 182h-260q-25 -45 -52.5 -92t-49.5 -90h-150zM127 -164q8 35 36.5 57.5t61.5 22.5t51.5 -22.5t10.5 -57.5q-6 -33 -35 -55.5t-62 -22.5t-51 22.5t-12 55.5zM207 295h184q-10 70 -19.5 127t-19.5 129zM213 975h78q0 -57 35 -81 t88 -24t95 26t65 79h78q-33 -98 -102.5 -145.5t-164.5 -47.5q-94 0 -139 49.5t-33 143.5z" />
<glyph unicode="&#xe252;" horiz-adv-x="624" d="M-23 0l150 713h520l-24 -125h-377l-35 -160h350l-26 -121h-351l-37 -180h385l-26 -127h-529zM109 -164q8 35 36.5 57.5t61.5 22.5t51.5 -22.5t10.5 -57.5q-6 -33 -35 -55.5t-62 -22.5t-51 22.5t-12 55.5z" />
<glyph unicode="&#xe255;" horiz-adv-x="624" d="M-23 0l150 713h520l-24 -125h-377l-35 -160h350l-26 -121h-351l-37 -180h385l-26 -127h-529zM274 889q16 72 64.5 116t127.5 44q61 0 93 -32t22 -81q-6 -27 -25.5 -45.5t-41 -34.5t-40 -34.5t-24.5 -43.5h-88q8 37 27.5 58.5t39 37t35 27.5t19.5 31q4 10 -1 27.5 t-38 17.5q-37 0 -57.5 -27.5t-26.5 -60.5h-86z" />
<glyph unicode="&#xe258;" horiz-adv-x="624" d="M-23 0l150 713h520l-24 -125h-377l-35 -160h350l-26 -121h-351l-37 -180h385l-26 -127h-529zM196 797q12 53 57.5 95t104.5 42q27 0 49.5 -8t44 -17.5t41 -17.5t41.5 -8q27 0 41 20.5t17 36.5h69q-8 -53 -54 -95t-104 -42q-29 0 -49 8t-37.5 17.5t-35 17.5t-41.5 8 q-25 0 -45.5 -16.5t-26.5 -40.5h-72z" />
<glyph unicode="&#xe25e;" horiz-adv-x="624" d="M-23 0l150 713h520l-24 -125h-377l-35 -160h350l-26 -121h-351l-37 -180h385l-26 -127h-529zM189 795l186 194h151l105 -194h-125l-70 123l-123 -123h-124zM518 1102h158l80 -194h-86z" />
<glyph unicode="&#xe261;" horiz-adv-x="624" d="M-23 0l150 713h520l-24 -125h-377l-35 -160h350l-26 -121h-351l-37 -180h385l-26 -127h-529zM189 795l186 194h151l105 -194h-125l-70 123l-123 -123h-124zM539 1018q16 72 64.5 116t127.5 44q61 0 93 -32t22 -81q-6 -27 -25.5 -45.5t-41 -34.5t-40 -34.5t-24.5 -43.5 h-88q8 37 27.5 58.5t39 37t35 27.5t19.5 31q4 10 -1 27.5t-38 17.5q-37 0 -57.5 -27.5t-26.5 -60.5h-86z" />
<glyph unicode="&#xe264;" horiz-adv-x="624" d="M-23 0l150 713h520l-24 -125h-377l-35 -160h350l-26 -121h-351l-37 -180h385l-26 -127h-529zM189 795l186 194h151l105 -194h-125l-70 123l-123 -123h-124zM235 1057q12 53 57.5 95t104.5 42q27 0 49.5 -8t44 -17.5t41 -17.5t41.5 -8q27 0 41 20.5t17 36.5h69 q-8 -53 -54 -95t-104 -42q-29 0 -49 8t-37.5 17.5t-35 17.5t-41.5 8q-25 0 -45.5 -16.5t-26.5 -40.5h-72z" />
<glyph unicode="&#xe267;" horiz-adv-x="624" d="M-23 0l150 713h520l-24 -125h-377l-35 -160h350l-26 -121h-351l-37 -180h385l-26 -127h-529zM109 -164q8 35 36.5 57.5t61.5 22.5t51.5 -22.5t10.5 -57.5q-6 -33 -35 -55.5t-62 -22.5t-51 22.5t-12 55.5zM189 795l186 194h151l105 -194h-125l-70 123l-123 -123h-124z" />
<glyph unicode="&#xe26a;" horiz-adv-x="274" d="M-23 0l150 713h143l-149 -713h-144zM90 889q16 72 64.5 116t127.5 44q61 0 93 -32t22 -81q-6 -27 -25.5 -45.5t-41 -34.5t-40 -34.5t-24.5 -43.5h-88q8 37 27.5 58.5t39 37t35 27.5t19.5 31q4 10 -1 27.5t-38 17.5q-37 0 -57.5 -27.5t-26.5 -60.5h-86z" />
<glyph unicode="&#xe26e;" horiz-adv-x="751" d="M14.5 210q-10.5 69 5.5 148q16 80 55.5 147.5t94.5 118t123.5 79t146.5 28.5q76 0 133.5 -28.5t92 -78t46 -118t-4.5 -148.5q-18 -82 -58.5 -150.5t-96.5 -118.5t-125 -77.5t-144 -27.5q-78 0 -134.5 28.5t-90 78.5t-44 119zM162 358q-25 -111 12 -183.5t133 -72.5 t163.5 69.5t92.5 186.5q23 113 -14 182.5t-133 69.5t-164 -70.5t-90 -181.5zM172 -164q8 35 36.5 57.5t61.5 22.5t51.5 -22.5t10.5 -57.5q-6 -33 -35 -55.5t-62 -22.5t-51 22.5t-12 55.5z" />
<glyph unicode="&#xe270;" horiz-adv-x="751" d="M14.5 210q-10.5 69 5.5 148q16 80 55.5 147.5t94.5 118t123.5 79t146.5 28.5q76 0 133.5 -28.5t92 -78t46 -118t-4.5 -148.5q-18 -82 -58.5 -150.5t-96.5 -118.5t-125 -77.5t-144 -27.5q-78 0 -134.5 28.5t-90 78.5t-44 119zM162 358q-25 -111 12 -183.5t133 -72.5 t163.5 69.5t92.5 186.5q23 113 -14 182.5t-133 69.5t-164 -70.5t-90 -181.5zM328 889q16 72 64.5 116t127.5 44q61 0 93 -32t22 -81q-6 -27 -25.5 -45.5t-41 -34.5t-40 -34.5t-24.5 -43.5h-88q8 37 27.5 58.5t39 37t35 27.5t19.5 31q4 10 -1 27.5t-38 17.5 q-37 0 -57.5 -27.5t-26.5 -60.5h-86z" />
<glyph unicode="&#xe272;" horiz-adv-x="751" d="M14.5 210q-10.5 69 5.5 148q16 80 55.5 147.5t94.5 118t123.5 79t146.5 28.5q76 0 133.5 -28.5t92 -78t46 -118t-4.5 -148.5q-18 -82 -58.5 -150.5t-96.5 -118.5t-125 -77.5t-144 -27.5q-78 0 -134.5 28.5t-90 78.5t-44 119zM162 358q-25 -111 12 -183.5t133 -72.5 t163.5 69.5t92.5 186.5q23 113 -14 182.5t-133 69.5t-164 -70.5t-90 -181.5zM234 795l186 194h151l105 -194h-125l-70 123l-123 -123h-124zM634 908l164 194h158l-233 -194h-89z" />
<glyph unicode="&#xe274;" horiz-adv-x="751" d="M14.5 210q-10.5 69 5.5 148q16 80 55.5 147.5t94.5 118t123.5 79t146.5 28.5q76 0 133.5 -28.5t92 -78t46 -118t-4.5 -148.5q-18 -82 -58.5 -150.5t-96.5 -118.5t-125 -77.5t-144 -27.5q-78 0 -134.5 28.5t-90 78.5t-44 119zM162 358q-25 -111 12 -183.5t133 -72.5 t163.5 69.5t92.5 186.5q23 113 -14 182.5t-133 69.5t-164 -70.5t-90 -181.5zM234 795l186 194h151l105 -194h-125l-70 123l-123 -123h-124zM563 1102h158l80 -194h-86z" />
<glyph unicode="&#xe276;" horiz-adv-x="751" d="M14.5 210q-10.5 69 5.5 148q16 80 55.5 147.5t94.5 118t123.5 79t146.5 28.5q76 0 133.5 -28.5t92 -78t46 -118t-4.5 -148.5q-18 -82 -58.5 -150.5t-96.5 -118.5t-125 -77.5t-144 -27.5q-78 0 -134.5 28.5t-90 78.5t-44 119zM162 358q-25 -111 12 -183.5t133 -72.5 t163.5 69.5t92.5 186.5q23 113 -14 182.5t-133 69.5t-164 -70.5t-90 -181.5zM234 795l186 194h151l105 -194h-125l-70 123l-123 -123h-124zM584 1018q16 72 64.5 116t127.5 44q61 0 93 -32t22 -81q-6 -27 -25.5 -45.5t-41 -34.5t-40 -34.5t-24.5 -43.5h-88q8 37 27.5 58.5 t39 37t35 27.5t19.5 31q4 10 -1 27.5t-38 17.5q-37 0 -57.5 -27.5t-26.5 -60.5h-86z" />
</font>
</defs>
</svg>
